<?xml version="1.0" encoding="UTF-8" standalone="no"?><!DOCTYPE svg PUBLIC "-//W3C//DTD SVG 1.1//EN" "http://www.w3.org/Graphics/SVG/1.1/DTD/svg11.dtd"><svg width="15147px" height="15161px" version="1.1" xmlns="http://www.w3.org/2000/svg" xmlns:xlink="http://www.w3.org/1999/xlink" xml:space="preserve" xmlns:serif="http://www.serif.com/" style="fill-rule:evenodd;clip-rule:evenodd;stroke-linejoin:round;stroke-miterlimit:2;"><g transform="matrix(14.2222,0,0,14.2222,0,0)"><path d="M948.455,334.875L693.771,589.559C653.856,629.462 588.18,629.462 548.266,589.559L257.205,880.619C277.157,900.577 277.157,933.415 257.205,953.371L184.505,1026.17C164.548,1046.13 99.036,1078.8 79.078,1058.85L6.223,986.046C-13.728,966.09 18.946,900.577 38.898,880.619L111.649,807.868C131.607,787.916 164.445,787.916 184.403,807.868L475.514,516.807C435.611,476.893 435.611,411.217 475.514,371.302L730.198,116.618L948.455,334.875ZM140.884,861.537C106.276,861.537 78.181,889.634 78.181,924.24C78.181,958.848 106.276,986.945 140.884,986.945C175.49,986.945 203.587,958.848 203.587,924.24C203.587,889.634 175.49,861.537 140.884,861.537ZM998.27,285.06L780.013,66.803L816.388,30.428C856.303,-9.474 921.979,-9.474 961.893,30.428L1034.7,103.18C1074.6,143.094 1074.6,208.77 1034.7,248.685L998.321,285.06L998.27,285.06Z" style="fill:rgb(51,156,94);"/></g></svg>