<?xml version="1.0" encoding="UTF-8" standalone="no"?><!DOCTYPE svg PUBLIC "-//W3C//DTD SVG 1.1//EN" "http://www.w3.org/Graphics/SVG/1.1/DTD/svg11.dtd"><svg width="15147px" height="15161px" version="1.1" xmlns="http://www.w3.org/2000/svg" xmlns:xlink="http://www.w3.org/1999/xlink" xml:space="preserve" xmlns:serif="http://www.serif.com/" style="fill-rule:evenodd;clip-rule:evenodd;stroke-linejoin:round;stroke-miterlimit:2;"><g transform="matrix(14.2222,0,0,14.2222,0,0)"><g transform="matrix(1.82834,0,0,1.44026,-199.02,-36.88)"><path d="M359.395,477.235C359.395,486.364 355.839,494.948 349.351,501.436C338.001,512.786 331.749,527.879 331.749,543.931L331.749,718.79L136.501,718.79L136.501,543.931C136.501,527.879 130.25,512.788 118.865,501.403C112.411,494.948 108.855,486.364 108.855,477.235L108.855,137.365C108.855,129.267 115.444,122.678 123.542,122.678C131.641,122.678 138.229,129.267 138.229,137.365L138.229,303.24C138.229,310.398 144.031,316.199 151.188,316.199C158.345,316.199 164.147,310.398 164.147,303.24L164.147,82.073C164.147,73.975 170.735,67.387 178.834,67.387C186.932,67.387 193.521,73.975 193.521,82.073L193.521,289.417C193.521,296.575 199.323,302.376 206.479,302.376C213.636,302.376 219.438,296.575 219.438,289.417L219.438,40.605C219.438,32.506 226.027,25.918 234.125,25.918C242.224,25.918 248.812,32.506 248.812,40.605L248.812,275.594C248.812,282.752 254.614,288.553 261.771,288.553C268.928,288.553 274.73,282.752 274.73,275.594L274.73,82.073C274.73,73.975 281.318,67.387 289.417,67.387C297.515,67.387 304.104,73.975 304.104,82.073L304.104,358.531C304.104,365.69 309.906,371.49 317.063,371.49C324.219,371.49 330.022,365.69 330.022,358.531L330.022,247.948C330.022,239.85 336.61,233.261 344.708,233.261C352.807,233.261 359.395,239.85 359.395,247.948L359.395,477.235ZM344.708,765.068L123.542,765.068C115.444,765.068 108.855,758.479 108.855,750.381C108.855,742.282 115.444,735.694 123.542,735.694L344.708,735.694C352.807,735.694 359.395,742.282 359.395,750.381C359.395,758.479 352.807,765.068 344.708,765.068ZM440.605,477.235L440.605,247.948C440.605,239.85 447.193,233.261 455.292,233.261C463.39,233.261 469.978,239.85 469.978,247.948L469.978,358.531C469.978,365.69 475.781,371.49 482.937,371.49C490.094,371.49 495.896,365.69 495.896,358.531L495.896,82.073C495.896,73.975 502.485,67.387 510.583,67.387C518.682,67.387 525.27,73.975 525.27,82.073L525.27,275.594C525.27,282.752 531.072,288.553 538.229,288.553C545.386,288.553 551.188,282.752 551.188,275.594L551.188,40.605C551.188,32.506 557.776,25.918 565.875,25.918C573.973,25.918 580.562,32.506 580.562,40.605L580.562,289.417C580.562,296.575 586.364,302.376 593.521,302.376C600.677,302.376 606.479,296.575 606.479,289.417L606.479,82.073C606.479,73.975 613.068,67.387 621.166,67.387C629.265,67.387 635.853,73.975 635.853,82.073L635.853,303.24C635.853,310.398 641.655,316.199 648.812,316.199C655.969,316.199 661.771,310.398 661.771,303.24L661.771,137.365C661.771,129.267 668.359,122.678 676.458,122.678C684.556,122.678 691.145,129.267 691.145,137.365L691.145,477.235C691.145,486.364 687.589,494.948 681.101,501.436C669.75,512.786 663.499,527.879 663.499,543.931L663.499,718.79L468.251,718.79L468.251,543.931C468.251,527.879 461.999,512.788 450.614,501.403C444.161,494.948 440.605,486.364 440.605,477.235ZM676.458,765.068L455.292,765.068C447.193,765.068 440.605,758.479 440.605,750.381C440.605,742.282 447.193,735.694 455.292,735.694L676.458,735.694C684.556,735.694 691.145,742.282 691.145,750.381C691.145,758.479 684.556,765.068 676.458,765.068Z" style="fill:rgb(51,156,94);"/></g></g></svg>