<?xml version="1.0" encoding="UTF-8" standalone="no"?><!DOCTYPE svg PUBLIC "-//W3C//DTD SVG 1.1//EN" "http://www.w3.org/Graphics/SVG/1.1/DTD/svg11.dtd"><svg width="15147px" height="15147px" version="1.1" xmlns="http://www.w3.org/2000/svg" xmlns:xlink="http://www.w3.org/1999/xlink" xml:space="preserve" xmlns:serif="http://www.serif.com/" style="fill-rule:evenodd;clip-rule:evenodd;stroke-linejoin:round;stroke-miterlimit:2;"><g transform="matrix(14.2222,0,0,14.2222,0,0)"><g transform="matrix(1,0,0,1,-1.27329e-11,-7073.91)"><path d="M495.077,8038.18C456.03,8034.79 417.551,8026.14 380.755,8012.44L380.723,8012.43C366.63,8007.16 352.676,8001.1 338.913,7994.24C304.184,7976.93 272.799,7955.58 245.035,7931.05C160.75,7856.59 109.862,7752.81 100.334,7643.45L-0,7643.45L0,7568.98L100.282,7568.98C104.824,7516.12 119.214,7463.21 144.32,7412.85L210.967,7446.07C191.187,7485.75 179.436,7527.34 175.096,7568.98L251.883,7568.98C268.529,7442.63 368.719,7342.45 495.077,7325.82L495.077,7249.05C439.318,7254.82 384.089,7273.77 334.109,7306.86L293.002,7244.76C355.655,7203.28 425.137,7180.21 495.077,7174.25L495.077,7073.91L569.545,7073.91L569.545,7174.32C660.853,7182.25 749.038,7218.95 819.626,7281.47C847.358,7306.03 872.378,7334.58 893.799,7366.94C902.288,7379.76 910.004,7392.87 916.975,7406.24L916.991,7406.27C940.091,7450.79 955.369,7499.08 962.063,7548.88L962.068,7548.92C962.953,7555.6 963.68,7562.3 964.25,7568.99L1064.62,7568.98L1064.63,7643.45L964.174,7643.46C959.596,7696.11 945.458,7747.74 922.322,7795.55L922.31,7795.57C921.65,7796.93 920.982,7798.29 920.306,7799.65C902.997,7834.37 881.638,7865.76 857.087,7893.53L857.08,7893.53C832.521,7921.28 803.978,7946.31 771.625,7967.73C770.362,7968.57 769.096,7969.4 767.804,7970.23L767.781,7970.25C708.274,8008.65 640.071,8031.99 569.545,8038.16L569.545,8138.53L495.077,8138.53L495.077,8038.18ZM889.458,7569C889.105,7565.57 888.702,7562.15 888.249,7558.72C882.702,7517.49 870.043,7477.49 850.908,7440.6C845.141,7429.54 838.742,7418.67 831.705,7408.04C813.955,7381.23 793.232,7357.57 770.252,7337.22C713.445,7286.9 642.876,7256.79 569.545,7249.11L569.545,7325.82C695.884,7342.48 796.05,7442.66 812.683,7569.01L889.458,7569ZM812.676,7643.48C796.022,7769.8 695.867,7869.96 569.545,7886.61L569.545,7963.35C625.687,7957.42 679.878,7938.34 727.385,7907.69C728.431,7907.01 729.475,7906.33 730.517,7905.64C757.316,7887.9 780.965,7867.17 801.309,7844.19C821.639,7821.19 839.321,7795.19 853.659,7766.43C854.216,7765.31 854.767,7764.19 855.312,7763.07C873.535,7725.4 885.024,7684.87 889.371,7643.47L812.676,7643.48ZM495.077,7886.62C368.719,7869.99 268.529,7769.81 251.883,7643.45L175.139,7643.45C184.406,7731.66 226.181,7815.03 294.339,7875.24C317.344,7895.57 343.357,7913.25 372.134,7927.59C383.544,7933.28 395.112,7938.3 406.795,7942.68C435.246,7953.26 464.928,7960.22 495.077,7963.38L495.077,7886.62ZM532.281,7397.85C417.282,7397.85 323.917,7491.22 323.917,7606.22C323.917,7721.22 417.282,7814.58 532.281,7814.58C647.281,7814.58 740.645,7721.22 740.645,7606.22C740.645,7491.22 647.281,7397.85 532.281,7397.85ZM495.077,7643.48L396.325,7643.48L396.325,7569.01L495.077,7569.01L495.077,7470.26L569.545,7470.26L569.545,7569.01L668.298,7569.01L668.298,7643.48L569.545,7643.48L569.545,7742.24L495.077,7742.24L495.077,7643.48Z" style="fill:rgb(51,156,94);"/></g></g></svg>