<?xml version="1.0" encoding="UTF-8" standalone="no"?><!DOCTYPE svg PUBLIC "-//W3C//DTD SVG 1.1//EN" "http://www.w3.org/Graphics/SVG/1.1/DTD/svg11.dtd"><svg width="1608px" height="953px" version="1.1" xmlns="http://www.w3.org/2000/svg" xmlns:xlink="http://www.w3.org/1999/xlink" xml:space="preserve" xmlns:serif="http://www.serif.com/" style="fill-rule:evenodd;clip-rule:evenodd;stroke-linejoin:round;stroke-miterlimit:2;"><g transform="matrix(14.2222,0,0,14.2222,0,0)"><path d="M96.791,33.5L85.841,33.5L82.061,24.68L88.081,24.68C89.853,24.68 91.499,25.562 92.483,27.034L96.791,33.5ZM100.548,21.151C98.599,21.151 97.02,19.573 97.02,17.623L97.02,7.038C97.02,5.089 98.599,3.51 100.548,3.51C102.498,3.51 104.076,5.089 104.076,7.038L104.076,17.623C104.076,19.573 102.498,21.151 100.548,21.151ZM93.492,17.624L93.497,17.624C93.497,18.912 93.844,20.111 94.444,21.152L31.75,21.152L31.75,15.861C31.75,14.885 32.54,14.096 33.514,14.096L93.492,14.096L93.492,17.624ZM93.492,7.038L93.492,10.567L27.605,10.567L28.107,3.51L94.441,3.51C93.836,4.551 93.492,5.75 93.492,7.038ZM29.986,37.028C29.986,36.054 30.775,35.265 31.75,35.265L37.042,35.265L31.75,24.68L40.57,24.68L45.862,35.265L51.155,35.265C52.129,35.265 52.918,36.054 52.918,37.028L52.918,38.793L29.986,38.793L29.986,37.028ZM109.369,45.849C108.395,45.849 107.605,46.639 107.605,47.614C107.605,48.588 108.395,49.377 109.369,49.377L112.897,49.377L112.897,58.198C112.897,59.172 112.108,59.962 111.133,59.962L105.841,59.962C105.841,54.124 101.096,49.377 95.257,49.377C89.418,49.377 84.672,54.124 84.672,59.962L70.56,59.962L70.56,26.444C70.56,25.469 71.349,24.68 72.323,24.68L78.216,24.68L83.049,35.961C83.331,36.606 83.967,37.029 84.672,37.029L104.293,37.029L108.888,38.175C111.248,38.767 112.897,40.875 112.897,43.309L112.897,45.849L109.369,45.849ZM17.638,44.084C17.638,43.11 18.427,42.321 19.402,42.321L67.035,42.321L67.035,59.962L51.159,59.962C51.159,54.122 46.414,49.377 40.575,49.377C34.736,49.377 29.991,54.122 29.991,59.962L19.406,59.962C18.432,59.962 17.643,59.171 17.643,58.197L17.643,54.669L8.822,54.669C7.848,54.669 7.058,53.88 7.058,52.905L7.058,49.377C7.058,48.402 7.848,47.613 8.822,47.613L10.587,47.613L10.587,28.207L3.53,28.207C2.605,28.207 1.837,27.493 1.77,26.567L0.007,1.87C-0.028,1.38 0.139,0.9 0.474,0.542C0.805,0.185 1.272,-0.018 1.761,-0.018L22.934,-0.018C23.42,-0.018 23.887,0.181 24.223,0.542C24.558,0.9 24.725,1.38 24.69,1.87L22.927,26.567C22.86,27.493 22.092,28.207 21.166,28.207L14.11,28.207L14.11,47.613L17.638,47.613L17.638,44.084ZM8.819,14.096C8.819,15.07 9.608,15.861 10.582,15.861L14.11,15.861C15.085,15.861 15.875,15.07 15.875,14.096C15.875,13.122 15.085,12.332 14.11,12.332L10.582,12.332C9.608,12.332 8.819,13.122 8.819,14.096ZM95.257,52.905C99.155,52.905 102.313,56.063 102.313,59.962C102.313,63.86 99.155,67.018 95.257,67.018C91.358,67.018 88.201,63.86 88.201,59.962C88.201,56.063 91.358,52.905 95.257,52.905ZM95.257,61.726C96.231,61.726 97.021,60.936 97.021,59.962C97.021,58.987 96.231,58.198 95.257,58.198C94.282,58.198 93.493,58.987 93.493,59.962C93.493,60.936 94.282,61.726 95.257,61.726ZM40.572,52.905C44.47,52.905 47.628,56.063 47.628,59.962C47.628,63.86 44.466,67.018 40.572,67.018C36.673,67.018 33.515,63.86 33.515,59.962C33.515,56.063 36.673,52.905 40.572,52.905ZM40.572,61.726C41.546,61.726 42.336,60.936 42.336,59.962C42.336,58.987 41.546,58.198 40.572,58.198C39.597,58.198 38.808,58.987 38.808,59.962C38.808,60.936 39.597,61.726 40.572,61.726Z" style="fill:rgb(51,156,94);"/></g></svg>