<?xml version="1.0" encoding="UTF-8" standalone="no"?><!DOCTYPE svg PUBLIC "-//W3C//DTD SVG 1.1//EN" "http://www.w3.org/Graphics/SVG/1.1/DTD/svg11.dtd"><svg width="15147px" height="15147px" version="1.1" xmlns="http://www.w3.org/2000/svg" xmlns:xlink="http://www.w3.org/1999/xlink" xml:space="preserve" xmlns:serif="http://www.serif.com/" style="fill-rule:evenodd;clip-rule:evenodd;stroke-linejoin:round;stroke-miterlimit:2;"><g transform="matrix(14.2222,0,0,14.2222,0,0)"><path d="M0.001,5.634C0.001,2.579 2.925,-0.005 6.387,-0.005L647.726,-0.005C651.189,-0.005 654.112,2.579 654.112,5.634L654.112,271.765L602.859,271.765L602.859,45.251L51.257,45.251L51.257,271.765L0.001,271.765L0.001,5.634ZM564.329,79.276L564.329,271.765L89.792,271.765L89.792,79.276L564.329,79.276ZM429.669,124.532L173.134,124.532L173.134,158.557L429.669,158.557L429.669,124.532ZM429.674,192.486L352.715,192.486L352.715,226.512L429.674,226.512L429.674,192.486ZM532.289,192.486L455.328,192.486L455.328,226.512L532.289,226.512L532.289,192.486ZM532.289,124.532L455.328,124.532L455.328,158.557L532.289,158.557L532.289,124.532ZM6.387,849.382C2.925,849.382 0.001,846.798 0.001,843.743L0.001,305.792L654.115,305.792L654.115,843.743C654.115,846.8 651.189,849.382 647.728,849.382L6.387,849.382ZM609.248,770.101L557.94,770.101L557.94,804.126L609.248,804.126L609.248,770.101ZM96.176,351.048L44.868,351.048L44.868,385.073L96.176,385.073L96.176,351.048ZM596.421,566.236L537.828,566.236C533.396,522.82 512.087,482.46 476.648,451.166C441.206,419.872 395.497,401.056 346.326,397.143L346.326,345.407L307.792,345.407L307.792,397.159C206.428,405.277 125.5,476.734 116.306,566.236L57.695,566.236L57.695,600.261L116.306,600.261C125.5,689.763 206.428,761.221 307.792,769.339L307.792,821.091L346.326,821.091L346.326,769.346C398.615,765.074 447.765,743.573 483.381,708.913C514.71,678.755 533.674,640.683 537.846,600.261L596.421,600.261L596.421,566.236ZM467.158,672.719L354.968,582.664L462.254,487.935C486.821,514.96 500.192,548.219 500.192,583.251C500.192,615.648 488.565,646.817 467.158,672.719ZM327.062,736.121C231.591,736.124 153.923,667.545 153.923,583.249C153.923,498.953 231.591,430.374 327.059,430.374C366.732,430.374 404.401,442.181 435.007,463.873L319.077,566.234L224.444,566.234L224.444,600.259L319.612,600.259L441.219,697.873C409.808,722.339 369.159,736.121 327.062,736.121ZM96.176,770.101L44.868,770.101L44.868,804.126L96.176,804.126L96.176,770.101ZM609.248,351.048L557.94,351.048L557.94,385.073L609.248,385.073L609.248,351.048ZM256.484,883.405L295.019,883.405L295.019,1024.72C295.345,1030.59 298.7,1030.59 301.403,1030.59L968.135,1030.59C974.784,1030.31 974.784,1027.34 974.784,1024.95L974.784,588.936L923.476,588.936L923.476,362.371L974.784,362.371L974.784,277.452L1013.32,277.452L1013.32,362.371L1064.63,362.371L1064.63,588.936L1013.32,588.936L1013.32,1024.95C1013.32,1054.05 986.455,1064.62 968.397,1064.62L301.403,1064.62C268.446,1064.62 256.484,1040.9 256.484,1024.95L256.484,883.405ZM1026.09,554.91L1026.09,396.397L962.016,396.397L962.016,554.91L1026.09,554.91ZM384.753,883.405L423.288,883.405L423.288,934.118C423.614,939.986 426.969,939.986 429.672,939.986L788.564,939.986C795.213,939.698 795.213,936.731 795.213,934.347L795.213,339.767L743.903,339.767L743.903,113.206L795.213,113.206L795.213,28.286L833.747,28.286L833.747,113.208L885.055,113.208L885.055,339.77L833.747,339.77L833.747,934.347C833.747,963.448 806.884,974.011 788.826,974.011L429.672,974.011C396.714,974.011 384.753,950.291 384.753,934.347L384.753,883.405ZM782.437,305.742L846.518,305.742L846.518,147.231L782.437,147.231L782.437,305.742Z" style="fill:rgb(51,156,94);"/></g></svg>