<?xml version="1.0" encoding="UTF-8" standalone="no"?>
<!DOCTYPE svg PUBLIC "-//W3C//DTD SVG 1.1//EN" "http://www.w3.org/Graphics/SVG/1.1/DTD/svg11.dtd">
<svg width="100%" height="100%" viewBox="0 0 4000 2251" version="1.1" xmlns="http://www.w3.org/2000/svg" xmlns:xlink="http://www.w3.org/1999/xlink" xml:space="preserve" xmlns:serif="http://www.serif.com/" style="fill-rule:evenodd;clip-rule:evenodd;stroke-linejoin:round;stroke-miterlimit:2;">
    <g id="Artboard1" transform="matrix(1,0,0,1,0.1,-629)">
        <rect x="-0.1" y="629" width="4000" height="2250.2" style="fill:none;"/>
        <clipPath id="_clip1">
            <rect x="-0.1" y="629" width="4000" height="2250.2"/>
        </clipPath>
        <g clip-path="url(#_clip1)">
            <g transform="matrix(1,0,0,1,0.9,0)">
                <path d="M3530.5,2102.5C3498.3,2099.7 3466.6,2092.6 3436.3,2081.3C3424.7,2076.9 3413.2,2072 3401.8,2066.3C3373.2,2052 3347.3,2034.4 3324.4,2014.2C3254.9,1952.8 3213,1867.3 3205.1,1777.1L3122.4,1777.1L3122.4,1715.7L3205.1,1715.7C3208.8,1672.1 3220.7,1628.5 3241.4,1587L3296.3,1614.4C3280,1647.1 3270.3,1681.4 3266.7,1715.7L3330,1715.7C3343.7,1611.5 3426.3,1529 3530.5,1515.3L3530.5,1452C3484.5,1456.8 3439,1472.4 3397.8,1499.7L3363.9,1448.5C3415.5,1414.3 3472.8,1395.3 3530.5,1390.4L3530.5,1307.7L3591.9,1307.7L3591.9,1390.5C3667.2,1397 3739.9,1427.3 3798,1478.8C3820.8,1499 3841.5,1522.6 3859.1,1549.2C3866.1,1559.8 3872.4,1570.6 3878.2,1581.6C3897.3,1618.3 3909.8,1658.1 3915.4,1699.2C3916.1,1704.7 3916.7,1710.2 3917.2,1715.8L3999.9,1715.8L3999.9,1777.2L3917.1,1777.2C3913.3,1820.6 3901.7,1863.2 3882.6,1902.6C3882.1,1903.7 3881.5,1904.9 3881,1906C3866.7,1934.6 3849.1,1960.5 3828.9,1983.4C3808.7,2006.3 3785.1,2026.9 3758.5,2044.6C3757.5,2045.3 3756.4,2046 3755.3,2046.7C3706.2,2078.4 3650,2097.6 3591.9,2102.7L3591.9,2185.5L3530.5,2185.5L3530.5,2102.5ZM3855.6,1715.8C3855.3,1713 3855,1710.2 3854.6,1707.3C3850,1673.3 3839.6,1640.3 3823.8,1609.9C3819.1,1600.8 3813.8,1591.8 3808,1583.1C3793.4,1561 3776.3,1541.5 3757.4,1524.7C3710.6,1483.2 3652.4,1458.4 3592,1452.1L3592,1515.3C3696.1,1529 3778.7,1611.6 3792.4,1715.8L3855.7,1715.8L3855.6,1715.8ZM3792.3,1777.1C3778.6,1881.2 3696,1963.8 3591.9,1977.5L3591.9,2040.8C3638.2,2035.9 3682.8,2020.2 3722,1994.9C3722.9,1994.3 3723.7,1993.8 3724.6,1993.2C3746.7,1978.6 3766.2,1961.5 3783,1942.5C3799.8,1923.5 3814.3,1902.1 3826.2,1878.4C3826.7,1877.5 3827.1,1876.5 3827.6,1875.6C3842.6,1844.5 3852.1,1811.1 3855.7,1777L3792.5,1777L3792.3,1777.1ZM3530.5,1977.6C3426.3,1963.9 3343.8,1881.3 3330,1777.2L3266.7,1777.2C3274.3,1849.9 3308.8,1918.6 3365,1968.3C3384,1985.1 3405.4,1999.6 3429.1,2011.5C3438.5,2016.2 3448.1,2020.3 3457.7,2023.9C3481.1,2032.6 3505.6,2038.4 3530.5,2041L3530.5,1977.6ZM3561.2,1574.7C3466.4,1574.7 3389.5,1651.7 3389.5,1746.5C3389.5,1841.3 3466.5,1918.2 3561.2,1918.2C3655.9,1918.2 3733,1841.2 3733,1746.5C3733,1651.8 3656,1574.7 3561.2,1574.7ZM3530.5,1777.2L3449.1,1777.2L3449.1,1715.8L3530.5,1715.8L3530.5,1634.4L3591.9,1634.4L3591.9,1715.8L3673.3,1715.8L3673.3,1777.2L3591.9,1777.2L3591.9,1858.6L3530.5,1858.6L3530.5,1777.2Z" style="fill:rgb(51,156,94);"/>
            </g>
            <g transform="matrix(1,0,0,1,0.9,0)">
                <path d="M915.2,1990.7L914.7,1991.2L904,1990.2L894.3,1987.4L877.7,1977.9L864.7,1963.9L859.8,1955L856.4,1944.8L856.4,1944.6C856.4,1944.6 823.9,1801.9 816.3,1768.6L520.3,1768.6L518,1769.9L411.1,1956.1C400.1,1975.3 373.2,1991 350.8,1991L294,1991L281.3,1989.5L268,1984L259.7,1977.4L252.9,1968.5L248.6,1958.1L247.2,1947.5L249.3,1933.2C249.3,1933.2 254.5,1921.7 254.5,1921.5L683.1,1194C694.4,1174.8 721.2,1159.5 743.3,1159.5L835.7,1159.5L846.4,1160.6L856.2,1163.4L872.9,1173.1L885.8,1187.4L890.6,1196.4L893.8,1206.7C893.8,1206.8 1044.8,1929.3 1044.8,1929.3L1046,1940.5L1044.7,1951.8L1040.9,1962.6L1034.7,1972.3L1026.5,1980.3L1016.8,1986.2L1006.1,1989.7L995,1990.8L915.2,1990.8L915.2,1990.7ZM743.3,1391.8L604.8,1627L790.9,1627L743.3,1391.8Z" style="fill:rgb(51,156,94);"/>
            </g>
            <g transform="matrix(1,0,0,1,0.9,0)">
                <path d="M1099.3,1930.4L1237.5,1208.1L1240.5,1197.7L1245.2,1188.5L1258.2,1173.8L1275.1,1164L1284.9,1161.2L1295.5,1160.2L1429.5,1160.2L1440.1,1161.2L1449.7,1163.9L1466.3,1173L1479.5,1186.6L1484.6,1195.2L1488.4,1205.1L1488.4,1205.4C1488.4,1205.4 1588.3,1578.6 1626.7,1721.8C1716.4,1583.2 1968.9,1192.8 1968.8,1193.1C1980.4,1174.9 2007.4,1160.1 2029.2,1160.1L2159.1,1160.1L2170.2,1161.2L2180.9,1164.7L2190.6,1170.5L2198.8,1178.3L2205.1,1187.9L2209,1198.7L2210.4,1210.1C2210.4,1210.1 2209.4,1220.1 2209.4,1220.8L2071.2,1943.1L2068.2,1953.5L2063.5,1962.7L2050.5,1977.4L2033.6,1987.2L2023.8,1990L2013.2,1991L1937.1,1991L1926,1989.9L1915.3,1986.4L1905.6,1980.6L1897.4,1972.8L1891.1,1963.2L1887.2,1952.4L1885.8,1941C1885.8,1941 1886.8,1931 1886.8,1930.3L1979.7,1444.9L1655.5,1958C1643.9,1976.3 1616.7,1991.1 1595.3,1991.1L1557.1,1991.1L1546.5,1990.1L1536.9,1987.4L1520.3,1978.2L1507.1,1964.5L1502,1955.7C1502,1955.7 1498.6,1946.1 1498.4,1945.9L1364.1,1437.8L1267.4,1943.2C1266.8,1946.6 1265.6,1949.8 1264.1,1952.8L1263.8,1954L1259.1,1963.2L1246.1,1977.9L1229.2,1987.7L1219.4,1990.5L1208.8,1991.5L1149.5,1991.5L1138.4,1990.4L1127.7,1986.9L1118,1981.1L1109.8,1973.3L1103.5,1963.7L1099.6,1952.9L1098.2,1941.5C1098.2,1941.5 1099.2,1931.5 1099.2,1930.8L1099.3,1930.4Z" style="fill:rgb(51,156,94);"/>
            </g>
            <g transform="matrix(1,0,0,1,0.9,0)">
                <path d="M2430.3,1680.3L2379.9,1943.1C2379.9,1943.3 2379.9,1943.6 2379.8,1943.8L2376.6,1953.9L2371.9,1962.8L2359.1,1977.1L2342.4,1986.9L2332.6,1989.8L2321.8,1990.9L2246.2,1990.9L2235.2,1989.8L2224.6,1986.4L2214.9,1980.6L2206.6,1972.7L2200.4,1963.1L2196.5,1952.4L2195.1,1941.2L2196,1930.2C2196,1930.1 2334.2,1207.7 2334.2,1207.7L2334.2,1207C2334.3,1207 2337.5,1196.9 2337.5,1196.9L2342.2,1188L2355,1173.7L2371.7,1163.9L2381.5,1161L2392.3,1159.9L2663.1,1159.9C2675.4,1159.9 2695.1,1160.9 2707.1,1162.2C2711.7,1162.7 2787.4,1170.4 2847.9,1186.6C2878.8,1194.9 2905.9,1206 2921.5,1218.3C2954.3,1243.5 2976.3,1275.2 2988.1,1313.9C2999.4,1350.9 3001.1,1389.7 2993.3,1430.2C2979.2,1504.5 2937.3,1565.7 2866.9,1613.4C2803.5,1657.1 2637.9,1677.8 2637.9,1677.8L2637.5,1677.8C2625.5,1679 2605.7,1680.3 2593.7,1680.3L2430.3,1680.3ZM2807.9,1417.7C2807.9,1417.7 2806.53,1424.43 2807.8,1417.7C2815,1380 2806.9,1350.8 2780.1,1331.4C2772.3,1325.7 2758.9,1322.3 2745.9,1319.2C2722,1313.5 2698.7,1311 2697.7,1310.9C2687.4,1309.8 2670.9,1309 2660.8,1309L2501.6,1309L2458.5,1533.6L2594.1,1533.6C2604,1533.6 2620.2,1532.8 2630.1,1531.6L2630.4,1531.6C2630.4,1531.6 2716.4,1522.9 2751.8,1498.9L2752,1498.9C2782.2,1478.5 2801.4,1452 2807.9,1417.7Z" style="fill:rgb(51,156,94);"/>
            </g>
            <g transform="matrix(1,0,0,1,0.9,0)">
                <path d="M187.3,2185C120.6,2185 58.3,2149.1 25,2091.2C-8.3,2033.5 -8.3,1961.5 25,1903.8L514.9,1055.2C548.2,997.5 610.5,961.4 677.2,961.4L3189.9,961.4C3256.6,961.4 3318.9,997.3 3352.2,1055.2C3385.5,1112.9 3385.5,1184.9 3352.2,1242.6L2862.3,2091.4C2829,2149.1 2766.7,2185.2 2700,2185.2L187.3,2185.2L187.3,2185ZM195.3,2047.3L2700,2047.3C2717.6,2047.3 2734.1,2037.7 2742.9,2022.4L3232.8,1173.6C3241.6,1158.4 3241.6,1139.4 3232.8,1124.2L3232.8,1124C3223.9,1108.8 3207.5,1099.4 3189.9,1099.4L677.3,1099.4C659.7,1099.4 643.2,1109 634.4,1124.3L144.5,1972.9C135.7,1988.1 135.7,2007.1 144.5,2022.3L144.5,2022.5C153.4,2037.7 169.8,2047.1 187.4,2047.1C205,2047.1 192.8,2047.1 195.4,2047.3L195.3,2047.3Z" style="fill:rgb(51,156,94);"/>
            </g>
            <g transform="matrix(1,0,0,1,0.9,0)">
                <path d="M0,1742L0,961.4L466.8,961.4L0,1742Z" style="fill:rgb(51,156,94);"/>
            </g>
            <g transform="matrix(1,0,0,1,0.9,0)">
                <path d="M4000,1573.3L4000,961.4L3377.3,961.4L4000,1573.3Z" style="fill:rgb(51,156,94);"/>
            </g>
            <g transform="matrix(1,0,0,1,0.9,0)">
                <path d="M2744.4,2515.1L0,2515.1L0,2253.5L2868,2253.5L2744.4,2515.1ZM2920.6,2517.6L2816.8,2517.6L2942.8,2250.9L3046.6,2250.9L2920.6,2517.6ZM3079.5,2517.6L2975.7,2517.6L3101.7,2250.9L3205.5,2250.9L3079.5,2517.6ZM3238.4,2517.6L3134.6,2517.6L3260.6,2250.9L3364.4,2250.9L3238.4,2517.6ZM3397.3,2517.6L3293.5,2517.6L3419.5,2250.9L3523.3,2250.9L3397.3,2517.6ZM3556.2,2517.6L3452.4,2517.6L3578.4,2250.9L3682.2,2250.9L3556.2,2517.6ZM3715.1,2517.6L3611.3,2517.6L3737.3,2250.9L3841.1,2250.9L3715.1,2517.6ZM4000,2517.6L3770.2,2517.6L3896.2,2250.9L4000,2250.9L4000,2517.6Z" style="fill:rgb(51,156,94);"/>
            </g>
            <g transform="matrix(1,0,0,1,0.9,0)">
                <path d="M1255.6,893.1L4000,893.1L4000,631.5L1132,631.5L1255.6,893.1ZM1079.4,895.7L1183.2,895.7L1057.2,629L953.4,629L1079.4,895.7ZM920.5,895.7L1024.3,895.7L898.3,629L794.5,629L920.5,895.7ZM761.6,895.7L865.4,895.7L739.4,629L635.6,629L761.6,895.7ZM602.7,895.7L706.5,895.7L580.5,629L476.7,629L602.7,895.7ZM443.8,895.7L547.6,895.7L421.6,629L317.8,629L443.8,895.7ZM284.9,895.7L388.7,895.7L262.7,629L158.9,629L284.9,895.7ZM0,895.7L229.8,895.7L103.8,629L0,629L0,895.7Z" style="fill:rgb(51,156,94);"/>
            </g>
            <g transform="matrix(1,0,0,1,0.9,0)">
                <path d="M208.1,2878.5L225.2,2878.5C258.9,2878.5 288.8,2875.6 314.8,2869.7C340.8,2863.8 361.1,2856.7 375.6,2848.2C390.1,2839.8 401.9,2830 411.1,2818.9C420.3,2807.8 426.4,2797.8 429.3,2788.8C432.2,2779.8 433.7,2771.2 433.7,2762.7L433.7,2758.5L330.5,2758.5C330.5,2758.8 330.4,2759.1 330.1,2759.6C318.7,2792.6 281.1,2809 217.3,2809C153.5,2809 177.2,2806.6 161.3,2801.7C145.4,2796.8 133.4,2790.4 125.4,2782.3C117.3,2774.2 111.4,2765.9 107.6,2757.4C103.8,2748.8 102,2740 102,2730.8L102,2726.2C102,2716.5 103.7,2707.6 107,2699.4C110.3,2691.2 116,2683.4 123.9,2676C131.8,2668.6 143.7,2662.8 159.4,2658.6C175.1,2654.4 194.2,2652.3 216.4,2652.3C238.6,2652.3 251.6,2653.8 265.9,2656.7C280.2,2659.6 291.1,2662.9 298.5,2666.5C305.9,2670.1 312.2,2674.6 317.3,2679.9C322.5,2685.3 325.7,2689.2 326.9,2691.6C328.2,2694 329.2,2696.8 330,2699.8L433.2,2699.8L433.2,2695.6C433.2,2687.7 431.9,2679.4 429.2,2670.9C426.6,2662.3 420.7,2652.6 411.7,2641.8C402.6,2630.9 390.9,2621.4 376.6,2613C362.2,2604.7 342,2597.7 315.8,2591.9C289.6,2586.1 259.4,2583.3 225.1,2583.3L208,2583.3C172.9,2583.3 142.2,2586.6 115.9,2593.3C89.6,2599.9 69.3,2608.1 55.1,2617.8C40.9,2627.5 29.4,2639.1 20.6,2652.7C11.8,2666.2 6.2,2678.5 3.7,2689.5C1.2,2700.5 -0.1,2712.1 -0.1,2724.4L-0.1,2735.5C-0.1,2743.4 0.5,2751.3 1.8,2759.3C3,2767.2 5.7,2776 9.7,2785.8C13.7,2795.6 18.8,2804.6 24.9,2813C31,2821.4 39.5,2829.8 50.4,2838.1C61.3,2846.4 73.7,2853.4 87.8,2859.2C101.9,2865 119.2,2869.6 139.8,2873.2C160.4,2876.8 183.1,2878.6 207.9,2878.6L208.1,2878.5ZM724,2592L579.7,2592L428.5,2873.4L523.8,2873.4L550.4,2822L753.1,2822L779.7,2873.4L875,2873.4L723.8,2592L724,2592ZM583.1,2758.4L636.6,2655.1L666.9,2655.1L720.4,2758.4L583,2758.4L583.1,2758.4ZM899,2589.3L899,2873.9L1211.7,2873.9L1211.7,2803.1L996.1,2803.1L996.1,2589.3L899,2589.3ZM1337.9,2589.7L1241,2589.7L1241,2873.6L1337.9,2873.6L1337.9,2589.7ZM1380.4,2873.5L1649.1,2873.5C1734.9,2873.5 1777.8,2846.2 1777.8,2791.5L1777.8,2786.1C1777.8,2774.3 1775.4,2763.9 1770.7,2754.7C1766,2745.5 1759.7,2738.3 1751.9,2733.1C1744.1,2727.9 1737,2723.8 1730.6,2721C1724.2,2718.2 1717.7,2716 1711,2714.5C1715.7,2713.2 1720.5,2711.4 1725.2,2709.1C1729.9,2706.8 1735.2,2703.5 1741.1,2699.3C1747,2695.1 1751.6,2689.5 1755.1,2682.4C1758.6,2675.4 1760.3,2667.5 1760.3,2658.8L1760.3,2653.4C1760.3,2634.2 1751.7,2618.6 1734.4,2606.4C1717.1,2594.3 1687.9,2588.2 1646.6,2588.2L1380.4,2588.2L1380.4,2873.5ZM1477.8,2648.5L1629.9,2648.5C1652.5,2648.5 1663.7,2656 1663.7,2671.1L1663.7,2671.9C1663.7,2687.2 1652.4,2694.9 1629.9,2694.9L1477.8,2694.9L1477.8,2648.5ZM1638.3,2755.5C1663.9,2755.5 1676.7,2764.3 1676.7,2782L1676.7,2783.5C1676.7,2790.9 1673.9,2797.4 1668.3,2803.1C1662.7,2808.7 1652.7,2811.5 1638.2,2811.5L1477.7,2811.5L1477.7,2755.5L1638.3,2755.5ZM2150.2,2755.1C2140.4,2744.4 2127.5,2736.9 2111.7,2732.3C2146.5,2721 2163.8,2700.6 2163.8,2671L2163.8,2666.5C2163.8,2618.1 2123.1,2593.9 2041.8,2593.9L1815.1,2593.9L1815.1,2873.8L1903.1,2873.8L1903.1,2774.5L2018,2774.5C2039.4,2774.5 2054.5,2778.4 2063.3,2786.2C2072.1,2794 2076.5,2806.5 2076.5,2823.8L2076.5,2873.8L2164.9,2873.8L2164.9,2796.7C2164.9,2779.6 2160,2765.8 2150.2,2755.1ZM2072,2684.9C2072,2693.2 2069.1,2699.8 2063.3,2704.9C2057.5,2709.9 2048.6,2712.4 2036.5,2712.4L1903.1,2712.4L1903.1,2657.5L2036.5,2657.5C2048.6,2657.5 2057.5,2660 2063.3,2665C2069.1,2670 2072,2676.5 2072,2684.6L2072,2685L2072,2684.9ZM2478.5,2592L2334.3,2592L2183.1,2873.4L2278.4,2873.4L2305,2822L2507.7,2822L2534.3,2873.4L2629.6,2873.4L2478.4,2592L2478.5,2592ZM2337.6,2758.4L2391.2,2655.1L2421.5,2655.1L2475.1,2758.4L2337.6,2758.4ZM2717.8,2873.9L2815.8,2873.9L2815.8,2656.7L2949.6,2656.7L2949.6,2589.4L2584.4,2589.4L2584.4,2656.7L2717.8,2656.7L2717.8,2873.9ZM3074.9,2589.7L2978,2589.7L2978,2873.6L3074.9,2873.6L3074.9,2589.7ZM3329.8,2584.4C3302.8,2584.4 3278.2,2586.1 3256,2589.6C3233.8,2593 3215.2,2597.6 3200.3,2603.2C3185.4,2608.8 3172.4,2615.7 3161.3,2623.9C3150.2,2632.1 3141.5,2640.2 3135.2,2648.4C3129,2656.6 3123.9,2665.5 3120.2,2675.4C3116.4,2685.2 3114,2693.9 3112.9,2701.4C3111.8,2708.9 3111.2,2716.9 3111.2,2725.3L3111.2,2736.8C3111.2,2745 3111.7,2752.9 3112.9,2760.5C3114,2768.1 3116.4,2776.9 3120.2,2786.7C3124,2796.5 3129,2805.6 3135.2,2813.9C3141.4,2822.2 3150.2,2830.5 3161.5,2838.8C3172.8,2847.1 3185.7,2854.1 3200.5,2859.8C3215.2,2865.5 3233.7,2870.2 3256,2873.8C3278.2,2877.4 3302.8,2879.2 3329.8,2879.2L3343,2879.2C3370,2879.2 3394.5,2877.4 3416.6,2873.8C3438.7,2870.2 3457.1,2865.6 3471.8,2859.8C3486.5,2854.1 3499.5,2847.1 3510.8,2838.8C3522.1,2830.5 3530.7,2822.2 3536.9,2813.9C3543,2805.6 3548,2796.6 3551.9,2786.7C3555.8,2776.9 3558.3,2768.2 3559.4,2760.5C3560.5,2752.8 3561.1,2744.9 3561.1,2736.8L3561.1,2725.3C3561.1,2716.9 3560.6,2708.8 3559.4,2701.2C3558.3,2693.5 3555.8,2684.9 3551.9,2675.2C3548,2665.5 3542.9,2656.6 3536.7,2648.4C3530.5,2640.3 3521.8,2632.1 3510.6,2623.9C3499.5,2615.7 3486.5,2608.9 3471.6,2603.2C3456.7,2597.6 3438.3,2593.1 3416.4,2589.6C3394.4,2586.2 3370,2584.4 3343,2584.4L3329.8,2584.4ZM3459.3,2733.2C3459.3,2742.4 3457.6,2751.1 3454.1,2759.2C3450.6,2767.4 3444.6,2775.5 3436,2783.5C3427.4,2791.5 3414.4,2797.9 3397,2802.6C3381.8,2806.7 3363.7,2809.1 3342.8,2809.6L3332.9,2809.6C3310.3,2809.3 3291,2806.8 3274.8,2802.4C3257.3,2797.5 3244.4,2791 3236,2782.9C3227.7,2774.7 3221.8,2766.6 3218.3,2758.4C3214.8,2750.2 3213.1,2741.6 3213.1,2732.4L3213.1,2727.8C3213.1,2679.6 3252.5,2654.7 3331.3,2653.3L3344.4,2653.3C3360.4,2653.8 3374.6,2655.3 3387.2,2657.9C3402.5,2661.1 3414.6,2665.1 3423.5,2669.9C3432.4,2674.7 3439.6,2680.6 3445.2,2687.5C3450.8,2694.4 3454.5,2701 3456.5,2707.4C3458.5,2713.8 3459.4,2720.5 3459.4,2727.7L3459.4,2733.1L3459.3,2733.2ZM3597.7,2589.4L3597.7,2873.9L3693.6,2873.9L3693.6,2685.4L3904.1,2873.9L4000,2873.9L4000,2589.4L3904.1,2589.4L3904.1,2768.4L3706.1,2589.4L3597.7,2589.4Z" style="fill:rgb(51,156,94);fill-rule:nonzero;"/>
            </g>
        </g>
    </g>
</svg>
