<?xml version="1.0" encoding="UTF-8" standalone="no"?><!DOCTYPE svg PUBLIC "-//W3C//DTD SVG 1.1//EN" "http://www.w3.org/Graphics/SVG/1.1/DTD/svg11.dtd"><svg width="2929px" height="246px" version="1.1" xmlns="http://www.w3.org/2000/svg" xmlns:xlink="http://www.w3.org/1999/xlink" xml:space="preserve" xmlns:serif="http://www.serif.com/" style="fill-rule:evenodd;clip-rule:evenodd;stroke-linejoin:round;stroke-miterlimit:2;"><g transform="matrix(0.75,0,0,0.75,0,-1563.76)"><g id="Artboard2" transform="matrix(1.08884,0,0,0.475688,843.027,1583.4)"><rect x="-774.245" y="1054.51" width="3586.64" height="686.918" style="fill:none;"/><clipPath id="_clip1"><rect x="-774.245" y="1054.51" width="3586.64" height="686.918"/></clipPath><g clip-path="url(#_clip1)"><g transform="matrix(0.918411,0,0,2.10222,-988.186,-3653.85)"><path d="M282.95,2566.42C265.141,2566.42 248.507,2556.84 239.616,2541.38C230.724,2525.97 230.724,2506.74 239.616,2491.34L370.421,2264.76C379.312,2249.35 395.946,2239.72 413.755,2239.72L1084.65,2239.72C1102.46,2239.72 1119.1,2249.3 1127.99,2264.76C1136.88,2280.17 1136.88,2299.39 1127.99,2314.8L997.185,2541.43C988.294,2556.84 971.66,2566.47 953.85,2566.47L282.95,2566.47L282.95,2566.42ZM285.113,2529.65L953.85,2529.65C958.55,2529.65 962.955,2527.09 965.305,2523.01L1096.11,2296.37C1098.46,2292.31 1098.46,2287.24 1096.11,2283.18L1096.11,2283.13C1093.73,2279.07 1089.36,2276.56 1084.65,2276.56L413.782,2276.56C409.083,2276.56 404.677,2279.12 402.328,2283.21L271.523,2509.79C269.173,2513.85 269.173,2518.92 271.523,2522.98L271.523,2523.03C273.899,2527.09 278.278,2529.6 282.977,2529.6C287.676,2529.6 284.419,2529.6 285.113,2529.65ZM881.84,2431.66L868.383,2501.83C868.383,2501.89 868.383,2501.97 868.356,2502.02L867.501,2504.72L866.247,2507.09L862.829,2510.91L858.37,2513.53L855.753,2514.3L852.87,2514.6L832.684,2514.6L829.747,2514.3L826.917,2513.39L824.327,2511.85L822.111,2509.74L820.455,2507.17L819.414,2504.32L819.04,2501.33L819.281,2498.39C819.281,2498.36 856.18,2305.48 856.18,2305.48L856.18,2305.29C856.207,2305.29 857.062,2302.59 857.062,2302.59L858.317,2300.22L861.734,2296.4L866.193,2293.78L868.81,2293.01L871.693,2292.72L943.998,2292.72C947.282,2292.72 952.542,2292.98 955.746,2293.33C956.974,2293.46 977.187,2295.52 993.34,2299.84C1001.59,2302.06 1008.83,2305.02 1012.99,2308.31C1021.75,2315.04 1027.62,2323.5 1030.77,2333.83C1033.79,2343.71 1034.25,2354.07 1032.16,2364.89C1028.4,2384.72 1017.21,2401.07 998.413,2413.8C981.485,2425.47 937.269,2431 937.269,2431L937.163,2431C933.959,2431.32 928.672,2431.66 925.468,2431.66L881.84,2431.66ZM982.66,2361.55C982.66,2361.55 982.294,2363.35 982.633,2361.55C984.556,2351.48 982.393,2343.69 975.237,2338.51C973.155,2336.98 969.577,2336.08 966.106,2335.25C959.724,2333.73 953.503,2333.06 953.236,2333.03C950.486,2332.74 946.081,2332.53 943.384,2332.53L900.877,2332.53L889.369,2392.49L925.575,2392.49C928.218,2392.49 932.544,2392.28 935.187,2391.96L935.267,2391.96C935.267,2391.96 958.229,2389.64 967.681,2383.23L967.735,2383.23C975.798,2377.78 980.925,2370.71 982.66,2361.55ZM526.458,2498.44L563.358,2305.58L564.159,2302.81L565.414,2300.35L568.885,2296.43L573.397,2293.81L576.014,2293.06L578.844,2292.8L614.622,2292.8L617.453,2293.06L620.016,2293.78L624.448,2296.21L627.972,2299.84L629.334,2302.14L630.349,2304.78L630.349,2304.86C630.349,2304.86 657.022,2404.51 667.275,2442.74C691.226,2405.74 758.644,2301.5 758.617,2301.58C761.715,2296.72 768.924,2292.77 774.744,2292.77L809.428,2292.77L812.392,2293.06L815.249,2294L817.839,2295.55L820.028,2297.63L821.71,2300.19L822.752,2303.08L823.125,2306.12C823.125,2306.12 822.858,2308.79 822.858,2308.97L785.959,2501.83L785.158,2504.61L783.903,2507.07L780.432,2510.99L775.919,2513.61L773.303,2514.36L770.472,2514.62L750.153,2514.62L747.19,2514.33L744.333,2513.39L741.743,2511.85L739.553,2509.76L737.871,2507.2L736.83,2504.32L736.456,2501.27C736.456,2501.27 736.723,2498.6 736.723,2498.41L761.528,2368.81L674.965,2505.81C671.868,2510.7 664.605,2514.65 658.891,2514.65L648.692,2514.65L645.862,2514.38L643.298,2513.66L638.866,2511.2L635.342,2507.55L633.98,2505.2C633.98,2505.2 633.072,2502.63 633.019,2502.58L597.16,2366.91L571.341,2501.86C571.181,2502.77 570.86,2503.62 570.46,2504.42L570.38,2504.74L569.125,2507.2L565.654,2511.12L561.141,2513.74L558.525,2514.49L555.695,2514.76L539.861,2514.76L536.898,2514.46L534.041,2513.53L531.451,2511.98L529.261,2509.9L527.579,2507.33L526.538,2504.45L526.164,2501.41C526.164,2501.41 526.431,2498.74 526.431,2498.55L526.458,2498.44ZM477.302,2514.54L477.169,2514.68L474.312,2514.41L471.722,2513.66L467.29,2511.12L463.819,2507.39L462.51,2505.01L461.603,2502.29L461.603,2502.23C461.603,2502.23 452.925,2464.13 450.896,2455.24L371.863,2455.24L371.248,2455.59L342.706,2505.3C339.769,2510.43 332.586,2514.62 326.605,2514.62L311.44,2514.62L308.049,2514.22L304.498,2512.75L302.281,2510.99L300.466,2508.61L299.318,2505.84L298.944,2503.01L299.505,2499.19C299.505,2499.19 300.893,2496.12 300.893,2496.07L415.331,2301.82C418.348,2296.69 425.504,2292.61 431.404,2292.61L456.076,2292.61L458.932,2292.9L461.549,2293.65L466.008,2296.24L469.452,2300.06L470.734,2302.46L471.588,2305.21C471.588,2305.24 511.906,2498.15 511.906,2498.15L512.226,2501.14L511.879,2504.16L510.865,2507.04L509.209,2509.63L507.02,2511.76L504.43,2513.34L501.573,2514.27L498.609,2514.57L477.302,2514.57L477.302,2514.54ZM431.404,2354.63L394.424,2417.43L444.114,2417.43L431.404,2354.63ZM3637.13,2535.76C3625.7,2534.62 3614.44,2532.03 3603.67,2528.01L3603.66,2528C3599.33,2526.36 3595.04,2524.53 3590.79,2522.41C3580.12,2517.07 3570.45,2510.5 3561.91,2502.97C3536.4,2480.43 3520.85,2449.21 3517.54,2416.17L3488.78,2416.17C3487.76,2416.17 3486.94,2415.34 3486.94,2414.32L3486.94,2391.72C3486.94,2390.7 3487.76,2389.87 3488.78,2389.87L3517.53,2389.87C3519.07,2374.17 3523.47,2358.48 3530.93,2343.53C3531.15,2343.09 3531.53,2342.76 3531.99,2342.6C3532.46,2342.45 3532.97,2342.48 3533.41,2342.7L3553.61,2352.79C3554.53,2353.24 3554.9,2354.35 3554.44,2355.26C3548.87,2366.45 3545.43,2378.15 3543.97,2389.87L3563.58,2389.87C3569.28,2351.99 3599.25,2322.06 3637.13,2316.36L3637.13,2296.74C3621.19,2298.71 3605.46,2304.29 3591.16,2313.77C3590.75,2314.04 3590.26,2314.14 3589.77,2314.04C3589.29,2313.94 3588.87,2313.66 3588.6,2313.25L3576.12,2294.4C3575.56,2293.55 3575.79,2292.41 3576.64,2291.84C3595.4,2279.41 3616.17,2272.36 3637.13,2270.31L3637.13,2241.56C3637.13,2240.54 3637.96,2239.72 3638.98,2239.72L3661.58,2239.72C3662.6,2239.72 3663.43,2240.54 3663.43,2241.56L3663.43,2270.35C3690.93,2273.08 3717.41,2284.32 3738.66,2303.15C3747.16,2310.69 3754.89,2319.5 3761.46,2329.42L3761.46,2329.43C3764.07,2333.38 3766.42,2337.4 3768.58,2341.51L3768.59,2341.51C3775.71,2355.21 3780.38,2370.06 3782.47,2385.4L3782.47,2385.42C3782.66,2386.91 3782.83,2388.4 3782.98,2389.91L3811.74,2389.91C3812.76,2389.91 3813.59,2390.74 3813.59,2391.76L3813.59,2414.36C3813.59,2415.38 3812.76,2416.2 3811.74,2416.2L3782.95,2416.2C3781.38,2431.81 3777.11,2447.11 3770.24,2461.28C3770.06,2461.68 3769.84,2462.12 3769.66,2462.52L3769.63,2462.59C3764.29,2473.26 3757.73,2482.92 3750.19,2491.47C3742.66,2500.01 3733.85,2507.69 3723.95,2514.28C3723.57,2514.55 3723.14,2514.83 3722.71,2515.1C3704.87,2526.62 3684.51,2533.72 3663.43,2535.83L3663.43,2564.62C3663.43,2565.65 3662.6,2566.47 3661.58,2566.47L3638.98,2566.47C3637.96,2566.47 3637.13,2565.65 3637.13,2564.62L3637.13,2535.76ZM3736.94,2416.13C3731.26,2453.99 3701.28,2483.98 3663.43,2489.68L3663.43,2509.3C3679.44,2507.29 3694.84,2501.71 3708.44,2492.94C3708.77,2492.72 3709.06,2492.53 3709.39,2492.31L3709.4,2492.31C3717.39,2487.03 3724.45,2480.84 3730.53,2473.97C3736.61,2467.09 3741.85,2459.35 3746.16,2450.77L3746.19,2450.7C3746.37,2450.39 3746.51,2450.04 3746.68,2449.72C3751.8,2439.1 3755.14,2427.74 3756.59,2416.13L3736.94,2416.13ZM3756.56,2389.91C3756.52,2389.57 3756.48,2389.23 3756.43,2388.88L3756.43,2388.88C3754.76,2376.58 3751,2364.64 3745.29,2353.64L3745.28,2353.63C3743.59,2350.34 3741.67,2347.09 3739.57,2343.95L3739.57,2343.94C3734.29,2335.94 3728.1,2328.89 3721.26,2322.81C3704.86,2308.26 3684.58,2299.39 3663.46,2296.78L3663.46,2316.36C3701.31,2322.06 3731.28,2352.03 3736.97,2389.91L3756.56,2389.91ZM3650.28,2341.68C3616.41,2341.68 3588.94,2369.19 3588.94,2403.06C3588.94,2436.93 3616.45,2464.4 3650.28,2464.4C3684.11,2464.4 3711.66,2436.89 3711.66,2403.06C3711.66,2369.22 3684.15,2341.68 3650.28,2341.68ZM3637.13,2416.2L3609.02,2416.2C3608,2416.2 3607.17,2415.38 3607.17,2414.36L3607.17,2391.76C3607.17,2390.74 3608,2389.91 3609.02,2389.91L3637.13,2389.91L3637.13,2361.8C3637.13,2360.78 3637.96,2359.95 3638.98,2359.95L3661.58,2359.95C3662.6,2359.95 3663.43,2360.78 3663.43,2361.8L3663.43,2389.91L3691.54,2389.91C3692.56,2389.91 3693.38,2390.74 3693.38,2391.76L3693.38,2414.36C3693.38,2415.38 3692.56,2416.2 3691.54,2416.2L3663.43,2416.2L3663.43,2444.31C3663.43,2445.34 3662.6,2446.16 3661.58,2446.16L3638.98,2446.16C3637.96,2446.16 3637.13,2445.34 3637.13,2444.31L3637.13,2416.2ZM3637.13,2489.72C3599.25,2484.02 3569.32,2454.05 3563.59,2416.2L3543.96,2416.2C3547.13,2441.75 3559.49,2465.79 3579.3,2483.3C3586.17,2489.38 3593.91,2494.63 3602.49,2498.93C3605.89,2500.64 3609.36,2502.12 3612.83,2503.42C3620.66,2506.33 3628.83,2508.34 3637.13,2509.37L3637.13,2489.72ZM1332.21,2514.52L1332.06,2514.6C1313.71,2514.6 1296.91,2513.26 1281.67,2510.6C1266.42,2507.93 1253.62,2504.53 1243.19,2500.24C1232.75,2495.95 1223.58,2490.77 1215.51,2484.62C1207.44,2478.48 1201.15,2472.27 1196.64,2466.05C1192.13,2459.84 1188.35,2453.18 1185.39,2445.92C1182.43,2438.67 1180.43,2432.16 1179.55,2426.31C1178.59,2420.39 1178.14,2414.55 1178.14,2408.7L1178.14,2400.49C1178.14,2391.39 1179.1,2382.8 1180.95,2374.66C1182.8,2366.52 1186.95,2357.42 1193.46,2347.43C1199.97,2337.37 1208.48,2328.78 1218.99,2321.6C1229.5,2314.43 1244.52,2308.36 1263.98,2303.47C1283.44,2298.51 1306.16,2296.07 1332.13,2296.07L1344.79,2296.07C1370.17,2296.07 1392.52,2298.14 1411.91,2302.44C1431.3,2306.73 1446.24,2311.91 1456.9,2318.05C1467.48,2324.27 1476.14,2331.3 1482.87,2339.36C1489.53,2347.36 1493.9,2354.53 1495.82,2360.9C1497.82,2367.19 1498.78,2373.33 1498.78,2379.18L1498.78,2382.28L1422.41,2382.28C1421.82,2380.06 1421.08,2377.99 1420.12,2376.22C1419.23,2374.44 1416.87,2371.55 1413.02,2367.56C1409.24,2363.64 1404.58,2360.3 1399.11,2357.64C1393.63,2354.98 1385.56,2352.53 1374.98,2350.39C1364.4,2348.24 1354.78,2347.13 1338.35,2347.13C1321.92,2347.13 1307.79,2348.69 1296.17,2351.8C1284.55,2354.9 1275.75,2359.2 1269.9,2364.67C1264.06,2370.15 1259.84,2375.92 1257.39,2381.99C1254.95,2388.05 1253.69,2394.64 1253.69,2401.82L1253.69,2405.22C1253.69,2412.03 1255.03,2418.54 1257.84,2424.91C1260.65,2431.2 1265.02,2437.34 1271.01,2443.33C1276.93,2449.33 1291.81,2463.09 1339.02,2463.09C1386.23,2463.09 1414.05,2450.95 1422.49,2426.53C1422.71,2426.16 1422.79,2425.94 1422.79,2425.72L1499.15,2425.72L1499.15,2428.83C1499.15,2435.12 1498.04,2441.48 1495.9,2448.14C1493.75,2454.8 1489.24,2462.2 1482.43,2470.42C1475.62,2478.63 1466.89,2485.88 1456.16,2492.1C1445.43,2498.39 1430.41,2503.64 1411.17,2508.01C1391.93,2512.38 1369.8,2514.52 1344.86,2514.52L1332.21,2514.52ZM1713.83,2301.81L1825.72,2510.75L1755.19,2510.75L1735.51,2472.71L1585.51,2472.71L1565.83,2510.75L1495.31,2510.75L1607.19,2301.81L1713.83,2301.81ZM1609.71,2425.65L1711.31,2425.65L1671.72,2349.2L1649.3,2349.2L1609.71,2425.65ZM1843.48,2301.81L1915.33,2301.81L1915.33,2458.72L2074.87,2458.72L2074.87,2511.12L1843.48,2511.12L1843.48,2301.81ZM2168.26,2301.81L2168.26,2510.89L2096.55,2510.89L2096.55,2301.81L2168.26,2301.81ZM2199.71,2510.82L2199.71,2301.81L2396.7,2301.81C2427.26,2301.81 2448.87,2304.21 2461.67,2313.17C2474.47,2322.2 2480.84,2333.74 2480.84,2347.95L2480.84,2351.94C2480.84,2358.38 2479.58,2364.23 2476.99,2369.41C2474.4,2374.66 2470.99,2378.8 2466.63,2381.91C2462.26,2385.02 2458.34,2387.46 2454.86,2389.16C2451.38,2390.87 2447.83,2392.2 2444.35,2393.16C2449.31,2394.27 2454.12,2395.9 2458.86,2397.97C2463.59,2400.04 2468.85,2403.08 2474.62,2406.93C2480.39,2410.77 2485.05,2416.1 2488.53,2422.91C2492.01,2429.72 2493.79,2437.41 2493.79,2446.14L2493.79,2450.14C2493.79,2490.62 2462.04,2510.82 2398.55,2510.82L2199.71,2510.82ZM2271.79,2344.32L2271.79,2378.66L2384.34,2378.66C2400.99,2378.66 2409.35,2372.96 2409.35,2361.64L2409.35,2361.05C2409.35,2349.87 2401.06,2344.32 2384.34,2344.32L2271.79,2344.32ZM2390.56,2423.5L2271.71,2423.5L2271.71,2464.94L2390.48,2464.94C2401.21,2464.94 2408.61,2462.87 2412.76,2458.72C2416.9,2454.51 2418.97,2449.7 2418.97,2444.22L2418.97,2443.11C2418.97,2430.01 2409.5,2423.5 2390.56,2423.5ZM2769.36,2423.2C2776.61,2431.12 2780.24,2441.34 2780.24,2453.99L2780.24,2511.04L2714.82,2511.04L2714.82,2474.04C2714.82,2461.24 2711.57,2451.99 2705.06,2446.22C2698.54,2440.45 2687.37,2437.56 2671.53,2437.56L2586.51,2437.56L2586.51,2511.04L2521.39,2511.04L2521.39,2301.81L2689.15,2301.81C2749.31,2301.81 2779.43,2321.83 2779.43,2357.64L2779.43,2360.97C2779.43,2382.88 2766.62,2397.97 2740.87,2406.33C2752.56,2409.74 2762.11,2415.29 2769.36,2423.2ZM2711.49,2371.33L2711.49,2371.26L2711.49,2371.03C2711.49,2365.04 2709.35,2360.23 2705.06,2356.53C2700.76,2352.83 2694.18,2350.98 2685.22,2350.98L2586.51,2350.98L2586.51,2391.61L2685.22,2391.61C2694.18,2391.61 2700.76,2389.76 2705.06,2386.06C2709.33,2382.3 2711.48,2377.44 2711.49,2371.33ZM3012.23,2301.81L3124.12,2510.75L3053.6,2510.75L3033.91,2472.71L2883.91,2472.71L2864.23,2510.75L2793.71,2510.75L2905.6,2301.81L3012.23,2301.81ZM2908.04,2425.65L3009.79,2425.65L2970.12,2349.2L2947.7,2349.2L2908.04,2425.65ZM3189.39,2511.12L3189.39,2350.39L3090.67,2350.39L3090.67,2301.81L3360.92,2301.81L3360.92,2350.39L3261.91,2350.39L3261.91,2511.12L3189.39,2511.12ZM3453.64,2301.81L3453.64,2510.89L3381.93,2510.89L3381.93,2301.81L3453.64,2301.81ZM3840.51,2301.81L3920.73,2301.81L4067.25,2433.05L4067.25,2301.81L4138.21,2301.81L4138.21,2511.12L4067.25,2511.12L3911.48,2371.63L3911.48,2511.12L3840.51,2511.12L3840.51,2301.81Z" style="fill:white;"/></g></g></g></g></svg>