<?xml version="1.0" standalone="no"?>
<!DOCTYPE svg PUBLIC "-//W3C//DTD SVG 1.1//EN" "http://www.w3.org/Graphics/SVG/1.1/DTD/svg11.dtd">
<svg xmlns="http://www.w3.org/2000/svg" xmlns:xlink="http://www.w3.org/1999/xlink" xmlns:serif="http://www.serif.com/" width="51317" height="33463" version="1.1" xml:space="preserve" style="fill-rule:evenodd;clip-rule:evenodd;stroke-linejoin:round;stroke-miterlimit:2;" viewBox="0 0 51317 33463"><g transform="matrix(4.16667,0,0,4.16667,0,0)"><g transform="matrix(3.70712,0,0,3.70712,-25608.7,-624.133)"><path d="M6916.37,701.915C6889.76,570.324 6927.12,434.464 7018.26,331.318C7109.4,228.171 7244.84,168.473 7387.72,168.473L9750.3,168.473C9893.18,168.473 10028.6,228.171 10119.8,331.318C10210.9,434.464 10248.3,570.324 10221.7,701.915L9965.51,1968.87C9922.59,2181.17 9724.66,2334.84 9494.16,2334.84L7643.86,2334.84C7413.36,2334.84 7215.43,2181.17 7172.51,1968.87L6916.37,701.915ZM7002.24,686.66L7258.38,1953.62C7293.48,2127.24 7455.35,2252.92 7643.86,2252.92L9494.16,2252.92C9682.67,2252.92 9844.54,2127.24 9879.64,1953.62L10135.8,686.66C10157.5,579.042 10127,467.933 10052.5,383.577C9977.92,299.221 9867.15,250.399 9750.3,250.399L7387.72,250.399C7270.87,250.399 7160.1,299.221 7085.56,383.577C7011.03,467.933 6980.48,579.042 7002.24,686.66ZM9540.84,1350.1C9656.39,1438.21 9776.26,1532.14 9890.8,1623.25L9825.93,1944.08C9795.72,2093.51 9656.41,2201.68 9494.16,2201.68L7643.86,2201.68C7481.61,2201.68 7342.3,2093.51 7312.09,1944.08L7166.13,1222.11C7175.64,1217.39 7184.49,1211.44 7192.82,1202.94C7229.3,1165.75 7302.28,1134.75 7302.28,1105.11C7302.28,1075.48 7324.47,1052.07 7342.71,1025.22C7360.98,998.333 7363.34,990.078 7373.66,961.833C7383.97,933.589 7475.16,927.389 7475.16,927.389C7475.16,927.389 7417.28,952.185 7396.66,997.64C7376.02,1043.12 7406.97,1074.81 7429.17,1103.06C7451.37,1131.3 7401.41,1149.89 7349.86,1153.32C7298.31,1156.75 7264.21,1179.51 7283.24,1222.21C7302.28,1264.93 7284.84,1269.05 7373.66,1292.49C7462.48,1315.89 7452.17,1322.79 7426.8,1266.99C7401.41,1211.2 7516.43,1121.65 7516.43,1121.65C7539.42,1211.2 7509.28,1244.25 7525.94,1282.84C7542.6,1321.42 7517.99,1352.42 7556.07,1368.94C7587.34,1382.52 7664.01,1384.42 7668.43,1360.17C7671.51,1343.27 7646.46,1321.58 7643.86,1304.88C7637.51,1264.24 7695.66,1238.74 7717.07,1213.26C7738.49,1187.76 7743.26,1178.14 7743.26,1178.14C7741.66,1238.75 7705.97,1249.79 7713.11,1286.29C7720.25,1322.79 7710.46,1351.73 7746.42,1342.54C7782.38,1333.36 7763.36,1304.89 7770.76,1247.03C7778.15,1189.15 7851.12,1151.49 7851.12,1151.49C7851.12,1151.49 7858.53,1206.6 7839.49,1255.29C7820.46,1303.96 7815.16,1344.38 7839.49,1335.19C7863.8,1326.01 7901.86,1329.68 7907.45,1284.67C7913.05,1239.67 7913.52,1205.69 7908.22,1146.91C7902.92,1088.11 7925.15,1042.2 7976.96,1015.57C8028.79,988.925 8074.25,1048.62 8134.54,1086.29C8194.82,1123.94 8182.1,1257.12 8227.58,1259.87C8273.06,1262.62 8354.48,1312.24 8354.48,1312.24C8354.48,1312.24 8347.09,1288.35 8297.37,1259.87C8247.67,1231.4 8251.92,1186.4 8251.92,1186.4C8283.64,1226.81 8390.44,1247.93 8402.07,1284.67C8413.67,1321.32 8850.46,1483.07 8792.3,1445.41C8734.13,1407.75 8664.35,1257.12 8590.31,1219.46C8516.28,1181.8 8451.79,1102.83 8451.79,1102.83C8451.79,1102.83 8661.15,1208.45 8788.08,1249.78C8914.97,1291.1 8995.26,1390.3 9070.35,1404.08C9145.41,1417.85 9201.46,1449.99 9201.46,1449.99C9159.17,1417.86 9097.92,1375.6 9030.24,1336.11C8962.56,1296.63 8900.16,1226.81 8900.16,1226.81C8900.16,1226.81 9135.98,1388.49 9218.46,1411.43C9225.65,1413.43 9251.22,1419.87 9286.1,1428.59C9316.53,1436.19 9354.04,1445.53 9392.59,1455.15C9489.23,1479.27 9592.43,1505.18 9607.09,1510.16C9680.08,1534.94 9705.32,1573.27 9733.99,1561.14C9734.43,1560.96 9734.56,1560.48 9734.86,1560.14C9680.13,1501.34 9621.28,1424.25 9506.36,1365.09C9497.86,1360.71 9489.05,1356.43 9479.92,1352.27C9328.14,1283.06 9322.37,1193.12 9052.31,1036.05C9037.25,1027.29 9021.36,1018.32 9004.59,1009.14C8991.91,1002.2 8978.73,995.133 8965,987.943C8910.14,959.199 8857.26,932.944 8806,908.151C8769.33,890.415 8733.49,873.427 8698.34,856.812C8667.57,842.261 8637.33,827.996 8607.54,813.766C8576.42,798.899 8545.78,784.069 8515.54,768.988C8487.9,755.207 8460.58,741.216 8433.51,726.797C8301.17,656.298 8174.74,575.534 8045.18,458.909C8010.74,427.908 8015.36,437.558 7990.69,458.909C7966.03,480.26 7977.6,502.305 7925.95,477.508C7874.29,452.71 7903.59,497.503 7862.74,463.745C7821.89,429.978 7816.49,429.657 7801.08,439.102C7785.65,448.564 7786.42,418.96 7757.92,445.121C7729.39,471.307 7754.84,460.309 7666.19,498.189C7577.55,536.065 7564.43,573.186 7500.45,587.656C7436.48,602.125 7165.4,804.791 7089.92,845.156L7076.74,779.991C7148.01,742.021 7201.68,714.66 7223.28,700.172C7336.54,624.261 7425.42,565.945 7490.7,551.18C7555.96,536.415 7569.34,503.72 7659.78,465.057C7750.23,426.394 7724.27,437.636 7753.37,410.934C7782.46,384.233 7781.69,414.459 7797.41,404.786C7813.15,395.14 7818.65,395.474 7860.33,429.919C7902.02,464.363 7872.13,418.677 7924.82,443.964C7977.52,469.276 7965.72,446.794 7990.87,425.006C8016.06,403.218 8011.32,393.365 8046.46,425.006C8156.48,524.055 8264.31,597.737 8375.25,661.138C8387.68,668.241 8400.15,675.216 8412.66,682.083C8416.45,684.162 8420.25,686.232 8424.04,688.292C8443.75,698.979 8463.57,709.416 8483.55,719.685C8494.81,725.478 8506.13,731.217 8517.5,736.918C8563.36,759.921 8610.09,782.294 8658.01,805.007C8664.1,807.895 8670.21,810.788 8676.34,813.689C8695.6,822.795 8715.04,831.976 8734.71,841.292C8772.91,859.386 8811.94,877.992 8851.95,897.561L8876.93,897.561C8885.04,897.561 8891.93,891.62 8893.13,883.593C8898.26,849.012 8907.55,814.612 8921.17,781.048C8926.07,768.941 8935.79,759.425 8948.01,754.799C8960.21,750.176 8973.79,750.854 8985.47,756.667C8989,758.399 8992.58,760.184 8996.06,761.922C9017.89,772.816 9027.71,798.632 9018.64,821.279L9018.62,821.326C9011.14,839.837 9005.39,858.685 9001.29,877.662L9001.28,877.69C9000.23,882.533 9001.42,887.593 9004.53,891.453C9007.64,895.312 9012.33,897.557 9017.28,897.557L9017.3,897.557C9021.95,897.561 9026.64,897.561 9031.09,897.561C9038.75,897.561 9045.39,892.252 9047.07,884.779C9072.23,771.741 9161.29,682.774 9274.35,657.585C9281.8,655.899 9287.09,649.28 9287.09,641.641L9287.09,641.517C9287.13,637.083 9287.13,632.409 9287.13,627.767C9287.13,622.81 9284.89,618.119 9281.02,615.008C9277.16,611.898 9272.1,610.704 9267.26,611.759L9267.23,611.766C9234.77,618.766 9202.9,630.51 9172.63,647.266L9172.63,647.267C9151.29,659.073 9124.47,652.522 9110.97,632.226C9108.76,628.967 9106.52,625.593 9104.33,622.278C9097.12,611.396 9094.78,598.001 9097.87,585.32C9100.95,572.638 9109.19,561.817 9120.59,555.463L9120.61,555.453C9169.07,528.533 9220.72,511.428 9273.07,503.659L9273.11,503.654C9281.14,502.482 9287.09,495.597 9287.09,487.484L9287.09,487.434C9287.13,474.634 9287.13,459.425 9287.13,446.226C9287.13,420.341 9308.11,399.357 9334,399.357L9345.72,399.357C9371.61,399.357 9392.59,420.341 9392.59,446.226L9392.59,487.601C9392.59,495.706 9398.52,502.592 9406.53,503.801C9491.66,516.498 9572.89,553.413 9639.12,612.118L9639.12,612.121C9667.93,637.645 9694.09,667.463 9716.33,701.072L9716.34,701.093C9725.15,714.436 9733.09,728.029 9740.39,741.874L9740.51,742.109C9764.59,788.405 9780.37,838.603 9787.45,890.44L9787.51,890.871L9787.73,892.648C9788.09,895.524 9790.53,897.683 9793.43,897.683L9843.93,897.683C9869.81,897.683 9890.8,918.667 9890.8,944.553L9890.8,956.274C9890.8,982.16 9869.81,1003.14 9843.93,1003.14L9802.51,1003.14C9794.4,1003.14 9787.51,1009.08 9786.3,1017.1C9779.59,1062.15 9766.12,1106.16 9746.17,1147.39C9746.12,1147.49 9746.08,1147.59 9746.03,1147.69L9746.02,1147.71C9745.43,1148.99 9703.75,1220.79 9678.18,1249.77C9652.71,1278.65 9622.96,1304.64 9589.43,1326.97C9589.05,1327.18 9568.87,1337.42 9540.84,1350.1ZM9689.08,1934.26C9688.24,1916.12 9686.08,1902.37 9682.58,1893.01C9679.08,1883.64 9672.93,1875.49 9664.12,1868.56C9651.53,1858.83 9636.43,1853.96 9618.81,1853.96C9595.87,1853.96 9578.39,1863.11 9566.36,1881.39C9562.59,1887 9559.02,1889.8 9555.66,1889.8C9550.07,1889.8 9547.27,1886.26 9547.27,1879.18C9547.27,1878.3 9547.34,1877.26 9547.48,1876.08C9547.62,1872.84 9547.69,1871 9547.69,1870.55C9547.69,1866.13 9546.26,1862.3 9543.39,1859.05C9540.53,1855.81 9536.99,1854.18 9532.8,1854.18C9528.18,1854.18 9519.65,1855.92 9507.21,1859.38C9494.76,1862.85 9481.82,1867.09 9468.4,1872.1C9453.15,1877.85 9443.09,1882.61 9438.19,1886.37C9433.3,1890.13 9430.85,1894.96 9430.85,1900.86C9430.85,1906.61 9433.85,1911.48 9439.87,1915.46C9446.86,1920.03 9451.09,1923.9 9452.56,1927.07C9454.03,1930.24 9454.76,1936.92 9454.76,1947.09C9454.76,1965.53 9454.27,1983.15 9453.29,1999.96C9452.45,2014.12 9451.55,2023.01 9450.57,2026.62C9449.59,2030.23 9447.28,2033.44 9443.65,2036.24C9439.17,2039.63 9436.34,2042.25 9435.15,2044.1C9433.96,2045.94 9433.37,2048.63 9433.37,2052.17C9433.37,2069.13 9452.81,2077.61 9491.68,2077.61C9516.02,2077.61 9533.92,2075.55 9545.39,2071.42C9556.85,2067.29 9562.59,2060.87 9562.59,2052.17C9562.59,2048.78 9561.82,2045.76 9560.28,2043.1C9554.41,2033.81 9550.94,2027.54 9549.9,2024.3C9548.85,2021.05 9548.32,2015.08 9548.32,2006.38L9548.32,1962.58C9548.32,1945.91 9550.07,1934.41 9553.57,1928.07C9557.06,1921.73 9563.5,1918.56 9572.87,1918.56C9582.66,1918.56 9589.37,1922.47 9593,1930.28C9597.48,1940.01 9599.72,1955.06 9599.72,1975.41C9599.72,2010.51 9596.92,2031.15 9591.33,2037.35C9586.57,2042.81 9583.77,2046.23 9582.93,2047.63C9582.1,2049.04 9581.68,2051.21 9581.68,2054.16C9581.68,2062.42 9585.8,2068.39 9594.05,2072.08C9602.02,2075.62 9615.66,2077.39 9634.96,2077.39C9663.35,2077.39 9683.07,2075.47 9694.12,2071.64C9705.16,2067.8 9710.69,2061.02 9710.69,2051.28C9710.69,2047.01 9709.64,2043.69 9707.54,2041.33C9700.41,2033.37 9696.11,2027.98 9694.64,2025.18C9693.17,2022.38 9692.3,2018.03 9692.02,2012.13L9689.08,1934.26ZM8116.49,1771.23C8101.24,1771.23 8084.88,1774.91 8067.4,1782.29C8050.2,1789.52 8041.6,1799.47 8041.6,1812.15C8041.6,1821.59 8045.65,1828.97 8053.77,1834.27C8059.78,1838.4 8067.89,1840.47 8078.1,1840.47C8102.29,1840.47 8122.92,1835.23 8139.98,1824.76C8150.75,1818.13 8156.14,1809.13 8156.14,1797.77C8156.14,1789.66 8152.57,1783.21 8145.44,1778.42C8138.31,1773.62 8128.66,1771.23 8116.49,1771.23ZM9321.72,1851.09C9284.94,1851.09 9253.68,1862.74 9227.95,1886.04C9203.34,1908.16 9191.03,1936.62 9191.03,1971.43C9191.03,2002.69 9201.1,2028.06 9221.24,2047.52C9241.93,2067.58 9269,2077.61 9302.42,2077.61C9336.68,2077.61 9367.1,2066.92 9393.67,2045.53C9421.5,2023.12 9435.42,1995.91 9435.42,1963.91C9435.42,1945.62 9431.08,1928.07 9422.41,1911.26C9414.02,1895.18 9402.9,1882.13 9389.06,1872.1C9369.76,1858.09 9347.31,1851.09 9321.72,1851.09ZM9304.94,1902.19C9313.19,1902.48 9319.62,1907.64 9324.24,1917.67C9328.71,1927.55 9332.52,1940.38 9335.67,1956.16C9338.82,1971.94 9340.39,1986.03 9340.39,1998.41C9340.39,2015.08 9334.17,2023.41 9321.72,2023.41C9311.93,2023.41 9304.87,2017.37 9300.53,2005.27C9296.2,1993.47 9292.45,1979.94 9289.31,1964.68C9286.16,1949.42 9284.59,1937.36 9284.59,1928.51C9284.59,1920.55 9286.44,1914.17 9290.15,1909.38C9293.85,1904.58 9298.78,1902.19 9304.94,1902.19ZM8532.36,1854.18C8517.25,1854.33 8498.93,1857.8 8477.4,1864.58C8461.31,1869.6 8449.84,1874.65 8442.99,1879.73C8436.14,1884.82 8432.71,1890.9 8432.71,1897.98C8432.71,1905.8 8437.68,1911.77 8447.61,1915.9C8451.8,1917.67 8454.6,1920 8456,1922.87C8457.4,1925.75 8458.1,1930.5 8458.1,1937.14C8458.1,1973.42 8456.98,1998.27 8454.74,2011.69C8454.18,2015.67 8453.13,2018.8 8451.59,2021.09C8450.06,2023.38 8447.26,2025.92 8443.2,2028.72C8434.81,2034.77 8430.62,2041.62 8430.62,2049.29C8430.62,2059.47 8436.35,2066.62 8447.82,2070.75C8460.68,2075.32 8479.49,2077.61 8504.25,2077.61C8530.26,2077.61 8549.98,2076.14 8563.4,2073.18C8570.12,2071.71 8575.5,2068.72 8579.56,2064.23C8583.61,2059.73 8585.64,2054.46 8585.64,2048.41C8585.64,2038.53 8579.35,2031.6 8566.76,2027.62C8561.03,2025.85 8557.28,2024.11 8555.54,2022.42C8553.79,2020.72 8552.42,2017.66 8551.45,2013.24C8549.91,2005.12 8549.14,1989.93 8549.14,1967.67C8549.14,1952.77 8549.73,1943 8550.92,1938.36C8552.11,1933.71 8554.66,1931.39 8558.58,1931.39C8561.1,1931.39 8563.82,1932.94 8566.76,1936.03C8574.59,1944.14 8580.92,1949.53 8585.75,1952.18C8590.57,1954.84 8596.55,1956.16 8603.68,1956.16C8616.69,1956.16 8627.67,1951.66 8636.61,1942.67C8641.51,1937.95 8645.5,1931.94 8648.57,1924.64C8651.65,1917.34 8653.19,1910.22 8653.19,1903.29C8653.19,1897.1 8651.93,1890.65 8649.41,1883.94C8646.89,1877.23 8643.68,1871.73 8639.76,1867.46C8631.65,1858.76 8621.23,1854.4 8608.51,1854.4C8590.47,1854.4 8575.85,1863.62 8564.66,1882.06C8562.15,1886.33 8559.49,1888.47 8556.69,1888.47C8553.06,1888.47 8550.89,1885.23 8550.19,1878.74C8548.93,1866.79 8547.5,1859.71 8545.89,1857.5C8544.28,1855.29 8539.77,1854.18 8532.36,1854.18ZM9129.73,1771.23C9114.48,1771.23 9098.12,1774.91 9080.64,1782.29C9063.44,1789.52 9054.84,1799.47 9054.84,1812.15C9054.84,1821.59 9058.89,1828.97 9067.01,1834.27C9073.02,1838.4 9081.13,1840.47 9091.34,1840.47C9115.53,1840.47 9136.16,1835.23 9153.22,1824.76C9163.99,1818.13 9169.38,1809.13 9169.38,1797.77C9169.38,1789.66 9165.81,1783.21 9158.68,1778.42C9151.54,1773.62 9141.89,1771.23 9129.73,1771.23ZM9339.86,755.873C9232.51,755.873 9145.44,843.068 9145.44,950.414C9145.44,1057.76 9232.63,1144.83 9339.86,1144.83C9447.09,1144.83 9534.4,1057.65 9534.4,950.414C9534.4,843.179 9447.21,755.873 9339.86,755.873ZM9287.13,1019.53C9287.13,1015.18 9285.4,1011.01 9282.33,1007.94C9279.26,1004.87 9275.09,1003.14 9270.75,1003.14L9234.6,1003.14C9222.17,1003.14 9210.25,998.206 9201.46,989.416C9192.67,980.626 9187.73,968.705 9187.73,956.274L9187.73,944.553C9187.73,932.122 9192.67,920.201 9201.46,911.411C9210.25,902.621 9222.17,897.683 9234.6,897.683L9270.75,897.683C9275.09,897.683 9279.26,895.957 9282.33,892.885C9285.4,889.812 9287.13,885.645 9287.13,881.3L9287.13,845.156C9287.13,832.725 9292.07,820.804 9300.86,812.014C9309.65,803.225 9321.57,798.287 9334,798.287L9345.72,798.287C9358.15,798.287 9370.07,803.225 9378.86,812.014C9387.65,820.804 9392.59,832.725 9392.59,845.156L9392.59,881.3C9392.59,885.645 9394.32,889.812 9397.39,892.885C9400.46,895.957 9404.63,897.683 9408.97,897.683L9445.12,897.683C9457.55,897.683 9469.47,902.621 9478.26,911.411C9487.05,920.201 9491.99,932.122 9491.99,944.553L9491.99,956.274C9491.99,968.705 9487.05,980.626 9478.26,989.416C9469.47,998.206 9457.55,1003.14 9445.12,1003.14L9408.97,1003.14C9404.63,1003.14 9400.46,1004.87 9397.39,1007.94C9394.32,1011.01 9392.59,1015.18 9392.59,1019.53L9392.59,1055.67C9392.59,1068.1 9387.65,1080.02 9378.86,1088.81C9370.07,1097.6 9358.15,1102.54 9345.72,1102.54L9334,1102.54C9321.57,1102.54 9309.65,1097.6 9300.86,1088.81C9292.07,1080.02 9287.13,1068.1 9287.13,1055.67L9287.13,1019.53ZM7792.5,1851.09C7764.95,1851.09 7738.52,1858.16 7713.21,1872.32C7703.98,1877.63 7696.67,1883.83 7691.29,1890.9C7685.9,1897.98 7683.21,1905.06 7683.21,1912.14C7683.21,1919.07 7685.38,1924.68 7689.71,1928.95C7694.05,1933.23 7699.64,1935.37 7706.49,1935.37C7720.06,1935.37 7733.07,1926 7745.51,1907.28C7750.41,1900.2 7754.5,1895.33 7757.78,1892.67C7761.07,1890.02 7764.81,1888.69 7769.01,1888.69C7776,1888.69 7781.03,1892.19 7784.11,1899.2C7787.19,1906.21 7788.73,1917.52 7788.73,1933.16C7788.73,1939.35 7787.68,1943.3 7785.58,1944.99C7783.48,1946.69 7778.38,1947.54 7770.27,1947.54C7733.77,1947.68 7706.36,1957.05 7688.03,1975.63C7676.29,1987.43 7670.41,2001 7670.41,2016.33C7670.41,2025.92 7672.58,2035.1 7676.92,2043.87C7681.25,2052.65 7687.12,2059.76 7694.54,2065.22C7705.86,2073.48 7720.69,2077.61 7739.01,2077.61C7756.77,2077.61 7772.64,2072.23 7786.63,2061.46C7791.24,2057.77 7794.95,2055.93 7797.75,2055.93C7800.26,2055.93 7802.99,2057.85 7805.93,2061.68C7814.46,2072.3 7826.07,2077.61 7840.75,2077.61C7852.22,2077.61 7863.2,2074.37 7873.69,2067.88C7882.22,2062.71 7889.17,2056.3 7894.56,2048.63C7899.94,2040.96 7902.63,2033.59 7902.63,2026.51C7902.63,2021.05 7900.4,2017.96 7895.92,2017.22C7891.45,2016.48 7888.51,2015.67 7887.11,2014.79C7885.71,2013.9 7884.24,2011.84 7882.71,2008.59C7879.63,2001.81 7878.09,1986.99 7878.09,1964.13L7878.51,1931.17C7878.51,1915.53 7876.73,1903.26 7873.16,1894.33C7869.6,1885.41 7863.34,1877.49 7854.39,1870.55C7837.46,1857.58 7816.84,1851.09 7792.5,1851.09ZM7778.45,1979.17C7782.92,1979.32 7785.96,1980.79 7787.57,1983.59C7789.18,1986.4 7789.99,1991.85 7789.99,1999.96C7789.99,2019.87 7784.39,2029.83 7773.2,2029.83C7767.89,2029.83 7763.62,2027.65 7760.41,2023.3C7757.19,2018.95 7755.58,2013.24 7755.58,2006.16C7755.58,1998.78 7757.85,1992.44 7762.4,1987.13C7766.94,1981.82 7772.29,1979.17 7778.45,1979.17ZM8041.81,2061.81C8042.22,2062.44 8042.68,2063.07 8043.17,2063.67C8046.18,2067.36 8050.13,2069.94 8055.03,2071.42C8069.43,2075.55 8088.94,2077.61 8113.55,2077.61C8159.28,2077.61 8182.15,2068.1 8182.15,2049.07C8182.15,2045.53 8181.41,2042.62 8179.95,2040.34C8178.48,2038.05 8175.57,2035.28 8171.24,2032.04C8165.93,2028.06 8162.4,2023.71 8160.65,2018.99C8158.9,2014.27 8158.02,2006.82 8158.02,1996.64L8158.02,1868.12C8158.02,1858.98 8154.18,1854.4 8146.49,1854.4C8136.7,1854.4 8122.85,1856.62 8104.95,1861.04C8087.05,1865.47 8070.27,1870.85 8054.61,1877.19C8043.28,1881.76 8037.61,1888.69 8037.61,1897.98C8037.61,1905.8 8041.95,1911.7 8050.62,1915.68C8057.61,1918.92 8061.53,1923.57 8062.37,1929.62C8062.65,1931.83 8063.1,1939.61 8063.73,1952.95C8064.36,1966.3 8064.67,1975.41 8064.67,1980.28C8064.67,1995.47 8063.77,2006.89 8061.95,2014.56C8060.13,2022.23 8057.05,2027.76 8052.72,2031.15C8046.9,2035.65 8043.11,2039.02 8041.36,2041.25C8039.43,2039.47 8036.28,2037.58 8031.9,2035.58C8025.89,2032.78 8022.43,2028.8 8021.52,2023.63C8020.61,2018.47 8020.15,2000.18 8020.15,1968.77L8020.15,1897.76C8020.44,1875.79 8021.48,1851.6 8023.3,1825.2C8024.7,1808.25 8025.4,1797.4 8025.4,1792.69C8025.4,1778.23 8019.88,1771.01 8008.83,1771.01C8001.84,1771.01 7990.65,1772.41 7975.26,1775.21C7959.88,1778.01 7947.36,1780.96 7937.71,1784.06C7923.31,1788.63 7912.82,1793.61 7906.25,1798.99C7899.67,1804.37 7896.39,1810.68 7896.39,1817.9C7896.39,1822.48 7897.47,1826.35 7899.64,1829.52C7901.81,1832.69 7905.83,1836.04 7911.7,1839.58C7919.53,1844.6 7924.43,1852.27 7926.39,1862.59C7928.34,1872.91 7929.32,1896.07 7929.32,1932.05C7929.32,1967.44 7928.2,1994.73 7925.97,2013.9C7924.71,2025.11 7921.35,2031.97 7915.9,2034.47C7910.02,2037.13 7906.21,2039.41 7904.46,2041.33C7902.72,2043.25 7901.84,2045.98 7901.84,2049.51C7901.84,2053.94 7903.45,2058.18 7906.67,2062.24C7909.88,2066.29 7914.01,2069.28 7919.04,2071.19C7929.95,2075.47 7948.9,2077.61 7975.89,2077.61C7999.81,2077.61 8016.8,2075.99 8026.87,2072.74C8032.32,2071.12 8036.69,2068.32 8039.98,2064.34C8040.66,2063.51 8041.27,2062.67 8041.81,2061.81ZM9400.85,1244.75C9416.17,1256.11 9431.65,1267.65 9447.27,1279.35C9475.52,1270.11 9502.6,1257.26 9527.77,1241.04L9527.95,1240.92C9528.94,1240.26 9579.6,1201.91 9599.28,1179.65C9618.94,1157.42 9635.9,1132.37 9649.83,1104.63L9649.84,1104.61C9649.95,1104.4 9650.06,1104.18 9650.17,1103.98C9650.66,1103.06 9672.65,1049.69 9678.44,1022.78L9678.44,1022.75C9679.49,1017.91 9678.3,1012.86 9675.19,1009C9672.08,1005.14 9667.39,1002.9 9662.44,1002.9L9662.43,1002.9C9653.22,1002.9 9642.92,1002.92 9635.13,1002.95C9614.03,1121.94 9522.57,1216.84 9405.36,1242.99C9403.75,1243.36 9402.23,1243.96 9400.85,1244.75ZM8763.79,1851.09C8736.24,1851.09 8709.8,1858.16 8684.49,1872.32C8675.26,1877.63 8667.95,1883.83 8662.57,1890.9C8657.18,1897.98 8654.49,1905.06 8654.49,1912.14C8654.49,1919.07 8656.66,1924.68 8661,1928.95C8665.33,1933.23 8670.92,1935.37 8677.78,1935.37C8691.34,1935.37 8704.35,1926 8716.8,1907.28C8721.69,1900.2 8725.78,1895.33 8729.07,1892.67C8732.35,1890.02 8736.09,1888.69 8740.29,1888.69C8747.28,1888.69 8752.32,1892.19 8755.4,1899.2C8758.47,1906.21 8760.01,1917.52 8760.01,1933.16C8760.01,1939.35 8758.96,1943.3 8756.86,1944.99C8754.76,1946.69 8749.66,1947.54 8741.55,1947.54C8705.05,1947.68 8677.64,1957.05 8659.32,1975.63C8647.57,1987.43 8641.7,2001 8641.7,2016.33C8641.7,2025.92 8643.86,2035.1 8648.2,2043.87C8652.53,2052.65 8658.41,2059.76 8665.82,2065.22C8677.15,2073.48 8691.97,2077.61 8710.29,2077.61C8728.05,2077.61 8743.93,2072.23 8757.91,2061.46C8762.53,2057.77 8766.23,2055.93 8769.03,2055.93C8771.55,2055.93 8774.27,2057.85 8777.21,2061.68C8785.74,2072.3 8797.35,2077.61 8812.03,2077.61C8823.5,2077.61 8834.48,2074.37 8844.97,2067.88C8853.5,2062.71 8860.46,2056.3 8865.84,2048.63C8871.23,2040.96 8873.92,2033.59 8873.92,2026.51C8873.92,2021.05 8871.68,2017.96 8867.2,2017.22C8862.73,2016.48 8859.79,2015.67 8858.39,2014.79C8857,2013.9 8855.53,2011.84 8853.99,2008.59C8850.91,2001.81 8849.37,1986.99 8849.37,1964.13L8849.79,1931.17C8849.79,1915.53 8848.01,1903.26 8844.44,1894.33C8840.88,1885.41 8834.62,1877.49 8825.67,1870.55C8808.75,1857.58 8788.12,1851.09 8763.79,1851.09ZM8749.73,1979.17C8754.21,1979.32 8757.25,1980.79 8758.86,1983.59C8760.46,1986.4 8761.27,1991.85 8761.27,1999.96C8761.27,2019.87 8755.67,2029.83 8744.49,2029.83C8739.17,2029.83 8734.91,2027.65 8731.69,2023.3C8728.47,2018.95 8726.86,2013.24 8726.86,2006.16C8726.86,1998.78 8729.14,1992.44 8733.68,1987.13C8738.23,1981.82 8743.58,1979.17 8749.73,1979.17ZM8292.75,1782.95C8292.89,1774.1 8289.25,1769.68 8281.84,1769.68C8270.23,1769.68 8256.28,1771.56 8239.99,1775.32C8223.7,1779.08 8210.09,1783.47 8199.19,1788.48C8179.19,1797.92 8169.19,1807.58 8169.19,1817.46C8169.19,1822.33 8170.59,1826.35 8173.39,1829.52C8176.18,1832.69 8181.22,1835.9 8188.49,1839.14C8193.66,1841.35 8196.81,1844.38 8197.93,1848.21C8199.05,1852.05 8199.61,1861.56 8199.61,1876.75L8199.61,1937.8C8199.61,1968.48 8199.12,1990.89 8198.14,2005.05C8197.16,2019.21 8195.27,2031.08 8192.47,2040.67C8191.78,2043.17 8191.43,2045.39 8191.43,2047.3C8191.43,2053.2 8195.76,2056.15 8204.43,2056.15C8209.33,2056.15 8213.59,2055.41 8217.23,2053.94C8224.36,2051.14 8228.7,2049.74 8230.23,2049.74C8231.49,2049.74 8233.17,2050.4 8235.27,2051.73C8249.11,2061.17 8261.88,2067.84 8273.55,2071.75C8285.23,2075.66 8298.34,2077.61 8312.89,2077.61C8342.25,2077.61 8367.85,2068.32 8389.66,2049.74C8420.01,2024.08 8435.18,1989.79 8435.18,1946.87C8435.18,1916.79 8425.81,1892.38 8407.07,1873.65C8392.11,1858.76 8374.84,1851.31 8355.26,1851.31C8335.54,1851.31 8317.5,1858.39 8301.14,1872.54C8296.52,1876.53 8293.73,1878.52 8292.75,1878.52C8290.93,1878.52 8290.02,1877.04 8290.02,1874.09L8290.02,1869.23L8292.75,1782.95ZM8310.79,1917.89C8318.06,1918.19 8324.28,1921.73 8329.46,1928.51C8338.41,1940.31 8342.88,1959.04 8342.88,1984.7C8342.88,2002.1 8340.23,2015.38 8334.91,2024.52C8329.6,2033.66 8321.84,2038.23 8311.63,2038.23C8301.7,2038.23 8295.75,2032.63 8293.8,2021.42C8291.56,2009.33 8290.44,1985.95 8290.44,1951.3C8290.44,1938.61 8291.77,1930.21 8294.42,1926.08C8297.78,1920.62 8303.24,1917.89 8310.79,1917.89ZM7539.68,1763.49C7517.86,1763.49 7496.67,1768.2 7476.11,1777.64C7449.12,1790.03 7427.24,1807.95 7410.45,1831.4C7391.16,1858.39 7381.51,1888.25 7381.51,1920.99C7381.51,1949.16 7389.2,1976.15 7404.58,2001.95C7420.24,2028.5 7441.57,2048.19 7468.56,2061.02C7491.78,2072.08 7515.06,2077.61 7538.42,2077.61C7560.79,2077.61 7582.33,2072.37 7603.03,2061.9C7611.84,2057.48 7618.9,2054.75 7624.22,2053.72C7633.45,2051.8 7639.53,2049.59 7642.47,2047.08C7649.32,2041.04 7655.19,2032.7 7660.09,2022.09C7664.98,2011.47 7667.43,2001.88 7667.43,1993.33C7667.43,1986.54 7665.68,1980.76 7662.19,1975.96C7658.69,1971.17 7654.49,1968.77 7649.6,1968.77C7646.24,1968.77 7641.91,1971.43 7636.59,1976.74C7630.44,1983.08 7621.8,1988.24 7610.69,1992.22C7599.57,1996.2 7588.34,1998.19 7577.02,1998.19C7546.25,1998.19 7522.61,1984.11 7506.11,1955.94C7493.94,1934.85 7487.86,1911.62 7487.86,1886.26C7487.86,1867.83 7492.09,1853.11 7500.55,1842.13C7509.01,1831.14 7520.45,1825.65 7534.85,1825.65C7549.68,1825.65 7563.87,1830.66 7577.44,1840.69C7582.89,1844.82 7587.51,1849.43 7591.28,1854.52C7595.06,1859.6 7599.95,1867.97 7605.97,1879.62C7610.16,1887.88 7614.5,1893.63 7618.97,1896.88C7623.45,1900.12 7629.25,1901.74 7636.38,1901.74C7644.21,1901.74 7651.28,1899.53 7657.57,1895.11C7669.18,1886.85 7674.98,1873.8 7674.98,1855.95C7674.98,1830.59 7668.27,1809.35 7654.84,1792.24C7649.39,1785.16 7643.03,1781.62 7635.75,1781.62C7633.52,1781.62 7631.49,1781.85 7629.67,1782.29C7624.08,1783.62 7620.02,1784.28 7617.5,1784.28C7614.01,1784.28 7607.78,1782.07 7598.83,1777.64C7579.81,1768.2 7560.1,1763.49 7539.68,1763.49ZM9680.35,897.664C9674.1,861.609 9662.93,821.308 9646.99,790.642L9646.94,790.549C9641.48,779.973 9635.32,769.513 9628.58,759.401L9628.48,759.248C9611.41,733.416 9591.42,710.621 9569.33,690.981L9569.32,690.979C9524.13,650.907 9469.85,624.156 9412.54,611.899L9412.53,611.898C9407.69,610.86 9402.65,612.065 9398.8,615.174C9394.96,618.283 9392.72,622.963 9392.72,627.909L9392.72,627.935C9392.71,632.564 9392.71,637.224 9392.71,641.647C9392.71,649.307 9398.02,655.944 9405.49,657.629C9518.44,682.796 9607.49,771.852 9632.69,884.909C9634.37,892.357 9640.99,897.647 9648.63,897.647L9648.66,897.647C9659.29,897.664 9671,897.667 9680.35,897.664ZM9057.87,1883C9057.91,1882 9057.94,1880.95 9057.94,1879.84L9057.94,1866.79C9057.94,1860.3 9057.17,1856.06 9055.63,1854.07C9054.09,1852.08 9050.74,1851.09 9045.56,1851.09L9006.75,1851.09C9002.42,1851.09 8999.59,1850.42 8998.26,1849.1C8996.93,1847.77 8996.26,1844.89 8996.26,1840.47L8996.26,1810.6C8996.26,1805.59 8995.67,1802.24 8994.48,1800.54C8993.29,1798.84 8990.95,1798 8987.45,1798L8970.46,1798C8966.97,1798 8964.03,1798.66 8961.65,1799.99L8865.57,1863.7C8862.5,1865.76 8860.89,1869.01 8860.75,1873.43L8860.75,1883.16C8860.75,1888.32 8861.31,1891.61 8862.43,1893.01C8863.55,1894.41 8866.13,1895.11 8870.19,1895.11L8891.8,1895.11C8895.01,1895.11 8897.01,1895.51 8897.77,1896.33C8898.54,1897.14 8898.93,1899.24 8898.93,1902.63L8898.93,2004.83C8898.93,2026.66 8905.71,2044.24 8919.28,2057.59C8932.84,2070.94 8950.81,2077.61 8973.19,2077.61C9001.44,2077.61 9025.49,2068.69 9045.35,2050.84C9054.86,2042.44 9059.61,2033.66 9059.61,2024.52C9059.61,2019.5 9058.22,2014.86 9055.42,2010.58C9052.62,2006.31 9049.55,2004.17 9046.19,2004.17C9044.09,2004.17 9041.99,2004.83 9039.9,2006.16C9030.95,2011.47 9023.74,2014.12 9018.29,2014.12C9011.86,2014.12 9006.58,2011.32 9002.45,2005.72C8998.33,2000.11 8996.26,1992.88 8996.26,1984.04L8996.26,1909.27C8996.26,1905.14 8996.96,1902.33 8998.36,1900.86C8999.76,1899.38 9002.42,1898.65 9006.33,1898.65L9044.3,1898.65C9046.89,1898.65 9049.07,1898.31 9050.85,1897.62C9050.95,1891.81 9053.28,1886.94 9057.87,1883ZM9050.85,1897.62L9050.85,1897.98C9050.85,1905.8 9055.19,1911.7 9063.86,1915.68C9070.85,1918.92 9074.77,1923.57 9075.6,1929.62C9075.89,1931.83 9076.34,1939.61 9076.97,1952.95C9077.6,1966.3 9077.91,1975.41 9077.91,1980.28C9077.91,1995.47 9077,2006.89 9075.19,2014.56C9073.37,2022.23 9070.29,2027.76 9065.96,2031.15C9059.66,2036.02 9055.75,2039.56 9054.21,2041.77C9052.67,2043.99 9051.9,2047.08 9051.9,2051.06C9051.9,2055.78 9053.4,2059.99 9056.41,2063.67C9059.42,2067.36 9063.37,2069.94 9068.26,2071.42C9082.67,2075.55 9102.18,2077.61 9126.79,2077.61C9172.52,2077.61 9195.39,2068.1 9195.39,2049.07C9195.39,2045.53 9194.65,2042.62 9193.18,2040.34C9191.72,2038.05 9188.81,2035.28 9184.48,2032.04C9179.16,2028.06 9175.63,2023.71 9173.89,2018.99C9172.14,2014.27 9171.26,2006.82 9171.26,1996.64L9171.26,1868.12C9171.26,1858.98 9167.42,1854.4 9159.73,1854.4C9149.94,1854.4 9136.09,1856.62 9118.19,1861.04C9100.29,1865.47 9083.51,1870.85 9067.84,1877.19C9063.79,1878.82 9060.47,1880.76 9057.87,1883C9057.61,1888.4 9056.65,1892.25 9055,1894.56C9054.02,1895.92 9052.64,1896.94 9050.85,1897.62ZM8065.09,1452.46C8041.35,1452.46 8024.98,1455.63 8015.98,1461.97C8008.9,1466.84 8001.81,1476.67 7994.53,1491.39C7993.36,1493.76 7990.84,1498.84 7987,1506.66L7955.81,1567.49C7952.72,1573.54 7950.03,1577.67 7947.74,1579.88C7945.45,1582.09 7942.84,1583.2 7939.89,1583.2C7936.49,1583.2 7933.84,1582.16 7931.92,1580.1C7930.01,1578.04 7926.54,1572.36 7921.53,1563.07L7875.51,1478.34C7871.38,1470.53 7868.21,1465.36 7866,1462.86C7863.79,1460.35 7860.76,1458.38 7856.93,1456.88C7849.1,1453.83 7835.77,1452.24 7816.89,1452.24C7809.37,1452.24 7800.19,1452.94 7789.35,1454.34C7778.51,1455.74 7769.85,1457.4 7763.36,1459.32C7756.87,1461.09 7751.67,1464.11 7747.76,1468.39C7743.85,1472.66 7741.9,1477.38 7741.9,1482.54C7741.9,1490.51 7747.14,1497 7757.61,1502.01C7762.32,1504.37 7765.53,1506.29 7767.23,1507.76C7768.92,1509.24 7770.44,1511.45 7771.76,1514.4C7775.45,1522.95 7777.29,1539.25 7777.29,1563.29C7777.29,1582.46 7776.7,1605.5 7775.52,1632.42C7774.34,1659.33 7773.09,1678.69 7771.76,1690.49C7770.58,1701.55 7769.15,1708.99 7767.45,1712.83C7765.75,1716.66 7762.47,1719.68 7757.61,1721.9C7754.57,1723.36 7751.99,1724.67 7749.87,1725.84C7747.61,1721.09 7742.8,1718.16 7735.43,1717.03C7729.98,1716.15 7725.92,1714.41 7723.27,1711.83C7720.61,1709.25 7717.3,1703.83 7713.31,1695.57L7671.5,1605.98C7635.52,1529.15 7608.09,1482.77 7589.21,1466.84C7575.64,1455.19 7561.41,1449.36 7546.52,1449.36C7530.74,1449.36 7517.76,1454.52 7507.58,1464.85C7502.72,1469.57 7499.58,1474.4 7498.18,1479.34C7496.78,1484.28 7496.01,1493.09 7495.86,1505.77C7495.72,1517.72 7493.68,1529.92 7489.78,1542.38C7485.87,1554.84 7478.16,1573.61 7466.66,1598.68L7435.47,1667.04C7426.32,1687.09 7419.28,1700.18 7414.34,1706.3C7409.4,1712.42 7402.14,1717.19 7392.55,1720.57C7386.66,1722.64 7382.56,1724.92 7380.28,1727.43C7377.99,1729.93 7376.85,1733.47 7376.85,1738.05C7376.85,1748.52 7382.01,1755.3 7392.33,1758.4C7403.54,1761.64 7421.09,1763.26 7444.98,1763.26C7487.01,1763.26 7508.03,1754.49 7508.03,1736.94C7508.03,1728.98 7503.53,1723.67 7494.53,1721.01C7487.6,1718.8 7483.51,1717.22 7482.26,1716.26C7481,1715.3 7480.38,1713.2 7480.38,1709.95C7480.38,1706.41 7481.26,1702.73 7483.03,1698.89C7484.8,1695.06 7486.86,1692.39 7489.22,1690.93C7493.05,1688.56 7504.78,1687.39 7524.4,1687.39C7547.7,1687.39 7565.76,1688.27 7578.59,1690.04C7590.54,1691.81 7596.51,1697.64 7596.51,1707.52C7596.51,1713.12 7593.05,1717.13 7586.11,1719.46C7579.93,1721.55 7575.68,1723.78 7573.4,1726.21C7571.11,1728.64 7569.97,1732.07 7569.97,1736.5C7569.97,1742.25 7572.14,1747.15 7576.49,1751.21C7580.84,1755.26 7586.7,1757.95 7594.08,1759.28C7610.15,1762.09 7634.86,1763.49 7668.19,1763.49C7697.68,1763.49 7718.92,1761.13 7731.9,1756.41C7736.84,1754.61 7740.85,1752.37 7743.91,1749.69C7750.6,1758.74 7767.33,1763.26 7794.11,1763.26C7836.43,1763.26 7857.59,1755.01 7857.59,1738.49C7857.59,1732.29 7855.17,1727.93 7850.29,1725.44C7842.78,1721.59 7838.16,1718.95 7836.47,1717.47C7834.77,1716 7833.41,1713.64 7832.38,1710.39C7830.9,1704.94 7830.16,1694.54 7830.16,1679.2C7830.16,1664.46 7830.68,1648.38 7831.71,1630.98C7832.15,1623.16 7834.74,1619.25 7839.45,1619.25C7843.88,1619.25 7848.08,1623.83 7852.06,1632.97L7881.26,1698.67C7885.1,1707.37 7889.93,1717.33 7895.75,1728.53C7901.58,1739.74 7905.31,1746.22 7906.93,1748C7909.45,1750.79 7912.31,1752.2 7915.55,1752.2C7918.94,1752.2 7922.04,1750.47 7924.84,1747.01C7927.65,1743.54 7931.33,1736.79 7935.9,1726.76L7962.45,1667.26C7970.12,1650.3 7975.87,1638.98 7979.7,1633.3C7983.54,1627.62 7987.52,1624.78 7991.65,1624.78C7995.19,1624.78 7997.51,1626.63 7998.62,1630.32C7999.72,1634 8000.28,1641.74 8000.28,1653.54C8000.28,1674.78 7999.58,1689.82 7998.18,1698.67C7996.78,1707.52 7994.15,1713.48 7990.32,1716.59C7982.93,1722.61 7978.38,1726.8 7976.61,1729.09C7974.84,1731.37 7973.95,1734.29 7973.95,1737.83C7973.95,1747.41 7980.74,1754.19 7994.3,1758.18C8006.55,1761.72 8025.13,1763.49 8050.05,1763.49C8066.27,1763.49 8078.29,1763.12 8086.11,1762.38C8093.92,1761.64 8101.37,1760.09 8108.45,1757.73C8122.17,1753.46 8129.02,1746.16 8129.02,1735.83C8129.02,1729.93 8126.37,1725.22 8121.06,1721.68C8113.39,1716.66 8108.64,1712.9 8106.79,1710.39C8104.95,1707.89 8103.58,1703.17 8102.7,1696.24C8099.16,1667.92 8097.39,1634.96 8097.39,1597.35C8097.39,1568.15 8099.09,1543.38 8102.48,1523.03C8104.25,1513.29 8108.53,1505.85 8115.31,1500.68C8120.32,1497 8135.39,1497.28 8144.12,1499.8C8153.26,1502.31 8158.86,1505.59 8160.93,1509.64C8162.99,1513.7 8164.03,1523.25 8164.03,1538.29L8164.03,1654.65C8163.73,1681.93 8163.14,1698.08 8162.26,1703.09C8161.37,1708.11 8158.27,1712.02 8152.96,1714.82C8144.26,1719.24 8138.73,1722.63 8136.37,1724.99C8134.01,1727.35 8132.83,1730.75 8132.83,1735.17C8132.83,1753.9 8160.12,1763.26 8214.68,1763.26C8240.64,1763.26 8260.7,1760.76 8274.85,1755.74C8289.01,1750.73 8296.09,1743.58 8296.09,1734.29C8296.09,1728.24 8291.3,1722.63 8281.71,1717.47C8274.63,1713.79 8269.95,1710.21 8267.66,1706.74C8265.38,1703.28 8264.09,1698.01 8263.79,1690.93L8262.24,1654.65L8262.24,1653.32C8262.24,1648.45 8264.38,1646.02 8268.66,1646.02C8270.13,1646.02 8273.9,1646.24 8279.94,1646.68C8291.3,1647.72 8300.88,1648.23 8308.7,1648.23C8339.52,1648.23 8365.77,1639.75 8387.45,1622.79C8410.46,1604.65 8421.96,1580.54 8421.96,1550.46C8421.96,1513.29 8405.52,1486.16 8372.63,1469.05C8353.75,1459.17 8332.22,1454.23 8308.03,1454.23C8300.96,1454.23 8293.14,1454.67 8284.59,1455.56C8258.78,1457.91 8243.77,1459.21 8239.57,1459.43C8235.37,1459.65 8221.02,1459.83 8196.54,1459.98L8183.27,1459.98C8169.26,1459.54 8160.49,1459.32 8156.95,1459.32C8146.33,1459.32 8099.64,1452.46 8065.09,1452.46ZM7517.54,1633.85C7510.76,1633.85 7507.36,1632.01 7507.36,1628.32C7507.36,1625.37 7510.46,1616.38 7516.65,1601.34C7520.34,1592.19 7522.48,1586.96 7523.07,1585.63C7526.61,1575.75 7531.03,1570.81 7536.34,1570.81C7539.29,1570.81 7542.09,1572.28 7544.75,1575.23C7547.4,1578.18 7551.24,1584.01 7556.25,1592.71C7567.31,1611.73 7572.84,1623.68 7572.84,1628.55C7572.84,1632.09 7568.86,1633.85 7560.9,1633.85L7517.54,1633.85ZM8263.79,1510.2C8263.79,1504.44 8269.25,1501.57 8280.16,1501.57C8290.19,1501.57 8298.74,1504.3 8305.82,1509.75C8317.03,1518.31 8322.64,1532.17 8322.64,1551.34C8322.64,1569.78 8317.84,1582.9 8308.26,1590.72C8301.62,1596.17 8293.43,1598.9 8283.7,1598.9C8277.21,1598.9 8271.83,1597.87 8267.55,1595.81C8265.05,1594.63 8263.79,1591.16 8263.79,1585.41L8263.79,1510.2ZM7635.75,851.993C7666.16,767.645 7720.36,735.439 7720.36,735.439C7720.36,735.439 7701.87,772.687 7694.1,819.195C7684.32,877.665 7678.36,874.476 7646.92,909.151C7615.46,943.827 7594.36,947.316 7573.4,966.995C7552.4,986.674 7490.32,1029.9 7490.32,1029.9C7518.61,944.624 7605.32,936.341 7635.75,851.993ZM8221.02,697.008C8189.98,673.985 8212.35,682.705 8183.96,652.223C8146.97,612.505 8289.19,725.252 8345.4,751.928C8345.4,751.928 8343.11,755.786 8326.75,751.336C8310.41,746.886 8301.95,744.005 8278.52,731.94C8255.08,719.876 8252.07,720.005 8221.02,697.008ZM9126.8,1223.46C9151.98,1245.53 9167.94,1261.05 9167.94,1261.05C9083.26,1213.76 9008.61,1169.46 8921.85,1121.27C8871.09,1093.07 8816.17,1063.54 8752.68,1031.31C8580.72,944.032 8589.1,991.158 8389.87,807.491C8389.87,807.491 8639.44,910.566 8729.61,959.286C8805.74,1000.44 8837.03,1034.89 8905.51,1073.94C8918.15,1081.15 8932.06,1088.52 8947.74,1096.11C9000.76,1121.77 9059,1166.16 9102.26,1202.42C9111.13,1209.85 9119.37,1216.94 9126.8,1223.46ZM7981.72,649.187C7995.3,672.236 7999.03,658.422 8004.15,680.673C8009.27,702.924 8007.54,704.416 8006.41,719.722C8005.28,735.053 8003.48,740.146 7998.95,749.69C7994.42,759.233 7989.56,759.31 7989.56,759.31C7994.42,723.246 7964.04,619.168 7981.72,649.187ZM8119.31,911.981C8149.72,953.679 8146.58,918.051 8195.35,1029.9C8244.1,1141.75 8211.07,1157.03 8211.07,1157.03C8184.34,1068.48 8121.42,975.698 8072.65,861.845C8072.65,861.845 8088.91,870.257 8119.31,911.981ZM7129.27,1039.83L7120.32,995.557C7184.34,933.475 7221.86,842.159 7264.13,799.028C7320.9,741.15 7503.26,698.654 7503.26,698.654C7503.26,698.654 7424.13,758.179 7351.87,785.42C7279.61,812.661 7264.13,850.115 7233.18,911.415C7205.24,966.752 7130.3,1039.39 7129.27,1039.83ZM7909.41,891.196C7909.41,891.196 7902.69,921.782 7908.89,955.428C7916.66,997.718 7910.08,997.358 7890.27,1030.1C7870.49,1062.83 7842.45,1068.74 7828.25,1088.24C7814.05,1107.76 7789.25,1134.18 7789.25,1134.18C7791.28,1068.28 7877.25,1054.98 7881.55,989.1C7885.84,923.222 7909.41,891.196 7909.41,891.196ZM8205.8,758.05C8282.86,796.713 8359.16,937.293 8359.16,937.293C8359.16,937.293 8268.72,837.485 8212.1,802.346C8162.4,771.503 8153.6,777.034 8110.88,697.625C8068.17,618.19 8009.37,561.907 8054.67,587.656C8114.55,621.714 8128.73,719.413 8205.8,758.05Z" style="fill:white;"/></g></g></svg>