<?xml version="1.0" encoding="UTF-8" standalone="no"?><!DOCTYPE svg PUBLIC "-//W3C//DTD SVG 1.1//EN" "http://www.w3.org/Graphics/SVG/1.1/DTD/svg11.dtd"><svg width="22363px" height="5263px" version="1.1" xmlns="http://www.w3.org/2000/svg" xmlns:xlink="http://www.w3.org/1999/xlink" xml:space="preserve" xmlns:serif="http://www.serif.com/" style="fill-rule:evenodd;clip-rule:evenodd;stroke-linejoin:round;stroke-miterlimit:2;"><g transform="matrix(4.16667,0,0,4.16667,0,0)"><g transform="matrix(1,0,0,1,0,-10920.4)"><g transform="matrix(2.47801,0,0,2.478,-2136.27,8316.33)"><path d="M1076.97,1362.29C1054.14,1384 1023.28,1397.33 989.321,1397.33C919.1,1397.33 862.09,1340.32 862.09,1270.1C862.09,1199.88 919.1,1142.87 989.321,1142.87C1059.54,1142.87 1116.55,1199.88 1116.55,1270.1L1116.55,1397.33L1076.97,1397.33L1076.97,1362.29ZM1076.97,1270.1C1076.97,1221.72 1037.69,1182.45 989.321,1182.45C940.947,1182.45 901.673,1221.72 901.673,1270.1C901.673,1318.47 940.947,1357.75 989.321,1357.75C1037.69,1357.75 1076.97,1318.47 1076.97,1270.1Z" style="fill:white;"/></g><g transform="matrix(2.47801,0,0,2.478,743.53,8316.33)"><path d="M1076.97,1362.29C1054.14,1384 1023.28,1397.33 989.321,1397.33C919.1,1397.33 862.09,1340.32 862.09,1270.1C862.09,1199.88 919.1,1142.87 989.321,1142.87C1059.54,1142.87 1116.55,1199.88 1116.55,1270.1L1116.55,1397.33L1076.97,1397.33L1076.97,1362.29ZM1076.97,1270.1C1076.97,1221.72 1037.69,1182.45 989.321,1182.45C940.947,1182.45 901.673,1221.72 901.673,1270.1C901.673,1318.47 940.947,1357.75 989.321,1357.75C1037.69,1357.75 1076.97,1318.47 1076.97,1270.1Z" style="fill:rgb(46,95,66);"/></g><g transform="matrix(2.47801,0,0,2.478,140.353,8316.33)"><path d="M1054.66,1328.49L1076.97,1362.29C1054.14,1384 1023.28,1397.33 989.321,1397.33C919.1,1397.33 862.09,1340.32 862.09,1270.1C862.09,1199.88 919.1,1142.87 989.321,1142.87C1023.28,1142.87 1054.14,1156.2 1076.97,1177.91L1054.66,1211.7C1038.61,1193.76 1015.27,1182.45 989.321,1182.45C940.947,1182.45 901.673,1221.72 901.673,1270.1C901.673,1318.47 940.947,1357.75 989.321,1357.75C1015.27,1357.75 1038.61,1346.44 1054.66,1328.49Z" style="fill:rgb(46,95,66);"/></g><g transform="matrix(-2.47801,0,0,2.64376,6347.9,7653.89)"><path d="M1076.97,1272.2C1076.97,1262.36 1081.14,1252.93 1088.56,1245.97C1095.99,1239.01 1106.05,1235.1 1116.55,1235.1L1116.55,1560.28L1076.97,1560.28L1076.97,1272.2Z" style="fill:rgb(46,95,66);"/></g><g transform="matrix(1.41,0,0,1.40999,-819.649,9486.15)"><path d="M1078.66,1178.88L1149.05,1178.88L1149.05,1248.47C1165.92,1227.65 1181.21,1212.49 1194.91,1203C1218.38,1186.92 1245,1178.88 1274.79,1178.88C1308.53,1178.88 1335.68,1187.18 1356.24,1203.79C1367.84,1213.28 1378.38,1227.25 1387.87,1245.7C1403.69,1223.03 1422.28,1206.23 1443.63,1195.29C1464.98,1184.35 1488.97,1178.88 1515.59,1178.88C1572.53,1178.88 1611.28,1199.44 1631.84,1240.56C1642.91,1262.7 1648.45,1292.49 1648.45,1329.92L1648.45,1626.09L1574.51,1626.09L1574.51,1317.67C1574.51,1289.46 1567.45,1270.09 1553.35,1259.54C1539.25,1249 1522.05,1243.73 1501.75,1243.73C1473.81,1243.73 1449.76,1253.08 1429.59,1271.8C1409.42,1290.52 1399.34,1321.75 1399.34,1365.51L1399.34,1626.09L1326.98,1626.09L1326.98,1335.46C1326.98,1306.73 1323.55,1285.77 1316.7,1272.59C1305.89,1252.82 1285.73,1242.93 1256.2,1242.93C1229.32,1242.93 1204.87,1253.35 1182.86,1274.17C1160.84,1295 1149.84,1332.69 1149.84,1387.26L1149.84,1626.09L1078.66,1626.09L1078.66,1178.88Z" style="fill:white;"/></g><g transform="matrix(-2.47801,0,0,2.478,4342.18,8316.33)"><path d="M1076.97,1362.29C1054.14,1384 1023.28,1397.33 989.321,1397.33C919.1,1397.33 862.09,1340.32 862.09,1270.1C862.09,1199.88 919.1,1142.87 989.321,1142.87C1059.54,1142.87 1116.55,1199.88 1116.55,1270.1L1116.55,1560.28L1076.97,1560.28L1076.97,1362.29ZM1076.97,1270.1C1076.97,1221.72 1037.69,1182.45 989.321,1182.45C940.947,1182.45 901.673,1221.72 901.673,1270.1C901.673,1318.47 940.947,1357.75 989.321,1357.75C1037.69,1357.75 1076.97,1318.47 1076.97,1270.1Z" style="fill:white;"/></g><g transform="matrix(2.45891,0,0,2.39034,-1133.87,8415.02)"><path d="M2150.67,1047.62C2210.76,1047.62 2255.26,1066.93 2284.15,1105.56C2306.7,1135.68 2317.98,1174.23 2317.98,1221.19C2317.98,1272.02 2305.08,1314.28 2279.28,1347.95C2249,1387.5 2205.82,1407.28 2149.74,1407.28C2097.37,1407.28 2056.2,1389.98 2026.22,1355.37C1999.5,1322 1986.13,1279.82 1986.13,1228.84C1986.13,1182.8 1997.57,1143.41 2020.43,1110.66C2049.78,1068.63 2093.2,1047.62 2150.67,1047.62ZM2155.3,1366.03C2195.93,1366.03 2225.32,1351.47 2243.48,1322.35C2261.63,1293.23 2270.7,1259.74 2270.7,1221.89C2270.7,1181.88 2260.24,1149.66 2239.3,1125.26C2218.37,1100.85 2189.75,1088.64 2153.45,1088.64C2118.22,1088.64 2089.49,1100.73 2067.24,1124.91C2044.99,1149.09 2033.87,1184.73 2033.87,1231.85C2033.87,1269.55 2043.41,1301.34 2062.49,1327.21C2081.57,1353.09 2112.51,1366.03 2155.3,1366.03Z" style="fill:white;"/></g><g transform="matrix(3.11141,0,0,2.76687,-2575.83,7939.44)"><path d="M2355.56,1283.96C2356.49,1300.67 2360.44,1314.25 2367.39,1324.68C2380.63,1344.2 2403.97,1353.96 2437.4,1353.96C2452.38,1353.96 2466.01,1351.82 2478.32,1347.54C2502.12,1339.25 2514.02,1324.41 2514.02,1303.01C2514.02,1286.97 2509.01,1275.53 2498.98,1268.71C2488.82,1262.03 2472.9,1256.21 2451.24,1251.26L2411.32,1242.23C2385.24,1236.35 2366.79,1229.87 2355.96,1222.78C2337.24,1210.47 2327.88,1192.09 2327.88,1167.62C2327.88,1141.14 2337.04,1119.41 2355.36,1102.42C2373.68,1085.44 2399.62,1076.95 2433.18,1076.95C2464.08,1076.95 2490.32,1084.4 2511.92,1099.32C2533.51,1114.23 2544.31,1138.06 2544.31,1170.83L2506.8,1170.83C2504.8,1155.05 2500.52,1142.94 2493.96,1134.52C2481.8,1119.14 2461.13,1111.45 2431.98,1111.45C2408.45,1111.45 2391.53,1116.4 2381.23,1126.29C2370.94,1136.19 2365.79,1147.69 2365.79,1160.8C2365.79,1175.24 2371.8,1185.8 2383.84,1192.49C2391.73,1196.77 2409.58,1202.12 2437.4,1208.54L2478.72,1217.96C2498.64,1222.51 2514.02,1228.73 2524.86,1236.62C2543.58,1250.39 2552.94,1270.38 2552.94,1296.59C2552.94,1329.22 2541.07,1352.56 2517.33,1366.6C2493.6,1380.64 2466.01,1387.66 2434.59,1387.66C2397.95,1387.66 2369.26,1378.3 2348.54,1359.58C2327.81,1340.99 2317.65,1315.78 2318.05,1283.96L2355.56,1283.96Z" style="fill:white;"/></g></g></g></svg>