<?xml version="1.0" encoding="UTF-8" standalone="no"?><!DOCTYPE svg PUBLIC "-//W3C//DTD SVG 1.1//EN" "http://www.w3.org/Graphics/SVG/1.1/DTD/svg11.dtd"><svg width="28099px" height="7591px" version="1.1" xmlns="http://www.w3.org/2000/svg" xmlns:xlink="http://www.w3.org/1999/xlink" xml:space="preserve" xmlns:serif="http://www.serif.com/" style="fill-rule:evenodd;clip-rule:evenodd;stroke-linejoin:round;stroke-miterlimit:2;"><g transform="matrix(1,0,0,1,-10737.3,-20408.4)"><g id="Artboard3" transform="matrix(6.65123,0,0,1.79663,-46653.5,4487.08)"><rect x="8628.61" y="8861.77" width="4224.59" height="4224.59" style="fill:none;"/><clipPath id="_clip1"><rect x="8628.61" y="8861.77" width="4224.59" height="4224.59"/></clipPath><g clip-path="url(#_clip1)"><g transform="matrix(0.244435,0,0,0.904912,6187.8,330.493)"><path d="M12156.1,13655.5C11984.9,13640.7 11816.2,13602.8 11654.9,13542.7L11654.8,13542.6C11593,13519.5 11531.8,13493 11471.5,13462.9C11319.2,13387 11181.6,13293.4 11059.8,13185.8C10690.3,12859.4 10467.2,12404.4 10425.4,11924.9L9985.51,11924.9L9985.51,11598.4L10425.2,11598.4C10445.1,11366.6 10508.2,11134.6 10618.3,10913.8L10910.5,11059.5C10823.8,11233.4 10772.2,11415.8 10753.2,11598.4L11089.9,11598.4C11162.9,11044.4 11602.1,10605.1 12156.1,10532.2L12156.1,10195.6C11911.7,10220.9 11669.5,10304 11450.4,10449.1L11270.2,10176.8C11544.9,9994.97 11849.5,9893.82 12156.1,9867.68L12156.1,9427.75L12482.6,9427.75L12482.6,9867.99C12883,9902.76 13269.6,10063.7 13579.1,10337.8C13700.7,10445.5 13810.4,10570.6 13904.3,10712.5C13941.5,10768.7 13975.4,10826.2 14005.9,10884.8L14006,10885C14107.3,11080.2 14174.3,11291.9 14203.6,11510.2L14203.6,11510.4C14207.5,11539.7 14210.7,11569.1 14213.2,11598.4L14653.3,11598.4L14653.3,11924.9L14212.9,11924.9C14192.8,12155.8 14130.8,12382.1 14029.4,12591.7L14029.3,12591.8C14026.4,12597.8 14023.5,12603.8 14020.5,12609.7C13944.7,12761.9 13851,12899.6 13743.4,13021.3L13743.3,13021.3C13635.7,13143 13510.5,13252.7 13368.7,13346.7C13363.1,13350.3 13357.6,13354 13351.9,13357.6L13351.8,13357.7C13090.9,13526.1 12791.9,13628.4 12482.6,13655.5L12482.6,14095.5L12156.1,14095.5L12156.1,13655.5ZM13885.3,11598.4C13883.7,11583.4 13882,11568.4 13880,11553.4C13855.7,11372.6 13800.2,11197.2 13716.3,11035.5C13691,10987 13662.9,10939.3 13632.1,10892.7C13554.2,10775.2 13463.4,10671.4 13362.6,10582.2C13113.6,10361.6 12804.2,10229.6 12482.6,10195.9L12482.6,10532.2C13036.6,10605.3 13475.7,11044.5 13548.7,11598.5L13885.3,11598.4ZM12156.1,12991C11602.1,12918.1 11162.9,12478.9 11089.9,11924.9L10753.4,11924.9C10794,12311.6 10977.2,12677.2 11276,12941.1C11376.9,13030.3 11490.9,13107.8 11617.1,13170.7C11667.1,13195.6 11717.9,13217.6 11769.1,13236.8C11893.8,13283.2 12024,13313.7 12156.1,13327.6L12156.1,12991ZM13548.6,11925C13475.6,12478.8 13036.5,12918 12482.6,12991L12482.6,13327.5C12728.8,13301.5 12966.4,13217.8 13174.7,13083.4C13179.3,13080.4 13183.9,13077.5 13188.4,13074.4C13305.9,12996.6 13409.6,12905.8 13498.8,12805C13587.9,12704.2 13665.5,12590.2 13728.3,12464.1C13730.8,12459.2 13733.2,12454.2 13735.6,12449.3C13815.5,12284.2 13865.8,12106.5 13884.9,11925L13548.6,11925ZM12207.1,11704.4L12067.8,12295.7L12571.1,12295.7L12431.8,11704.4C12514.3,11663.1 12571.1,11577.7 12571.1,11479.2C12571.1,11340.3 12458.3,11227.6 12319.4,11227.6C12180.5,11227.6 12067.8,11340.3 12067.8,11479.2C12067.8,11577.7 12124.5,11663.1 12207.1,11704.4Z" style="fill:white;"/></g><g transform="matrix(0.14516,0,0,0.537391,7515.45,4602.79)"><path d="M15016.8,8841.13L16324,8841.13L17595.5,13287.2L18878.8,8841.13L20150.3,8841.13L18151.7,14850.7L16995.5,14850.7L15016.8,8841.13Z" style="fill:white;fill-rule:nonzero;"/></g><g transform="matrix(0.14516,0,0,0.537391,7416.32,4602.79)"><path d="M23169.3,13493.8L21011.8,13493.8L20606.5,14850.7L19327.1,14850.7L21417.1,8841.13L22799.8,8841.13L24873.8,14850.7L23546.7,14850.7L23169.3,13493.8ZM22827.6,12484.6L22096.5,10180.1L21341.6,12484.6L22827.6,12484.6Z" style="fill:white;fill-rule:nonzero;"/></g><g transform="matrix(0.14516,0,0,0.537391,7354.67,4602.79)"><path d="M28544.4,12440.9L28544.4,8841.13L29788,8841.13L29788,12440.9C29788,13063.4 29691.4,13548.1 29498,13895.1C29137.8,14530.8 28450.4,14850.7 27435.9,14850.7C26421.4,14850.7 25732.7,14530.8 25369.8,13895.1C25176.4,13548.1 25079.7,13063.4 25079.7,12440.9L25079.7,8841.13L26323.4,8841.13L26323.4,12440.9C26323.4,12843.5 26371,13137.5 26466.4,13323C26614.7,13651.4 26937.9,13815.6 27435.9,13815.6C27931.2,13815.6 28253,13651.4 28401.4,13323C28496.7,13137.5 28544.4,12843.5 28544.4,12440.9Z" style="fill:white;fill-rule:nonzero;"/></g><g transform="matrix(0.14516,0,0,0.537391,7329.73,4602.79)"><path d="M30419.1,8841.13L31642.9,8841.13L31642.9,13644.8L34543.4,13644.8L34543.4,14850.7L30419.1,14850.7L30419.1,8841.13Z" style="fill:white;fill-rule:nonzero;"/></g><g transform="matrix(0.14516,0,0,0.537391,7258.03,4602.79)"><path d="M38508,8841.13L38508,9878.15L36755.8,9878.15L36755.8,14850.7L35524.1,14850.7L35524.1,9878.15L33763.9,9878.15L33763.9,8841.13L38508,8841.13Z" style="fill:white;fill-rule:nonzero;"/></g></g></g></g></svg>