<?xml version="1.0" encoding="UTF-8" standalone="no"?><!DOCTYPE svg PUBLIC "-//W3C//DTD SVG 1.1//EN" "http://www.w3.org/Graphics/SVG/1.1/DTD/svg11.dtd"><svg width="1800px" height="587px" version="1.1" xmlns="http://www.w3.org/2000/svg" xmlns:xlink="http://www.w3.org/1999/xlink" xml:space="preserve" xmlns:serif="http://www.serif.com/" style="fill-rule:evenodd;clip-rule:evenodd;stroke-linejoin:round;stroke-miterlimit:2;"><g transform="matrix(0.75,0,0,0.75,0,0)"><g id="Artboard1" transform="matrix(1,0,0,0.489089,0,0)"><rect x="0" y="0" width="2400" height="1600" style="fill:none;"/><clipPath id="_clip1"><rect x="0" y="0" width="2400" height="1600"/></clipPath><g clip-path="url(#_clip1)"><g transform="matrix(1,0,0,2.04462,0,-547.524)"><path d="M851.812,560.904L514.279,560.904L514.279,489.876C514.279,473.069 519.148,459.23 528.885,448.359C538.622,437.488 551.194,428.685 566.6,421.949C582.006,415.213 598.579,409.844 616.319,405.843C634.06,401.841 651.2,398.506 667.74,395.839C689.615,392.371 707.022,388.502 719.96,384.234C729.831,381.033 734.766,376.564 734.766,370.829C734.766,369.095 734.299,367.227 733.366,365.226C724.162,351.621 709.089,344.818 688.148,344.818C667.473,344.818 652.4,351.621 642.93,365.226L515.08,365.226C519.348,346.152 527.685,329.312 540.089,314.707C552.494,300.101 570.568,288.63 594.311,280.293C618.054,271.956 649.333,267.788 688.148,267.788C726.963,267.788 758.242,271.956 781.985,280.293C805.728,288.63 823.801,300.101 836.206,314.707C848.611,329.312 856.948,346.152 861.216,365.226C861.883,369.762 862.217,374.03 862.217,378.032C862.217,397.239 854.88,413.112 840.208,425.65C825.535,438.189 805.628,447.626 780.484,453.962C755.341,460.297 730.765,465.133 706.755,468.467C694.617,470.201 683.679,472.035 673.942,473.969C664.205,475.904 656.469,478.104 650.733,480.572C644.997,483.04 642.13,486.141 642.13,489.876L851.812,489.876L851.812,560.904ZM1210.35,560.904L1089.91,560.904L1089.91,489.876L890.228,489.876L890.228,419.048L1089.91,267.788L1210.35,267.788L1210.35,419.048L1257.37,419.048L1257.37,489.876L1210.35,489.876L1210.35,560.904ZM1089.91,419.048L1089.91,361.225L1011.68,419.048L1089.91,419.048ZM1325.26,465.18L1432.74,465.18L1432.74,406.577L1459.11,406.577L1459.11,560.904L1432.74,560.904L1432.74,490.206L1325.26,490.206L1325.26,560.904L1298.89,560.904L1298.89,406.577L1325.26,406.577L1325.26,465.18ZM1569.24,406.369C1586.41,406.369 1601.85,409.716 1615.58,416.412C1629.3,423.107 1640.05,432.322 1647.82,444.055C1655.6,455.789 1659.49,469.014 1659.49,483.731C1659.49,498.315 1655.6,511.441 1647.82,523.108C1640.05,534.775 1629.33,543.957 1615.68,550.652C1602.02,557.347 1586.61,560.695 1569.44,560.695C1552.81,560.695 1537.53,557.347 1523.6,550.652C1509.68,543.957 1498.66,534.742 1490.55,523.009C1482.43,511.275 1478.38,498.182 1478.38,483.731C1478.38,469.147 1482.43,455.955 1490.55,444.155C1498.66,432.355 1509.64,423.107 1523.5,416.412C1537.36,409.716 1552.6,406.369 1569.24,406.369ZM1569.24,538.222C1580.19,538.222 1590.53,536.101 1600.27,531.858C1610,527.616 1617.84,521.384 1623.79,513.164C1629.74,504.944 1632.71,495.133 1632.71,483.731C1632.71,472.594 1629.71,462.849 1623.69,454.496C1617.67,446.144 1609.73,439.78 1599.86,435.404C1589.99,431.029 1579.58,428.842 1568.63,428.842C1556.73,428.842 1545.95,431.029 1536.28,435.404C1526.61,439.78 1519.01,446.11 1513.46,454.397C1507.92,462.683 1505.15,472.461 1505.15,483.731C1505.15,495.266 1508.09,505.143 1513.97,513.363C1519.85,521.583 1527.66,527.781 1537.39,531.958C1547.13,536.134 1557.74,538.222 1569.24,538.222ZM1823.96,406.572L1850.94,406.572L1850.94,486.878C1850.94,501.614 1847.32,514.559 1840.09,525.713C1832.85,536.867 1822.88,545.519 1810.17,551.671C1797.46,557.822 1783,560.898 1766.77,560.898C1751.09,560.898 1736.49,557.788 1722.96,551.569C1709.44,545.35 1698.56,536.63 1690.31,525.409C1682.06,514.188 1677.87,501.344 1677.74,486.878L1677.74,406.572L1704.71,406.572L1704.71,488.906C1704.71,501.074 1708.33,510.808 1715.56,518.108C1722.8,525.409 1731.21,530.546 1740.81,533.521C1750.41,536.495 1759.13,537.982 1766.97,537.982C1774.55,537.982 1782.69,536.529 1791.41,533.622C1800.13,530.715 1807.74,525.578 1814.23,518.21C1820.72,510.842 1823.96,501.074 1823.96,488.906L1823.96,406.572ZM2007.51,560.487L1965.93,510.643L1900.83,510.643L1900.83,560.487L1874.26,560.487L1874.26,406.16L1976.88,406.16C1989.46,406.16 2000.58,408.315 2010.24,412.625C2019.91,416.935 2027.41,422.948 2032.76,430.665C2038.1,438.381 2040.77,447.314 2040.77,457.463L2040.77,458.298C2040.77,471.506 2037.01,482.42 2029.51,491.04C2022.01,499.66 2011.63,505.43 1998.38,508.349L2041.98,560.487L2007.51,560.487ZM2012.58,459.34C2012.58,450.164 2010.92,443.456 2007.61,439.215C2004.3,434.975 2000.17,432.368 1995.24,431.395C1990.3,430.421 1983.44,429.935 1974.65,429.935C1970.73,429.935 1967.35,430.004 1964.51,430.143C1950.99,430.7 1929.76,430.978 1900.83,430.978L1900.83,486.869L1974.65,486.869C1983.44,486.869 1990.3,486.417 1995.24,485.513C2000.17,484.609 2004.3,482.176 2007.61,478.214C2010.92,474.252 2012.58,467.96 2012.58,459.34ZM847.292,595.46L874.266,595.46L874.266,675.772C874.266,690.509 870.649,703.455 863.415,714.61C856.182,725.764 846.21,734.418 833.501,740.57C820.792,746.721 806.325,749.797 790.1,749.797C774.416,749.797 759.814,746.688 746.293,740.468C732.772,734.249 721.888,725.528 713.641,714.306C705.393,703.084 701.202,690.239 701.067,675.772L701.067,595.46L728.04,595.46L728.04,677.8C728.04,689.969 731.657,699.704 738.891,707.005C746.124,714.306 754.541,719.444 764.14,722.418C773.74,725.393 782.461,726.88 790.303,726.88C797.874,726.88 806.02,725.426 814.741,722.52C823.462,719.613 831.067,714.475 837.557,707.106C844.047,699.737 847.292,689.969 847.292,677.8L847.292,595.46ZM1030.83,748.976L989.259,699.263L924.157,699.263L924.157,748.976L897.589,748.976L897.589,595.054L1000.21,595.054C1012.78,595.054 1023.9,597.203 1033.57,601.502C1043.24,605.801 1050.74,611.798 1056.08,619.494C1061.42,627.19 1064.1,636.1 1064.1,646.223L1064.1,647.055C1064.1,660.228 1060.34,671.113 1052.84,679.711C1045.34,688.308 1034.96,694.063 1021.71,696.975L1065.31,748.976L1030.83,748.976ZM1035.9,648.095C1035.9,638.942 1034.25,632.252 1030.94,628.022C1027.62,623.793 1023.5,621.193 1018.57,620.222C1013.63,619.252 1006.77,618.766 997.979,618.766C994.058,618.766 990.678,618.836 987.839,618.974C974.318,619.529 953.091,619.806 924.157,619.806L924.157,675.551L997.979,675.551C1006.77,675.551 1013.63,675.1 1018.57,674.199C1023.5,673.298 1027.62,670.871 1030.94,666.919C1034.25,662.967 1035.9,656.692 1035.9,648.095ZM1461.2,749.392L1432.8,749.392L1413.94,713.615L1314.36,713.615L1295.5,749.392L1267.11,749.392L1348.43,595.47L1379.87,595.47L1461.2,749.392ZM1364.25,619.39L1327.75,688.239L1400.56,688.239L1364.25,619.39ZM1606.61,748.976L1565.03,699.263L1499.93,699.263L1499.93,748.976L1473.36,748.976L1473.36,595.054L1575.99,595.054C1588.56,595.054 1599.68,597.203 1609.35,601.502C1619.02,605.801 1626.52,611.798 1631.86,619.494C1637.2,627.19 1639.87,636.1 1639.87,646.223L1639.87,647.055C1639.87,660.228 1636.12,671.113 1628.62,679.711C1621.11,688.308 1610.73,694.063 1597.48,696.975L1641.09,748.976L1606.61,748.976ZM1611.68,648.095C1611.68,638.942 1610.02,632.252 1606.71,628.022C1603.4,623.793 1599.28,621.193 1594.34,620.222C1589.4,619.252 1582.54,618.766 1573.76,618.766C1569.83,618.766 1566.45,618.836 1563.61,618.974C1550.09,619.529 1528.87,619.806 1499.93,619.806L1499.93,675.551L1573.76,675.551C1582.54,675.551 1589.4,675.1 1594.34,674.199C1599.28,673.298 1603.4,670.871 1606.71,666.919C1610.02,662.967 1611.68,656.692 1611.68,648.095ZM1746.14,595.673C1763.31,595.673 1778.76,599.012 1792.49,605.69C1806.21,612.367 1816.96,621.558 1824.73,633.261C1832.51,644.963 1836.39,658.154 1836.39,672.832C1836.39,687.378 1832.51,700.469 1824.73,712.106C1816.96,723.743 1806.24,732.9 1792.59,739.578C1778.93,746.256 1763.52,749.595 1746.35,749.595C1729.72,749.595 1714.44,746.256 1700.51,739.578C1686.59,732.9 1675.57,723.71 1667.45,712.007C1659.34,700.304 1655.28,687.246 1655.28,672.832C1655.28,658.286 1659.34,645.129 1667.45,633.36C1675.57,621.591 1686.55,612.367 1700.41,605.69C1714.27,599.012 1729.51,595.673 1746.14,595.673ZM1746.14,727.181C1757.1,727.181 1767.44,725.065 1777.17,720.833C1786.91,716.602 1794.75,710.387 1800.7,702.188C1806.65,693.99 1809.62,684.204 1809.62,672.832C1809.62,661.724 1806.61,652.005 1800.6,643.674C1794.58,635.343 1786.64,628.996 1776.77,624.632C1766.9,620.268 1756.49,618.087 1745.53,618.087C1733.64,618.087 1722.85,620.268 1713.19,624.632C1703.52,628.996 1695.91,635.31 1690.37,643.575C1684.83,651.84 1682.06,661.592 1682.06,672.832C1682.06,684.336 1685,694.188 1690.88,702.387C1696.76,710.585 1704.57,716.767 1714.3,720.933C1724.04,725.098 1734.65,727.181 1746.14,727.181ZM2000.87,595.46L2027.85,595.46L2027.85,675.772C2027.85,690.509 2024.23,703.455 2017,714.61C2009.76,725.764 1999.79,734.418 1987.08,740.57C1974.37,746.721 1959.9,749.797 1943.68,749.797C1928,749.797 1913.39,746.688 1899.87,740.468C1886.35,734.249 1875.47,725.528 1867.22,714.306C1858.97,703.084 1854.78,690.239 1854.65,675.772L1854.65,595.46L1881.62,595.46L1881.62,677.8C1881.62,689.969 1885.24,699.704 1892.47,707.005C1899.7,714.306 1908.12,719.444 1917.72,722.418C1927.32,725.393 1936.04,726.88 1943.88,726.88C1951.45,726.88 1959.6,725.426 1968.32,722.52C1977.04,719.613 1984.65,714.475 1991.14,707.106C1997.63,699.737 2000.87,689.969 2000.87,677.8L2000.87,595.46ZM2400,672.639C2400,687.199 2396.62,700.303 2389.86,711.951C2383.1,723.599 2373.5,732.752 2361.06,739.408C2348.62,746.064 2334.16,749.392 2317.66,749.392L2245.87,749.392L2245.87,595.47L2317.46,595.47C2333.95,595.47 2348.45,598.798 2360.96,605.454C2373.47,612.11 2383.1,621.262 2389.86,632.91C2396.62,644.559 2400,657.801 2400,672.639ZM2321.31,724.015C2331.45,724.015 2340.47,722.039 2348.39,718.087C2356.3,714.135 2362.51,708.311 2367.04,700.615C2371.57,692.919 2373.84,683.594 2373.84,672.639C2373.84,663.487 2371.57,654.959 2367.04,647.055C2362.51,639.15 2356.23,632.841 2348.18,628.126C2340.14,623.412 2331.18,621.054 2321.31,621.054L2272.23,621.054L2272.23,724.015L2321.31,724.015ZM514.279,619.39L514.279,595.47L680.786,595.47L680.786,619.39L611.222,619.39L611.222,749.392L584.857,749.392L584.857,619.39L514.279,619.39ZM1084.58,595.47L1110.94,595.47L1228.57,712.159L1228.57,595.47L1254.94,595.47L1254.94,749.392L1228.57,749.392L1110.94,632.494L1110.94,749.392L1084.58,749.392L1084.58,595.47ZM2051.17,595.47L2077.53,595.47L2195.16,712.159L2195.16,595.47L2221.53,595.47L2221.53,749.392L2195.16,749.392L2077.53,632.494L2077.53,749.392L2051.17,749.392L2051.17,595.47ZM241.363,267.788C374.575,267.788 482.726,375.939 482.726,509.151C482.726,642.363 374.575,750.514 241.363,750.514C108.151,750.514 -0,642.363 -0,509.151C-0,375.939 108.151,267.788 241.363,267.788ZM241.363,296.11C123.783,296.11 28.322,391.571 28.322,509.151C28.322,626.731 123.783,722.191 241.363,722.191C358.943,722.191 454.403,626.731 454.403,509.151C454.403,391.571 358.943,296.11 241.363,296.11ZM227.202,335.876C227.202,328.06 233.547,321.715 241.363,321.715C249.179,321.715 255.524,328.06 255.524,335.876L255.524,500.546L353.793,551.545C360.73,555.145 363.439,563.7 359.839,570.638C356.238,577.575 347.683,580.284 340.746,576.684L234.84,521.72C230.147,519.285 227.202,514.438 227.202,509.151L227.202,335.876ZM129.104,840.957L155.794,786.081L169.816,786.081L134.906,857.828L120.884,857.828L102.316,806.15L84.813,857.828L70.79,857.828L33.946,786.081L48.935,786.081L76.496,841.054L95.063,786.081L110.053,786.081L129.104,840.957ZM228.71,832.134L173.781,832.134C173.975,835.431 174.91,838.517 176.586,841.394C178.262,844.27 180.744,846.613 184.032,848.423C187.32,850.233 191.317,851.138 196.024,851.138C200.085,851.138 203.679,850.41 206.806,848.956C209.933,847.502 212.351,845.692 214.059,843.527C215.768,841.361 216.622,839.277 216.622,837.273L228.71,837.273C228.71,840.634 227.421,844.06 224.842,847.55C222.263,851.041 218.491,853.949 213.527,856.276C208.563,858.603 202.664,859.767 195.83,859.767C189.705,859.767 184.032,858.555 178.81,856.131C173.588,853.707 169.43,850.313 166.335,845.95C163.24,841.588 161.693,836.627 161.693,831.068C161.693,825.38 163.192,820.354 166.19,815.991C169.188,811.628 173.282,808.267 178.472,805.908C183.661,803.549 189.448,802.369 195.83,802.369C202.342,802.369 208.063,803.533 212.995,805.859C217.927,808.186 221.763,811.467 224.503,815.7C227.243,819.934 228.645,824.895 228.71,830.583L228.71,832.134ZM196.024,811.095C190.479,811.095 185.998,812.323 182.582,814.779C179.165,817.236 176.715,820.467 175.232,824.475L215.848,824.475C214.752,820.467 212.609,817.236 209.417,814.779C206.226,812.323 201.761,811.095 196.024,811.095ZM300.175,802.757C306.493,802.757 312.183,803.985 317.244,806.441C322.304,808.897 326.269,812.307 329.138,816.67C332.007,821.033 333.442,825.929 333.442,831.359C333.442,836.724 332.007,841.588 329.138,845.95C326.269,850.313 322.304,853.723 317.244,856.179C312.183,858.635 306.493,859.864 300.175,859.864C294.115,859.864 288.425,858.619 283.107,856.131C277.788,853.642 273.549,850.217 270.39,845.854C267.231,841.491 265.651,836.659 265.651,831.359C265.651,825.994 267.231,821.13 270.39,816.767C273.549,812.404 277.772,808.978 283.058,806.49C288.345,804.001 294.05,802.757 300.175,802.757ZM300.272,851.138C306.203,851.138 311.199,849.538 315.261,846.338C319.323,843.139 321.354,838.146 321.354,831.359C321.354,824.572 319.323,819.562 315.261,816.331C311.199,813.099 306.203,811.483 300.272,811.483C296.533,811.483 292.954,812.162 289.538,813.519C286.121,814.876 283.332,817.042 281.173,820.015C279.013,822.988 277.933,826.77 277.933,831.359C277.933,835.948 279.013,839.713 281.173,842.654C283.332,845.595 286.104,847.744 289.489,849.102C292.874,850.459 296.468,851.138 300.272,851.138ZM370.577,809.447L370.577,819.627L358.585,819.627L358.585,857.828L346.497,857.828L346.497,819.627L334.989,819.627L334.989,809.447L346.497,809.447L346.497,804.211C346.497,796.519 348.367,791.284 352.106,788.504C355.845,785.725 360.068,784.335 364.774,784.335C366.386,784.335 367.837,784.465 369.126,784.723L369.126,796.649C365.902,796.649 363.598,796.907 362.212,797.424C360.825,797.941 359.891,799.056 359.407,800.769C358.924,802.482 358.65,805.375 358.585,809.447L370.577,809.447ZM412.547,809.447L412.547,819.627L400.555,819.627L400.555,857.828L388.467,857.828L388.467,819.627L376.959,819.627L376.959,809.447L388.467,809.447L388.467,804.211C388.467,796.519 390.337,791.284 394.076,788.504C397.815,785.725 402.038,784.335 406.744,784.335C408.356,784.335 409.807,784.465 411.096,784.723L411.096,796.649C407.872,796.649 405.568,796.907 404.182,797.424C402.795,797.941 401.861,799.056 401.377,800.769C400.894,802.482 400.62,805.375 400.555,809.447L412.547,809.447ZM484.979,832.134L430.05,832.134C430.244,835.431 431.178,838.517 432.855,841.394C434.531,844.27 437.013,846.613 440.301,848.423C443.589,850.233 447.586,851.138 452.292,851.138C456.354,851.138 459.948,850.41 463.075,848.956C466.202,847.502 468.62,845.692 470.328,843.527C472.036,841.361 472.891,839.277 472.891,837.273L484.979,837.273C484.979,840.634 483.689,844.06 481.111,847.55C478.532,851.041 474.76,853.949 469.796,856.276C464.832,858.603 458.933,859.767 452.099,859.767C445.974,859.767 440.301,858.555 435.079,856.131C429.857,853.707 425.698,850.313 422.604,845.95C419.509,841.588 417.962,836.627 417.962,831.068C417.962,825.38 419.461,820.354 422.459,815.991C425.457,811.628 429.551,808.267 434.74,805.908C439.93,803.549 445.716,802.369 452.099,802.369C458.611,802.369 464.332,803.533 469.264,805.859C474.196,808.186 478.032,811.467 480.772,815.7C483.512,819.934 484.914,824.895 484.979,830.583L484.979,832.134ZM452.292,811.095C446.748,811.095 442.267,812.323 438.85,814.779C435.433,817.236 432.984,820.467 431.501,824.475L472.117,824.475C471.021,820.467 468.877,817.236 465.686,814.779C462.495,812.323 458.03,811.095 452.292,811.095ZM502.773,813.131C505.222,810.546 508.285,808.558 511.96,807.168C515.634,805.779 519.986,804.825 525.015,804.308L525.015,816.04L514.377,816.04C509.864,816.04 506.85,817.3 505.335,819.821C503.82,822.342 503.03,825.832 502.966,830.292L502.966,857.828L490.878,857.828L490.878,804.987L500.935,804.987L502.773,813.131ZM651.602,846.872L651.602,857.828L564.374,857.828L564.374,852.98C564.374,844.448 565.679,837.984 568.29,833.589C570.901,829.193 574.334,826.155 578.589,824.475C582.845,822.794 588.808,821.34 596.48,820.112C598.35,819.789 600.622,819.466 603.298,819.142C605.973,818.819 608.052,818.561 609.535,818.367C615.918,817.656 620.914,816.961 624.524,816.282C628.135,815.603 631.165,814.569 633.615,813.18C636.065,811.79 637.29,809.899 637.29,807.508C637.29,802.854 634.324,799.477 628.393,797.376C622.461,795.275 615.209,794.257 606.634,794.322C598.382,794.257 591.371,795.485 585.601,798.006C579.831,800.527 576.945,804.502 576.945,809.932L564.374,809.835C564.374,803.436 566.695,798.297 571.337,794.419C575.978,790.541 581.507,787.826 587.922,786.275C594.336,784.723 600.509,783.948 606.441,783.948C617.465,783.948 627.458,785.531 636.419,788.698C645.381,791.866 649.861,798.103 649.861,807.411C649.861,812.517 647.54,816.557 642.898,819.53C638.257,822.503 632.986,824.588 627.087,825.784C621.188,826.98 614.338,827.998 606.537,828.838C602.734,829.161 600.09,829.484 598.607,829.807C590.291,830.518 584.601,832.587 581.539,836.013C578.477,839.438 576.945,843.058 576.945,846.872L651.602,846.872ZM720.94,836.303L731.094,836.303L731.094,846.969L720.94,846.969L720.94,857.828L708.368,857.828L708.368,846.969L657.501,846.969L657.501,836.303L708.368,786.081L720.94,786.081L720.94,836.303ZM708.368,799.654L673.554,836.303L708.368,836.303L708.368,799.654ZM737.283,834.558L737.283,825.057L771.033,825.057L771.033,834.558L737.283,834.558ZM812.423,803.242C816.162,803.242 819.805,804.276 823.35,806.344C826.896,808.413 829.862,811.903 832.247,816.815C834.633,821.728 835.825,828.127 835.825,836.013L835.825,857.828L823.737,857.828L823.737,836.303C823.737,829.646 822.641,824.071 820.449,819.579C818.257,815.086 813.712,812.84 806.814,812.84C799.722,812.84 795.032,815.119 792.743,819.676C790.455,824.233 789.31,830.001 789.31,836.982L789.31,857.828L777.222,857.828L777.222,786.081L789.31,786.081L789.31,811.871C794.403,806.118 802.108,803.242 812.423,803.242ZM875.765,802.757C882.083,802.757 887.772,803.985 892.833,806.441C897.894,808.897 901.859,812.307 904.728,816.67C907.597,821.033 909.031,825.929 909.031,831.359C909.031,836.724 907.597,841.588 904.728,845.95C901.859,850.313 897.894,853.723 892.833,856.179C887.772,858.635 882.083,859.864 875.765,859.864C869.704,859.864 864.015,858.619 858.696,856.131C853.377,853.642 849.138,850.217 845.979,845.854C842.82,841.491 841.241,836.659 841.241,831.359C841.241,825.994 842.82,821.13 845.979,816.767C849.138,812.404 853.361,808.978 858.648,806.49C863.934,804.001 869.64,802.757 875.765,802.757ZM875.861,851.138C881.793,851.138 886.789,849.538 890.851,846.338C894.912,843.139 896.943,838.146 896.943,831.359C896.943,824.572 894.912,819.562 890.851,816.331C886.789,813.099 881.793,811.483 875.861,811.483C872.122,811.483 868.544,812.162 865.127,813.519C861.71,814.876 858.922,817.042 856.762,820.015C854.602,822.988 853.522,826.77 853.522,831.359C853.522,835.948 854.602,839.713 856.762,842.654C858.922,845.595 861.694,847.744 865.079,849.102C868.463,850.459 872.058,851.138 875.861,851.138ZM961.445,804.987L973.534,804.987L973.534,857.828L961.445,857.828L961.445,850.556C956.159,856.567 948.229,859.573 937.656,859.573C930.564,859.573 925.004,857.084 920.974,852.107C916.945,847.13 914.93,838.695 914.93,826.802L914.93,804.987L927.018,804.987L927.018,826.511C927.018,833.169 928.114,838.743 930.306,843.236C932.498,847.728 937.044,849.974 943.942,849.974C951.034,849.974 955.724,847.696 958.012,843.139C960.301,838.582 961.445,832.813 961.445,825.832L961.445,804.987ZM992.778,813.131C995.228,810.546 998.29,808.558 1001.97,807.168C1005.64,805.779 1009.99,804.825 1015.02,804.308L1015.02,816.04L1004.38,816.04C999.87,816.04 996.856,817.3 995.341,819.821C993.826,822.342 993.036,825.832 992.971,830.292L992.971,857.828L980.883,857.828L980.883,804.987L990.941,804.987L992.778,813.131ZM1076.53,804.987L1086.58,804.987L1086.58,815.167L1076.53,815.167L1076.53,857.828L1064.44,857.828L1064.44,815.167L1053.9,815.167L1053.9,804.987L1064.44,804.987L1064.44,793.546L1076.53,784.529L1076.53,804.987ZM1139.96,804.987L1152.05,804.987L1152.05,857.828L1139.96,857.828L1139.96,850.556C1134.68,856.567 1126.75,859.573 1116.17,859.573C1109.08,859.573 1103.52,857.084 1099.49,852.107C1095.46,847.13 1093.45,838.695 1093.45,826.802L1093.45,804.987L1105.54,804.987L1105.54,826.511C1105.54,833.169 1106.63,838.743 1108.82,843.236C1111.02,847.728 1115.56,849.974 1122.46,849.974C1129.55,849.974 1134.24,847.696 1136.53,843.139C1138.82,838.582 1139.96,832.813 1139.96,825.832L1139.96,804.987ZM1171.3,813.131C1173.75,810.546 1176.81,808.558 1180.48,807.168C1184.16,805.779 1188.51,804.825 1193.54,804.308L1193.54,816.04L1182.9,816.04C1178.39,816.04 1175.37,817.3 1173.86,819.821C1172.34,822.342 1171.55,825.832 1171.49,830.292L1171.49,857.828L1159.4,857.828L1159.4,804.987L1169.46,804.987L1171.3,813.131ZM1236.28,803.242C1243.37,803.242 1248.93,805.73 1252.96,810.707C1256.99,815.684 1259.01,824.119 1259.01,836.013L1259.01,857.828L1246.92,857.828L1246.92,836.303C1246.92,829.646 1245.82,824.071 1243.63,819.579C1241.44,815.086 1236.89,812.84 1230,812.84C1222.9,812.84 1218.21,815.119 1215.92,819.676C1213.64,824.233 1212.49,830.001 1212.49,836.982L1212.49,857.828L1200.4,857.828L1200.4,804.987L1212.49,804.987L1212.49,812.259C1217.78,806.247 1225.71,803.242 1236.28,803.242ZM1298.75,802.66C1306.88,802.66 1314.16,804.211 1320.61,807.314C1327.06,810.416 1330.28,815.878 1330.28,823.699L1330.28,857.828L1319.55,857.828L1318.19,847.647C1317.29,849.522 1315.4,851.315 1312.53,853.028C1309.66,854.741 1306.22,856.115 1302.19,857.149C1298.16,858.183 1294.02,858.7 1289.76,858.7C1284.8,858.7 1279.41,857.666 1273.61,855.598C1267.81,853.529 1264.91,849.005 1264.91,842.024C1264.91,837.435 1266.16,833.928 1268.68,831.504C1271.19,829.08 1273.93,827.497 1276.9,826.753C1279.86,826.01 1282.51,825.638 1284.83,825.638C1295.98,825.638 1303.7,825.558 1307.99,825.396C1312.28,825.234 1315.06,824.879 1316.35,824.329C1317.64,823.78 1318.32,822.794 1318.38,821.372L1318.38,820.5C1318.32,818.884 1317.37,817.381 1315.53,815.991C1313.69,814.602 1311.26,813.487 1308.23,812.646C1305.2,811.806 1301.98,811.386 1298.56,811.386C1292.76,811.257 1287.83,812.065 1283.76,813.81C1279.7,815.555 1277.67,818.367 1277.67,822.245L1265.49,822.245C1265.49,817.268 1267.26,813.325 1270.81,810.416C1274.35,807.508 1278.64,805.488 1283.67,804.357C1288.7,803.226 1293.73,802.66 1298.75,802.66ZM1294.4,848.035C1303.43,848.035 1309.66,846.193 1313.11,842.509C1316.56,838.824 1318.29,834.655 1318.29,830.001C1315.13,832.393 1308.68,833.589 1298.95,833.589C1293.6,833.589 1289.45,833.75 1286.52,834.073C1283.59,834.397 1281.41,835.027 1279.99,835.964C1278.57,836.901 1277.8,838.275 1277.67,840.085C1277.87,842.541 1279.2,844.48 1281.68,845.902C1284.17,847.324 1288.41,848.035 1294.4,848.035ZM1349.52,813.131C1351.97,810.546 1355.04,808.558 1358.71,807.168C1362.38,805.779 1366.74,804.825 1371.77,804.308L1371.77,816.04L1361.13,816.04C1356.62,816.04 1353.6,817.3 1352.09,819.821C1350.57,822.342 1349.78,825.832 1349.72,830.292L1349.72,857.828L1337.63,857.828L1337.63,804.987L1347.69,804.987L1349.52,813.131ZM1411.7,802.757C1418.02,802.757 1423.71,803.985 1428.77,806.441C1433.83,808.897 1437.8,812.307 1440.67,816.67C1443.54,821.033 1444.97,825.929 1444.97,831.359C1444.97,836.724 1443.54,841.588 1440.67,845.95C1437.8,850.313 1433.83,853.723 1428.77,856.179C1423.71,858.635 1418.02,859.864 1411.7,859.864C1405.64,859.864 1399.95,858.619 1394.64,856.131C1389.32,853.642 1385.08,850.217 1381.92,845.854C1378.76,841.491 1377.18,836.659 1377.18,831.359C1377.18,825.994 1378.76,821.13 1381.92,816.767C1385.08,812.404 1389.3,808.978 1394.59,806.49C1399.88,804.001 1405.58,802.757 1411.7,802.757ZM1411.8,851.138C1417.73,851.138 1422.73,849.538 1426.79,846.338C1430.85,843.139 1432.88,838.146 1432.88,831.359C1432.88,824.572 1430.85,819.562 1426.79,816.331C1422.73,813.099 1417.73,811.483 1411.8,811.483C1408.06,811.483 1404.48,812.162 1401.07,813.519C1397.65,814.876 1394.86,817.042 1392.7,820.015C1390.54,822.988 1389.46,826.77 1389.46,831.359C1389.46,835.948 1390.54,839.713 1392.7,842.654C1394.86,845.595 1397.63,847.744 1401.02,849.102C1404.4,850.459 1408,851.138 1411.8,851.138ZM1497.39,804.987L1509.47,804.987L1509.47,857.828L1497.39,857.828L1497.39,850.556C1492.1,856.567 1484.17,859.573 1473.6,859.573C1466.51,859.573 1460.94,857.084 1456.91,852.107C1452.88,847.13 1450.87,838.695 1450.87,826.802L1450.87,804.987L1462.96,804.987L1462.96,826.511C1462.96,833.169 1464.06,838.743 1466.25,843.236C1468.44,847.728 1472.98,849.974 1479.88,849.974C1486.97,849.974 1491.66,847.696 1493.95,843.139C1496.24,838.582 1497.39,832.813 1497.39,825.832L1497.39,804.987ZM1552.7,803.242C1559.79,803.242 1565.35,805.73 1569.38,810.707C1573.41,815.684 1575.43,824.119 1575.43,836.013L1575.43,857.828L1563.34,857.828L1563.34,836.303C1563.34,829.646 1562.24,824.071 1560.05,819.579C1557.86,815.086 1553.31,812.84 1546.41,812.84C1539.32,812.84 1534.63,815.119 1532.35,819.676C1530.06,824.233 1528.91,830.001 1528.91,836.982L1528.91,857.828L1516.82,857.828L1516.82,804.987L1528.91,804.987L1528.91,812.259C1534.2,806.247 1542.13,803.242 1552.7,803.242ZM1632,786.275L1644.09,786.275L1644.09,857.537L1634.03,857.537L1632.77,851.428C1627.29,856.276 1618.53,858.7 1606.47,858.7C1601.51,858.7 1597.07,857.456 1593.17,854.967C1589.27,852.479 1586.24,849.069 1584.08,844.739C1581.92,840.408 1580.84,835.56 1580.84,830.195L1580.84,829.904C1580.91,825.251 1581.95,820.855 1583.99,816.718C1586.02,812.582 1588.97,809.253 1592.83,806.732C1596.7,804.211 1601.25,802.951 1606.47,802.951C1617.62,802.951 1626.13,805.73 1632,811.289L1632,786.275ZM1613.24,850.265C1616.91,850.265 1620.17,849.344 1623.01,847.502C1625.84,845.66 1628.05,843.268 1629.63,840.327C1631.21,837.386 1632,834.3 1632,831.068C1632,827.513 1631.23,824.249 1629.68,821.275C1628.13,818.302 1625.92,815.927 1623.05,814.149C1620.18,812.372 1616.91,811.483 1613.24,811.483C1609.05,811.483 1605.47,812.452 1602.5,814.392C1599.54,816.331 1597.32,818.738 1595.83,821.615C1594.35,824.491 1593.58,827.319 1593.51,830.098C1593.58,833.33 1594.35,836.481 1595.83,839.551C1597.32,842.622 1599.52,845.175 1602.46,847.211C1605.39,849.247 1608.98,850.265 1613.24,850.265ZM1706.08,804.987L1716.13,804.987L1716.13,815.167L1706.08,815.167L1706.08,857.828L1693.99,857.828L1693.99,815.167L1683.45,815.167L1683.45,804.987L1693.99,804.987L1693.99,793.546L1706.08,784.529L1706.08,804.987ZM1752.2,802.757C1758.52,802.757 1764.21,803.985 1769.27,806.441C1774.33,808.897 1778.3,812.307 1781.17,816.67C1784.04,821.033 1785.47,825.929 1785.47,831.359C1785.47,836.724 1784.04,841.588 1781.17,845.95C1778.3,850.313 1774.33,853.723 1769.27,856.179C1764.21,858.635 1758.52,859.864 1752.2,859.864C1746.14,859.864 1740.45,858.619 1735.14,856.131C1729.82,853.642 1725.58,850.217 1722.42,845.854C1719.26,841.491 1717.68,836.659 1717.68,831.359C1717.68,825.994 1719.26,821.13 1722.42,816.767C1725.58,812.404 1729.8,808.978 1735.09,806.49C1740.37,804.001 1746.08,802.757 1752.2,802.757ZM1752.3,851.138C1758.23,851.138 1763.23,849.538 1767.29,846.338C1771.35,843.139 1773.38,838.146 1773.38,831.359C1773.38,824.572 1771.35,819.562 1767.29,816.331C1763.23,813.099 1758.23,811.483 1752.3,811.483C1748.56,811.483 1744.98,812.162 1741.57,813.519C1738.15,814.876 1735.36,817.042 1733.2,820.015C1731.04,822.988 1729.96,826.77 1729.96,831.359C1729.96,835.948 1731.04,839.713 1733.2,842.654C1735.36,845.595 1738.13,847.744 1741.52,849.102C1744.9,850.459 1748.5,851.138 1752.3,851.138ZM1848.81,828.644L1884.01,857.828L1867.38,857.828L1834.98,831.553L1834.98,857.828L1822.9,857.828L1822.9,786.081L1834.98,786.081L1834.98,825.832L1862.84,804.987L1879.95,804.987L1848.81,828.644ZM1946.29,832.134L1891.36,832.134C1891.56,835.431 1892.49,838.517 1894.17,841.394C1895.84,844.27 1898.33,846.613 1901.61,848.423C1904.9,850.233 1908.9,851.138 1913.61,851.138C1917.67,851.138 1921.26,850.41 1924.39,848.956C1927.52,847.502 1929.93,845.692 1931.64,843.527C1933.35,841.361 1934.2,839.277 1934.2,837.273L1946.29,837.273C1946.29,840.634 1945,844.06 1942.42,847.55C1939.85,851.041 1936.07,853.949 1931.11,856.276C1926.14,858.603 1920.25,859.767 1913.41,859.767C1907.29,859.767 1901.61,858.555 1896.39,856.131C1891.17,853.707 1887.01,850.313 1883.92,845.95C1880.82,841.588 1879.28,836.627 1879.28,831.068C1879.28,825.38 1880.77,820.354 1883.77,815.991C1886.77,811.628 1890.86,808.267 1896.05,805.908C1901.24,803.549 1907.03,802.369 1913.41,802.369C1919.92,802.369 1925.64,803.533 1930.58,805.859C1935.51,808.186 1939.35,811.467 1942.09,815.7C1944.83,819.934 1946.23,824.895 1946.29,830.583L1946.29,832.134ZM1913.61,811.095C1908.06,811.095 1903.58,812.323 1900.16,814.779C1896.75,817.236 1894.3,820.467 1892.81,824.475L1933.43,824.475C1932.33,820.467 1930.19,817.236 1927,814.779C1923.81,812.323 1919.34,811.095 1913.61,811.095ZM2017.76,832.134L1962.83,832.134C1963.02,835.431 1963.96,838.517 1965.63,841.394C1967.31,844.27 1969.79,846.613 1973.08,848.423C1976.37,850.233 1980.36,851.138 1985.07,851.138C1989.13,851.138 1992.73,850.41 1995.85,848.956C1998.98,847.502 2001.4,845.692 2003.11,843.527C2004.81,841.361 2005.67,839.277 2005.67,837.273L2017.76,837.273C2017.76,840.634 2016.47,844.06 2013.89,847.55C2011.31,851.041 2007.54,853.949 2002.57,856.276C1997.61,858.603 1991.71,859.767 1984.88,859.767C1978.75,859.767 1973.08,858.555 1967.86,856.131C1962.63,853.707 1958.48,850.313 1955.38,845.95C1952.29,841.588 1950.74,836.627 1950.74,831.068C1950.74,825.38 1952.24,820.354 1955.24,815.991C1958.24,811.628 1962.33,808.267 1967.52,805.908C1972.71,803.549 1978.49,802.369 1984.88,802.369C1991.39,802.369 1997.11,803.533 2002.04,805.859C2006.97,808.186 2010.81,811.467 2013.55,815.7C2016.29,819.934 2017.69,824.895 2017.76,830.583L2017.76,832.134ZM1985.07,811.095C1979.53,811.095 1975.05,812.323 1971.63,814.779C1968.21,817.236 1965.76,820.467 1964.28,824.475L2004.89,824.475C2003.8,820.467 2001.65,817.236 1998.46,814.779C1995.27,812.323 1990.81,811.095 1985.07,811.095ZM2086.9,832.619C2086.77,837.273 2085.68,841.652 2083.61,845.757C2081.55,849.861 2078.6,853.19 2074.76,855.743C2070.93,858.296 2066.43,859.573 2061.27,859.573C2050.12,859.573 2041.61,856.793 2035.74,851.235L2035.74,876.249L2023.66,876.249L2023.66,804.987L2033.71,804.987L2035.26,812.743C2041.32,806.797 2049.99,803.823 2061.27,803.823C2066.24,803.823 2070.64,805.052 2074.47,807.508C2078.31,809.964 2081.32,813.325 2083.52,817.591C2085.71,821.857 2086.84,826.64 2086.9,831.94L2086.9,832.619ZM2054.51,851.041C2058.7,851.041 2062.26,850.055 2065.19,848.084C2068.12,846.112 2070.35,843.656 2071.86,840.715C2073.38,837.774 2074.17,834.914 2074.23,832.134C2074.17,828.838 2073.44,825.687 2072.06,822.681C2070.67,819.676 2068.51,817.187 2065.58,815.216C2062.64,813.244 2058.95,812.259 2054.51,812.259C2050.83,812.259 2047.57,813.18 2044.74,815.022C2041.9,816.864 2039.69,819.255 2038.11,822.196C2036.53,825.137 2035.74,828.224 2035.74,831.456C2035.74,835.011 2036.52,838.275 2038.07,841.248C2039.61,844.221 2041.82,846.597 2044.69,848.374C2047.56,850.152 2050.83,851.041 2054.51,851.041ZM2196.66,804.987L2165.72,869.753C2164.17,872.662 2161.51,874.585 2157.74,875.522C2153.97,876.459 2149.28,876.928 2143.67,876.928L2143.57,865.002C2146.54,865.002 2148.63,864.727 2149.86,864.178C2151.08,863.629 2151.69,862.837 2151.69,861.803C2151.69,861.092 2151.45,860.235 2150.97,859.233C2150.49,858.231 2150.18,857.601 2150.05,857.343L2122.88,804.987L2136.51,804.987L2160.78,855.598L2183.03,804.987L2196.66,804.987ZM2227.41,802.757C2233.73,802.757 2239.42,803.985 2244.48,806.441C2249.54,808.897 2253.51,812.307 2256.38,816.67C2259.25,821.033 2260.68,825.929 2260.68,831.359C2260.68,836.724 2259.25,841.588 2256.38,845.95C2253.51,850.313 2249.54,853.723 2244.48,856.179C2239.42,858.635 2233.73,859.864 2227.41,859.864C2221.35,859.864 2215.66,858.619 2210.35,856.131C2205.03,853.642 2200.79,850.217 2197.63,845.854C2194.47,841.491 2192.89,836.659 2192.89,831.359C2192.89,825.994 2194.47,821.13 2197.63,816.767C2200.79,812.404 2205.01,808.978 2210.3,806.49C2215.58,804.001 2221.29,802.757 2227.41,802.757ZM2227.51,851.138C2233.44,851.138 2238.44,849.538 2242.5,846.338C2246.56,843.139 2248.59,838.146 2248.59,831.359C2248.59,824.572 2246.56,819.562 2242.5,816.331C2238.44,813.099 2233.44,811.483 2227.51,811.483C2223.77,811.483 2220.19,812.162 2216.78,813.519C2213.36,814.876 2210.57,817.042 2208.41,820.015C2206.25,822.988 2205.17,826.77 2205.17,831.359C2205.17,835.948 2206.25,839.713 2208.41,842.654C2210.57,845.595 2213.34,847.744 2216.73,849.102C2220.11,850.459 2223.71,851.138 2227.51,851.138ZM2313.1,804.987L2325.18,804.987L2325.18,857.828L2313.1,857.828L2313.1,850.556C2307.81,856.567 2299.88,859.573 2289.3,859.573C2282.21,859.573 2276.65,857.084 2272.62,852.107C2268.59,847.13 2266.58,838.695 2266.58,826.802L2266.58,804.987L2278.67,804.987L2278.67,826.511C2278.67,833.169 2279.76,838.743 2281.95,843.236C2284.15,847.728 2288.69,849.974 2295.59,849.974C2302.68,849.974 2307.37,847.696 2309.66,843.139C2311.95,838.582 2313.1,832.813 2313.1,825.832L2313.1,804.987ZM2344.43,813.131C2346.88,810.546 2349.94,808.558 2353.61,807.168C2357.29,805.779 2361.64,804.825 2366.67,804.308L2366.67,816.04L2356.03,816.04C2351.52,816.04 2348.51,817.3 2346.99,819.821C2345.47,822.342 2344.68,825.832 2344.62,830.292L2344.62,857.828L2332.53,857.828L2332.53,804.987L2342.59,804.987L2344.43,813.131ZM67.017,918.836L12.088,918.836C12.282,922.132 13.216,925.219 14.893,928.095C16.569,930.971 19.051,933.315 22.339,935.124C25.627,936.934 29.624,937.839 34.33,937.839C38.392,937.839 41.986,937.112 45.113,935.658C48.24,934.203 50.657,932.394 52.366,930.228C54.074,928.063 54.929,925.978 54.929,923.975L67.017,923.975C67.017,927.336 65.727,930.761 63.149,934.252C60.57,937.742 56.798,940.651 51.834,942.978C46.87,945.305 40.971,946.468 34.137,946.468C28.012,946.468 22.339,945.256 17.117,942.832C11.895,940.408 7.736,937.015 4.642,932.652C1.547,928.289 0,923.328 0,917.769C0,912.081 1.499,907.056 4.497,902.693C7.495,898.33 11.589,894.969 16.778,892.61C21.968,890.25 27.754,889.071 34.137,889.071C40.648,889.071 46.37,890.234 51.302,892.561C56.234,894.888 60.07,898.168 62.81,902.402C65.55,906.636 66.952,911.597 67.017,917.285L67.017,918.836ZM34.33,897.797C28.786,897.797 24.305,899.025 20.888,901.481C17.471,903.937 15.022,907.169 13.539,911.176L54.155,911.176C53.059,907.169 50.915,903.937 47.724,901.481C44.533,899.025 40.068,897.797 34.33,897.797ZM126.104,891.688L136.161,891.688L136.161,962.951L124.073,962.951L124.073,937.936C118.206,943.495 109.696,946.274 98.543,946.274C93.385,946.274 88.888,944.998 85.052,942.445C81.216,939.891 78.267,936.563 76.204,932.458C74.141,928.354 73.045,923.975 72.916,919.321L72.916,918.642C72.98,913.342 74.108,908.559 76.3,904.293C78.492,900.027 81.506,896.665 85.342,894.209C89.178,891.753 93.578,890.525 98.543,890.525C110.599,890.525 119.366,892.949 124.846,897.797L126.104,891.688ZM105.312,937.742C108.987,937.742 112.259,936.853 115.128,935.076C117.997,933.298 120.205,930.923 121.752,927.95C123.299,924.976 124.073,921.712 124.073,918.157C124.073,914.925 123.283,911.839 121.704,908.898C120.124,905.957 117.916,903.565 115.079,901.723C112.243,899.881 108.987,898.96 105.312,898.96C101.121,898.96 97.543,899.946 94.578,901.917C91.612,903.889 89.388,906.409 87.905,909.48C86.422,912.55 85.649,915.701 85.584,918.933C85.649,922.229 86.422,925.316 87.905,928.192C89.388,931.068 91.596,933.379 94.529,935.124C97.463,936.87 101.057,937.742 105.312,937.742ZM189.059,891.688L201.147,891.688L201.147,944.529L189.059,944.529L189.059,937.257C183.772,943.269 175.842,946.274 165.269,946.274C158.178,946.274 152.617,943.786 148.588,938.809C144.558,933.832 142.544,925.397 142.544,913.503L142.544,891.688L154.632,891.688L154.632,913.213C154.632,919.87 155.728,925.445 157.92,929.937C160.112,934.43 164.657,936.676 171.555,936.676C178.647,936.676 183.337,934.397 185.626,929.84C187.914,925.283 189.059,919.515 189.059,912.534L189.059,891.688ZM220.585,872.782L220.585,883.059L208.496,883.059L208.496,872.782L220.585,872.782ZM220.585,944.529L208.496,944.529L208.496,885.871L220.585,885.871L220.585,944.529ZM291.179,919.321C291.051,923.975 289.955,928.354 287.891,932.458C285.828,936.563 282.879,939.891 279.043,942.445C275.207,944.998 270.71,946.274 265.553,946.274C254.399,946.274 245.889,943.495 240.022,937.936L240.022,962.951L227.934,962.951L227.934,891.688L237.992,891.688L239.539,899.445C245.599,893.498 254.27,890.525 265.553,890.525C270.517,890.525 274.917,891.753 278.753,894.209C282.589,896.665 285.603,900.027 287.795,904.293C289.987,908.559 291.115,913.342 291.179,918.642L291.179,919.321ZM258.783,937.742C262.974,937.742 266.536,936.756 269.469,934.785C272.403,932.814 274.627,930.357 276.142,927.416C277.657,924.475 278.447,921.615 278.511,918.836C278.447,915.539 277.721,912.388 276.335,909.383C274.949,906.377 272.789,903.889 269.856,901.917C266.923,899.946 263.232,898.96 258.783,898.96C255.108,898.96 251.853,899.881 249.016,901.723C246.179,903.565 243.971,905.957 242.392,908.898C240.812,911.839 240.022,914.925 240.022,918.157C240.022,921.712 240.796,924.976 242.343,927.95C243.891,930.923 246.099,933.298 248.968,935.076C251.837,936.853 255.108,937.742 258.783,937.742ZM380.922,889.943C386.144,889.943 390.415,891.01 393.735,893.143C397.056,895.276 399.538,898.734 401.182,903.517C402.826,908.3 403.648,914.699 403.648,922.714L403.648,944.529L391.656,944.529L391.656,923.005C391.656,916.865 390.335,911.403 387.691,906.62C385.048,901.836 380.471,899.445 373.959,899.445C369.253,899.445 365.659,900.463 363.177,902.499C360.694,904.535 359.034,907.201 358.196,910.498C357.358,913.794 356.939,917.866 356.939,922.714L356.939,944.529L344.754,944.529L344.754,923.005C344.754,916.671 343.578,911.16 341.224,906.474C338.871,901.788 334.503,899.445 328.121,899.445C322.383,899.445 318.209,900.592 315.598,902.887C312.986,905.181 311.359,908.235 310.714,912.049C310.069,915.863 309.747,921.357 309.747,928.531L309.747,944.529L297.562,944.529L297.562,891.688L306.556,891.688L309.747,899.251L309.747,899.736C315.291,893.207 323.511,889.943 334.407,889.943C339.371,889.943 343.384,890.913 346.447,892.852C349.509,894.791 351.878,897.926 353.554,902.257C355.875,897.861 359.26,894.71 363.708,892.803C368.157,890.897 373.895,889.943 380.922,889.943ZM476.08,918.836L421.151,918.836C421.345,922.132 422.28,925.219 423.956,928.095C425.632,930.971 428.114,933.315 431.402,935.124C434.69,936.934 438.687,937.839 443.394,937.839C447.455,937.839 451.049,937.112 454.176,935.658C457.303,934.203 459.721,932.394 461.429,930.228C463.137,928.063 463.992,925.978 463.992,923.975L476.08,923.975C476.08,927.336 474.79,930.761 472.212,934.252C469.633,937.742 465.861,940.651 460.897,942.978C455.933,945.305 450.034,946.468 443.2,946.468C437.075,946.468 431.402,945.256 426.18,942.832C420.958,940.408 416.8,937.015 413.705,932.652C410.61,928.289 409.063,923.328 409.063,917.769C409.063,912.081 410.562,907.056 413.56,902.693C416.558,898.33 420.652,894.969 425.842,892.61C431.031,890.25 436.818,889.071 443.2,889.071C449.712,889.071 455.433,890.234 460.365,892.561C465.297,894.888 469.133,898.168 471.873,902.402C474.613,906.636 476.015,911.597 476.08,917.285L476.08,918.836ZM443.394,897.797C437.849,897.797 433.368,899.025 429.951,901.481C426.535,903.937 424.085,907.169 422.602,911.176L463.218,911.176C462.122,907.169 459.978,903.937 456.787,901.481C453.596,899.025 449.131,897.797 443.394,897.797ZM517.857,889.943C524.948,889.943 530.509,892.432 534.538,897.409C538.568,902.386 540.582,910.821 540.582,922.714L540.582,944.529L528.494,944.529L528.494,923.005C528.494,916.347 527.398,910.772 525.206,906.28C523.014,901.788 518.469,899.542 511.571,899.542C504.479,899.542 499.789,901.82 497.5,906.377C495.211,910.934 494.067,916.703 494.067,923.684L494.067,944.529L481.979,944.529L481.979,891.688L494.067,891.688L494.067,898.96C499.354,892.949 507.283,889.943 517.857,889.943ZM569.594,891.688L579.651,891.688L579.651,901.869L569.594,901.869L569.594,944.529L557.506,944.529L557.506,901.869L546.965,901.869L546.965,891.688L557.506,891.688L557.506,880.248L569.594,871.231L569.594,891.688ZM620.187,944.529L620.187,891.381L631.989,891.381L632.734,901.798L632.577,904.118L633.126,904.432C637.779,894.997 645.268,890.28 655.593,890.28C657.789,890.28 659.423,890.385 660.494,890.595L660.494,901.366C657.776,900.789 655.266,900.501 652.966,900.501C648.47,900.501 644.523,901.582 641.125,903.744C637.727,905.906 635.165,908.743 633.44,912.255L633.44,944.529L620.187,944.529ZM695.012,945.433C683.902,945.433 675.459,943.107 669.682,938.456C663.905,933.804 661.017,927.075 661.017,918.269C661.017,899.557 672.152,890.201 694.423,890.201C700.357,890.201 705.546,891.06 709.99,892.776C714.433,894.493 717.936,897.035 720.498,900.403C723.059,903.77 724.458,907.8 724.693,912.491C724.589,915.111 724.484,917.038 724.379,918.269L673.799,918.269L673.799,918.938C673.982,924.651 675.838,928.896 679.367,931.674C682.896,934.452 688.111,935.841 695.012,935.841C705.18,935.841 711.283,932.29 713.322,925.188L725.124,925.188C723.844,931.688 720.589,936.687 715.361,940.185C710.133,943.684 703.35,945.433 695.012,945.433ZM712.264,913.434L712.734,912.884C712.63,912.36 712.577,911.875 712.577,911.429C712.238,907.656 710.382,904.727 707.01,902.643C703.638,900.56 699.364,899.518 694.188,899.518C687.862,899.518 683.105,900.665 679.916,902.958C676.727,905.251 674.793,908.638 674.113,913.12L707.676,913.12L712.264,913.434ZM755.093,945.748C747.722,945.748 741.906,944.123 737.645,940.873C733.384,937.623 731.254,933.129 731.254,927.39C731.254,922.096 733.613,917.929 738.331,914.889C743.049,911.849 749.552,910.329 757.838,910.329L757.916,910.329C765.418,910.329 771.888,912.307 777.325,916.265L777.756,915.95L777.247,912.727L777.247,910.25C777.247,907.027 775.528,904.498 772.091,902.663C768.653,900.829 764.033,899.911 758.23,899.911C753.656,899.911 749.558,900.344 745.938,901.209C742.318,902.073 738.338,903.528 733.999,905.572L733.999,895.823C741.657,892.128 750.14,890.28 759.446,890.28C769.169,890.28 776.802,891.964 782.344,895.332C787.885,898.699 790.656,903.371 790.656,909.346L790.656,944.529L778.384,944.529L777.992,937.374L778.305,934.465L777.678,934.151C773.286,941.882 765.758,945.748 755.093,945.748ZM759.053,936.47C763.21,936.47 766.595,935.999 769.209,935.055C771.823,934.112 774.058,932.71 775.913,930.849L777.756,929.001L777.443,927.075L777.443,922.161L777.756,920.707L776.384,919.803C774.424,918.518 771.973,917.516 769.032,916.795C766.092,916.075 762.974,915.714 759.681,915.714C754.923,915.714 751.205,916.664 748.526,918.564C745.846,920.464 744.507,923.052 744.507,926.328C744.507,929.525 745.788,932.015 748.349,933.797C750.911,935.579 754.479,936.47 759.053,936.47ZM850.816,880.138L863.756,880.138L863.756,944.529L850.503,944.529L850.503,935.684L851.287,931.556L850.738,931.085C846.268,940.755 838.099,945.59 826.232,945.59C817.318,945.59 810.405,943.199 805.49,938.416C800.576,933.633 798.119,926.813 798.119,917.955L798.119,917.876C798.119,909.044 800.576,902.224 805.49,897.415C810.405,892.606 817.318,890.201 826.232,890.201C838.152,890.201 846.373,894.945 850.895,904.432L851.444,904.118L850.816,900.265L850.816,880.138ZM829.918,935.92C840.06,935.92 846.922,933.024 850.503,927.232L850.503,908.638C848.725,905.782 846.092,903.6 842.602,902.093C839.112,900.586 834.884,899.833 829.918,899.833C823.932,899.833 819.344,901.392 816.155,904.511C812.966,907.629 811.398,912.085 811.45,917.876L811.45,917.955C811.398,923.721 812.966,928.156 816.155,931.262C819.344,934.367 823.932,935.92 829.918,935.92ZM900.821,957.816C891.882,957.816 884.118,956.44 877.531,953.688L877.531,943.821L877.923,943.546C881.635,945.302 885.294,946.586 888.902,947.399C892.509,948.211 896.482,948.617 900.821,948.617C915.172,948.617 922.347,945.132 922.347,938.161L922.347,934.072L922.583,929.001L921.759,928.765C917.734,937.126 910.48,941.306 899.998,941.306C891.503,941.306 884.948,939.51 880.334,935.92C875.721,932.33 873.414,927.036 873.414,920.038L873.414,891.381L886.588,891.381L886.588,917.562C886.562,922.463 887.961,926.118 890.784,928.53C893.607,930.941 897.645,932.146 902.899,932.146C912.388,932.146 918.649,928.818 921.681,922.161L921.681,891.381L934.855,891.381L934.855,939.458C934.751,945.459 931.797,950.019 925.994,953.138C920.191,956.257 911.8,957.816 900.821,957.816ZM1008.98,889.362C1017.11,889.362 1024.39,890.913 1030.84,894.015C1037.29,897.118 1040.51,902.58 1040.51,910.401L1040.51,944.529L1029.78,944.529L1028.42,934.349C1027.52,936.223 1025.63,938.017 1022.76,939.73C1019.9,941.443 1016.45,942.816 1012.42,943.85C1008.39,944.885 1004.25,945.402 999.99,945.402C995.026,945.402 989.643,944.367 983.841,942.299C978.038,940.231 975.137,935.706 975.137,928.725C975.137,924.136 976.394,920.63 978.909,918.206C981.423,915.782 984.163,914.198 987.129,913.455C990.094,912.712 992.737,912.34 995.058,912.34C1006.21,912.34 1013.93,912.259 1018.22,912.098C1022.51,911.936 1025.3,911.58 1026.58,911.031C1027.87,910.482 1028.55,909.496 1028.62,908.074L1028.62,907.201C1028.55,905.585 1027.6,904.083 1025.76,902.693C1023.93,901.303 1021.49,900.188 1018.46,899.348C1015.43,898.508 1012.21,898.087 1008.79,898.087C1002.99,897.958 998.056,898.766 993.995,900.511C989.933,902.257 987.902,905.068 987.902,908.946L975.717,908.946C975.717,903.969 977.49,900.027 981.036,897.118C984.582,894.209 988.869,892.189 993.898,891.058C998.927,889.927 1003.96,889.362 1008.98,889.362ZM1004.63,934.737C1013.66,934.737 1019.9,932.894 1023.35,929.21C1026.79,925.526 1028.52,921.357 1028.52,916.703C1025.36,919.094 1018.91,920.29 1009.18,920.29C1003.83,920.29 999.684,920.452 996.751,920.775C993.817,921.098 991.641,921.728 990.223,922.666C988.805,923.603 988.031,924.976 987.902,926.786C988.096,929.242 989.433,931.182 991.915,932.604C994.398,934.026 998.636,934.737 1004.63,934.737ZM1083.74,889.943C1090.83,889.943 1096.39,892.432 1100.42,897.409C1104.45,902.386 1106.46,910.821 1106.46,922.714L1106.46,944.529L1094.38,944.529L1094.38,923.005C1094.38,916.347 1093.28,910.772 1091.09,906.28C1088.89,901.788 1084.35,899.542 1077.45,899.542C1070.36,899.542 1065.67,901.82 1063.38,906.377C1061.09,910.934 1059.95,916.703 1059.95,923.684L1059.95,944.529L1047.86,944.529L1047.86,891.688L1059.95,891.688L1059.95,898.96C1065.23,892.949 1073.16,889.943 1083.74,889.943ZM1163.04,872.976L1175.12,872.976L1175.12,944.238L1165.07,944.238L1163.81,938.13C1158.33,942.978 1149.56,945.402 1137.51,945.402C1132.54,945.402 1128.11,944.157 1124.21,941.669C1120.31,939.18 1117.28,935.771 1115.12,931.44C1112.96,927.109 1111.88,922.262 1111.88,916.897L1111.88,916.606C1111.94,911.952 1112.99,907.557 1115.02,903.42C1117.05,899.283 1120,895.954 1123.87,893.434C1127.74,890.913 1132.28,889.652 1137.51,889.652C1148.66,889.652 1157.17,892.432 1163.04,897.991L1163.04,872.976ZM1144.28,936.967C1147.95,936.967 1151.2,936.045 1154.04,934.203C1156.88,932.361 1159.09,929.97 1160.67,927.029C1162.25,924.088 1163.04,921.001 1163.04,917.769C1163.04,914.214 1162.26,910.95 1160.71,907.977C1159.17,905.004 1156.96,902.628 1154.09,900.851C1151.22,899.073 1147.95,898.184 1144.28,898.184C1140.08,898.184 1136.51,899.154 1133.54,901.093C1130.58,903.032 1128.35,905.44 1126.87,908.316C1125.38,911.193 1124.61,914.02 1124.55,916.8C1124.61,920.032 1125.38,923.183 1126.87,926.253C1128.35,929.323 1130.56,931.876 1133.49,933.912C1136.42,935.949 1140.02,936.967 1144.28,936.967ZM1285.85,891.688L1254.9,956.455C1253.36,959.363 1250.7,961.286 1246.93,962.223C1243.16,963.161 1238.46,963.629 1232.86,963.629L1232.76,951.704C1235.73,951.704 1237.82,951.429 1239.05,950.88C1240.27,950.33 1240.88,949.538 1240.88,948.504C1240.88,947.793 1240.64,946.937 1240.16,945.935C1239.67,944.933 1239.37,944.303 1239.24,944.044L1212.07,891.688L1225.7,891.688L1249.97,942.299L1272.22,891.688L1285.85,891.688ZM1316.6,889.458C1322.92,889.458 1328.61,890.687 1333.67,893.143C1338.73,895.599 1342.7,899.009 1345.57,903.372C1348.43,907.735 1349.87,912.631 1349.87,918.06C1349.87,923.425 1348.43,928.289 1345.57,932.652C1342.7,937.015 1338.73,940.425 1333.67,942.881C1328.61,945.337 1322.92,946.565 1316.6,946.565C1310.54,946.565 1304.85,945.321 1299.54,942.832C1294.22,940.344 1289.98,936.918 1286.82,932.555C1283.66,928.192 1282.08,923.361 1282.08,918.06C1282.08,912.695 1283.66,907.832 1286.82,903.469C1289.98,899.106 1294.2,895.68 1299.49,893.191C1304.77,890.703 1310.48,889.458 1316.6,889.458ZM1316.7,937.839C1322.63,937.839 1327.63,936.239 1331.69,933.04C1335.75,929.84 1337.78,924.847 1337.78,918.06C1337.78,911.273 1335.75,906.264 1331.69,903.032C1327.63,899.8 1322.63,898.184 1316.7,898.184C1312.96,898.184 1309.38,898.863 1305.97,900.221C1302.55,901.578 1299.76,903.743 1297.6,906.717C1295.44,909.69 1294.36,913.471 1294.36,918.06C1294.36,922.649 1295.44,926.415 1297.6,929.356C1299.76,932.297 1302.53,934.446 1305.92,935.803C1309.3,937.16 1312.9,937.839 1316.7,937.839ZM1402.28,891.688L1414.37,891.688L1414.37,944.529L1402.28,944.529L1402.28,937.257C1397,943.269 1389.07,946.274 1378.5,946.274C1371.4,946.274 1365.84,943.786 1361.81,938.809C1357.78,933.832 1355.77,925.397 1355.77,913.503L1355.77,891.688L1367.86,891.688L1367.86,913.213C1367.86,919.87 1368.95,925.445 1371.14,929.937C1373.34,934.43 1377.88,936.676 1384.78,936.676C1391.87,936.676 1396.56,934.397 1398.85,929.84C1401.14,925.283 1402.28,919.515 1402.28,912.534L1402.28,891.688ZM1433.62,899.833C1436.07,897.247 1439.13,895.26 1442.8,893.87C1446.48,892.48 1450.83,891.527 1455.86,891.01L1455.86,902.741L1445.22,902.741C1440.71,902.741 1437.69,904.002 1436.18,906.523C1434.66,909.043 1433.88,912.534 1433.81,916.994L1433.81,944.529L1421.72,944.529L1421.72,891.688L1431.78,891.688L1433.62,899.833ZM1558.46,919.321C1558.33,923.975 1557.24,928.354 1555.17,932.458C1553.11,936.563 1550.16,939.891 1546.33,942.445C1542.49,944.998 1537.99,946.274 1532.84,946.274C1521.68,946.274 1513.17,943.495 1507.31,937.936L1507.31,962.951L1495.22,962.951L1495.22,891.688L1505.28,891.688L1506.82,899.445C1512.88,893.498 1521.55,890.525 1532.84,890.525C1537.8,890.525 1542.2,891.753 1546.04,894.209C1549.87,896.665 1552.89,900.027 1555.08,904.293C1557.27,908.559 1558.4,913.342 1558.46,918.642L1558.46,919.321ZM1526.07,937.742C1530.26,937.742 1533.82,936.756 1536.75,934.785C1539.69,932.814 1541.91,930.357 1543.42,927.416C1544.94,924.475 1545.73,921.615 1545.8,918.836C1545.73,915.539 1545.01,912.388 1543.62,909.383C1542.23,906.377 1540.07,903.889 1537.14,901.917C1534.21,899.946 1530.52,898.96 1526.07,898.96C1522.39,898.96 1519.14,899.881 1516.3,901.723C1513.46,903.565 1511.26,905.957 1509.67,908.898C1508.1,911.839 1507.31,914.925 1507.31,918.157C1507.31,921.712 1508.08,924.976 1509.63,927.95C1511.17,930.923 1513.38,933.298 1516.25,935.076C1519.12,936.853 1522.39,937.742 1526.07,937.742ZM1576.74,899.833C1579.19,897.247 1582.25,895.26 1585.93,893.87C1589.6,892.48 1593.95,891.527 1598.98,891.01L1598.98,902.741L1588.35,902.741C1583.83,902.741 1580.82,904.002 1579.3,906.523C1577.79,909.043 1577,912.534 1576.93,916.994L1576.93,944.529L1564.85,944.529L1564.85,891.688L1574.9,891.688L1576.74,899.833ZM1638.92,889.458C1645.24,889.458 1650.93,890.687 1655.99,893.143C1661.05,895.599 1665.02,899.009 1667.88,903.372C1670.75,907.735 1672.19,912.631 1672.19,918.06C1672.19,923.425 1670.75,928.289 1667.88,932.652C1665.02,937.015 1661.05,940.425 1655.99,942.881C1650.93,945.337 1645.24,946.565 1638.92,946.565C1632.86,946.565 1627.17,945.321 1621.85,942.832C1616.54,940.344 1612.3,936.918 1609.14,932.555C1605.98,928.192 1604.4,923.361 1604.4,918.06C1604.4,912.695 1605.98,907.832 1609.14,903.469C1612.3,899.106 1616.52,895.68 1621.81,893.191C1627.09,890.703 1632.8,889.458 1638.92,889.458ZM1639.02,937.839C1644.95,937.839 1649.95,936.239 1654.01,933.04C1658.07,929.84 1660.1,924.847 1660.1,918.06C1660.1,911.273 1658.07,906.264 1654.01,903.032C1649.95,899.8 1644.95,898.184 1639.02,898.184C1635.28,898.184 1631.7,898.863 1628.28,900.221C1624.87,901.578 1622.08,903.743 1619.92,906.717C1617.76,909.69 1616.68,913.471 1616.68,918.06C1616.68,922.649 1617.76,926.415 1619.92,929.356C1622.08,932.297 1624.85,934.446 1628.24,935.803C1631.62,937.16 1635.22,937.839 1639.02,937.839ZM1676.54,883.059L1676.54,872.782L1688.63,872.782L1688.63,883.059L1676.54,883.059ZM1676.54,885.677L1688.63,885.677L1688.63,946.856C1688.63,953.772 1686.81,958.507 1683.16,961.06C1679.52,963.613 1675.38,964.89 1670.74,964.89C1668.93,964.89 1667.35,964.76 1666,964.502L1666,953.546C1668.97,953.546 1671.2,953.223 1672.72,952.576C1674.24,951.93 1675.25,951.009 1675.77,949.813C1676.28,948.617 1676.54,947.05 1676.54,945.111L1676.54,885.677ZM1763,918.836L1708.07,918.836C1708.26,922.132 1709.19,925.219 1710.87,928.095C1712.55,930.971 1715.03,933.315 1718.32,935.124C1721.61,936.934 1725.6,937.839 1730.31,937.839C1734.37,937.839 1737.96,937.112 1741.09,935.658C1744.22,934.203 1746.63,932.394 1748.34,930.228C1750.05,928.063 1750.91,925.978 1750.91,923.975L1763,923.975C1763,927.336 1761.7,930.761 1759.13,934.252C1756.55,937.742 1752.78,940.651 1747.81,942.978C1742.85,945.305 1736.95,946.468 1730.12,946.468C1723.99,946.468 1718.32,945.256 1713.1,942.832C1707.87,940.408 1703.71,937.015 1700.62,932.652C1697.53,928.289 1695.98,923.328 1695.98,917.769C1695.98,912.081 1697.48,907.056 1700.48,902.693C1703.47,898.33 1707.57,894.969 1712.76,892.61C1717.95,890.25 1723.73,889.071 1730.12,889.071C1736.63,889.071 1742.35,890.234 1747.28,892.561C1752.21,894.888 1756.05,898.168 1758.79,902.402C1761.53,906.636 1762.93,911.597 1763,917.285L1763,918.836ZM1730.31,897.797C1724.76,897.797 1720.28,899.025 1716.87,901.481C1713.45,903.937 1711,907.169 1709.52,911.176L1750.13,911.176C1749.04,907.169 1746.89,903.937 1743.7,901.481C1740.51,899.025 1736.05,897.797 1730.31,897.797ZM1767.44,918.157C1767.44,912.728 1768.94,907.832 1771.94,903.469C1774.94,899.106 1779.06,895.696 1784.32,893.24C1789.57,890.784 1795.42,889.555 1801.87,889.555C1811.15,889.555 1818.34,891.495 1823.43,895.373C1828.53,899.251 1832.3,904.68 1834.75,911.661L1822.57,911.661C1821.99,909.334 1820.76,907.137 1818.89,905.068C1817.02,903 1814.63,901.352 1811.73,900.124C1808.83,898.895 1805.64,898.281 1802.16,898.281C1797.39,898.281 1793.33,899.154 1789.98,900.899C1786.62,902.644 1784.09,905.02 1782.38,908.025C1780.68,911.031 1779.82,914.408 1779.82,918.157C1779.82,921.389 1780.63,924.556 1782.24,927.659C1783.85,930.761 1786.33,933.298 1789.68,935.27C1793.04,937.241 1797.2,938.162 1802.16,938.033C1805.71,938.033 1808.93,937.403 1811.83,936.142C1814.73,934.882 1817.1,933.234 1818.94,931.198C1820.78,929.162 1821.95,927.012 1822.47,924.75L1834.65,924.75C1834.2,928.37 1832.38,931.876 1829.19,935.27C1826,938.663 1821.97,941.427 1817.1,943.56C1812.23,945.693 1807.16,946.759 1801.87,946.759C1795.75,946.759 1790.04,945.515 1784.75,943.026C1779.47,940.538 1775.26,937.096 1772.13,932.701C1769.01,928.305 1767.44,923.457 1767.44,918.157ZM1858.93,891.688L1868.98,891.688L1868.98,901.869L1858.93,901.869L1858.93,944.529L1846.84,944.529L1846.84,901.869L1836.3,901.869L1836.3,891.688L1846.84,891.688L1846.84,880.248L1858.93,871.231L1858.93,891.688ZM1911.63,914.085C1916.34,914.085 1920.4,914.408 1923.82,915.055C1927.23,915.701 1930.09,917.107 1932.37,919.272C1934.66,921.438 1935.81,924.621 1935.81,928.822C1935.81,934.123 1934.13,938.098 1930.78,940.748C1927.43,943.398 1923.61,945.062 1919.32,945.741C1915.03,946.42 1910.28,946.759 1905.06,946.759C1897.06,946.759 1889.71,945.418 1883.01,942.735C1876.3,940.053 1872.95,934.898 1872.95,927.271L1885.04,927.465C1885.04,931.02 1887.08,933.622 1891.18,935.27C1895.27,936.918 1899.9,937.742 1905.06,937.742C1912.21,937.742 1917.21,937.096 1920.04,935.803C1922.88,934.51 1924.3,932.474 1924.3,929.695C1924.3,926.851 1922.78,924.993 1919.75,924.12C1916.72,923.247 1912.95,922.811 1908.44,922.811L1904.18,922.811C1895.67,922.746 1888.34,921.486 1882.18,919.03C1876.03,916.574 1872.95,912.211 1872.95,905.941C1872.95,899.219 1876.14,894.807 1882.52,892.706C1888.9,890.606 1896.29,889.555 1904.67,889.555C1912.66,889.555 1919.85,890.88 1926.23,893.531C1932.62,896.181 1935.81,901.319 1935.81,908.946L1923.72,908.753C1923.72,904.551 1921.51,901.756 1917.09,900.366C1912.68,898.976 1908.5,898.281 1904.57,898.281C1898.96,898.281 1894.3,898.766 1890.6,899.736C1886.89,900.705 1885.04,902.741 1885.04,905.844C1885.04,908.623 1886.6,910.708 1889.73,912.098C1892.85,913.487 1897.74,914.182 1904.38,914.182L1911.63,914.085ZM1975.38,944.529L1975.38,891.381L1987.02,891.381L1987.84,902.349L1988.55,902.584C1990.59,898.575 1993.42,895.522 1997.04,893.425C2000.66,891.328 2004.93,890.28 2009.84,890.28C2016.01,890.28 2021.06,891.604 2024.98,894.251C2028.9,896.897 2031.51,900.697 2032.82,905.651C2034.39,900.802 2037.2,897.028 2041.27,894.329C2045.33,891.63 2050.03,890.28 2055.36,890.28C2062.92,890.28 2068.74,892.252 2072.83,896.196C2076.92,900.141 2078.97,905.755 2078.97,913.041L2078.97,944.529L2065.79,944.529L2065.79,915.125C2065.85,910.25 2064.66,906.483 2062.22,903.823C2059.79,901.163 2056.33,899.833 2051.83,899.833C2047.44,899.833 2043.65,900.887 2040.46,902.997C2037.27,905.107 2034.91,907.865 2033.37,911.272C2033.68,912.818 2033.84,914.456 2033.84,916.186L2033.84,944.529L2020.51,944.529L2020.51,915.125C2020.56,910.224 2019.37,906.45 2016.94,903.803C2014.51,901.156 2010.97,899.833 2006.31,899.833C2002.21,899.833 1998.63,900.671 1995.59,902.349C1992.54,904.026 1990.17,906.332 1988.47,909.267L1988.47,944.529L1975.38,944.529ZM2121.76,945.748C2110.75,945.748 2102.15,943.31 2095.96,938.436C2089.76,933.561 2086.66,926.839 2086.66,918.269C2086.66,909.516 2089.76,902.65 2095.96,897.671C2102.15,892.691 2110.75,890.201 2121.76,890.201C2132.84,890.201 2141.49,892.691 2147.7,897.671C2153.9,902.65 2157.01,909.516 2157.01,918.269C2157.01,926.839 2153.9,933.561 2147.7,938.436C2141.49,943.31 2132.84,945.748 2121.76,945.748ZM2121.76,935.999C2128.68,935.999 2134.08,934.426 2137.95,931.281C2141.82,928.136 2143.75,923.799 2143.75,918.269C2143.75,912.53 2141.82,908.036 2137.95,904.786C2134.08,901.536 2128.68,899.911 2121.76,899.911C2114.91,899.911 2109.57,901.536 2105.74,904.786C2101.91,908.036 2100,912.53 2100,918.269C2100,923.799 2101.91,928.136 2105.74,931.281C2109.57,934.426 2114.91,935.999 2121.76,935.999ZM2179.96,944.529L2159.57,892.599L2159.57,891.381L2172.9,891.381L2190.39,936.785L2190.82,938.986L2194.43,938.986L2194.82,936.785L2212.42,891.381L2225.83,891.381L2225.83,892.599L2205.33,944.529L2179.96,944.529ZM2243.92,885.917L2235.73,878.094L2235.73,877.937L2244.08,869.917L2244.23,869.917L2252.43,877.779L2252.43,877.937L2244.08,885.917L2243.92,885.917ZM2241.84,944.608L2241.69,906.948L2242.08,901.287L2241.61,900.737L2236.78,900.894L2229.41,900.894L2229.41,891.381L2254.47,891.381L2254.62,944.608L2241.84,944.608ZM2264.52,944.529L2264.52,891.381L2276.32,891.381L2277.07,902.27L2277.85,902.584C2280.07,898.601 2283.2,895.554 2287.22,893.445C2291.25,891.335 2295.99,890.28 2301.45,890.28C2309.74,890.28 2316.1,892.246 2320.53,896.177C2324.96,900.108 2327.18,905.729 2327.18,913.041L2327.18,944.529L2313.84,944.529L2313.84,915.125C2313.9,910.224 2312.54,906.45 2309.79,903.803C2307.03,901.156 2303.07,899.833 2297.93,899.833C2293.09,899.833 2288.97,900.566 2285.55,902.034C2282.14,903.502 2279.55,905.638 2277.77,908.442L2277.77,944.529L2264.52,944.529ZM2366.91,958.681C2357.78,958.681 2349.99,957.371 2343.54,954.75L2343.54,945.905L2343.89,945.59C2350.53,948.526 2358.2,949.993 2366.91,949.993C2373.47,949.993 2378.47,949.207 2381.92,947.635C2385.38,946.062 2387.1,943.795 2387.1,940.834L2387.1,935.252L2387.65,932.225L2386.98,931.989C2384.73,935.448 2381.64,938.069 2377.71,939.851C2373.78,941.633 2369.12,942.524 2363.73,942.524C2354.37,942.524 2347.28,940.323 2342.44,935.92C2337.61,931.517 2335.08,924.992 2334.87,916.343C2334.93,907.8 2337.34,901.307 2342.11,896.865C2346.88,892.423 2353.84,890.201 2362.99,890.201C2374.23,890.201 2382.29,894.355 2387.18,902.663L2387.57,902.27L2387.41,891.381L2400,891.381L2400,939.458C2400,945.774 2397.2,950.557 2391.59,953.806C2385.98,957.056 2377.76,958.681 2366.91,958.681ZM2366.36,933.915C2370.93,933.915 2375,933.325 2378.57,932.146C2382.14,930.967 2384.89,929.25 2386.83,926.996L2386.75,924.009L2386.75,910.171L2386.9,907.184C2385.02,904.799 2382.36,902.978 2378.93,901.72C2375.49,900.462 2371.4,899.833 2366.67,899.833C2360.63,899.833 2356.02,901.248 2352.83,904.078C2349.64,906.909 2348.05,910.997 2348.05,916.343C2348.2,922.056 2349.85,926.413 2352.99,929.414C2356.12,932.415 2360.58,933.915 2366.36,933.915ZM897.668,1018.72L914.689,978.39L929.291,978.39L903.954,1031.23L891.383,1031.23L877.457,990.219L863.435,1031.23L850.96,1031.23L825.623,978.39L840.129,978.39L857.246,1018.82L868.56,978.39L886.257,978.39L897.668,1018.72ZM946.795,959.484L946.795,969.761L934.706,969.761L934.706,959.484L946.795,959.484ZM946.795,1031.23L934.706,1031.23L934.706,972.573L946.795,972.573L946.795,1031.23ZM976.29,978.39L986.347,978.39L986.347,988.57L976.29,988.57L976.29,1031.23L964.202,1031.23L964.202,988.57L953.661,988.57L953.661,978.39L964.202,978.39L964.202,966.949L976.29,957.932L976.29,978.39ZM1028.41,976.645C1032.15,976.645 1035.8,977.679 1039.34,979.747C1042.89,981.816 1045.85,985.306 1048.24,990.219C1050.62,995.131 1051.82,1001.53 1051.82,1009.42L1051.82,1031.23L1039.73,1031.23L1039.73,1009.71C1039.73,1003.05 1038.63,997.474 1036.44,992.982C1034.25,988.49 1029.7,986.243 1022.81,986.243C1015.71,986.243 1011.02,988.522 1008.73,993.079C1006.45,997.636 1005.3,1003.4 1005.3,1010.38L1005.3,1031.23L993.213,1031.23L993.213,959.484L1005.3,959.484L1005.3,985.274C1010.39,979.521 1018.1,976.645 1028.41,976.645ZM1091.76,976.16C1098.07,976.16 1103.76,977.388 1108.82,979.844C1113.88,982.301 1117.85,985.71 1120.72,990.073C1123.59,994.436 1125.02,999.332 1125.02,1004.76C1125.02,1010.13 1123.59,1014.99 1120.72,1019.35C1117.85,1023.72 1113.88,1027.13 1108.82,1029.58C1103.76,1032.04 1098.07,1033.27 1091.76,1033.27C1085.7,1033.27 1080.01,1032.02 1074.69,1029.53C1069.37,1027.05 1065.13,1023.62 1061.97,1019.26C1058.81,1014.89 1057.23,1010.06 1057.23,1004.76C1057.23,999.397 1058.81,994.533 1061.97,990.17C1065.13,985.807 1069.35,982.381 1074.64,979.893C1079.93,977.404 1085.63,976.16 1091.76,976.16ZM1091.85,1024.54C1097.78,1024.54 1102.78,1022.94 1106.84,1019.74C1110.9,1016.54 1112.93,1011.55 1112.93,1004.76C1112.93,997.975 1110.9,992.966 1106.84,989.734C1102.78,986.502 1097.78,984.886 1091.85,984.886C1088.11,984.886 1084.54,985.565 1081.12,986.922C1077.7,988.279 1074.91,990.445 1072.75,993.418C1070.59,996.391 1069.51,1000.17 1069.51,1004.76C1069.51,1009.35 1070.59,1013.12 1072.75,1016.06C1074.91,1019 1077.68,1021.15 1081.07,1022.5C1084.45,1023.86 1088.05,1024.54 1091.85,1024.54ZM1177.44,978.39L1189.53,978.39L1189.53,1031.23L1177.44,1031.23L1177.44,1023.96C1172.15,1029.97 1164.22,1032.98 1153.65,1032.98C1146.56,1032.98 1141,1030.49 1136.96,1025.51C1132.94,1020.53 1130.92,1012.1 1130.92,1000.21L1130.92,978.39L1143.01,978.39L1143.01,999.914C1143.01,1006.57 1144.11,1012.15 1146.3,1016.64C1148.49,1021.13 1153.04,1023.38 1159.93,1023.38C1167.03,1023.38 1171.71,1021.1 1174,1016.54C1176.29,1011.99 1177.44,1006.22 1177.44,999.235L1177.44,978.39ZM1219.02,978.39L1229.08,978.39L1229.08,988.57L1219.02,988.57L1219.02,1031.23L1206.93,1031.23L1206.93,988.57L1196.39,988.57L1196.39,978.39L1206.93,978.39L1206.93,966.949L1219.02,957.932L1219.02,978.39ZM1318.14,959.678L1330.23,959.678L1330.23,1030.94L1320.17,1030.94L1318.92,1024.83C1313.44,1029.68 1304.67,1032.1 1292.61,1032.1C1287.65,1032.1 1283.22,1030.86 1279.32,1028.37C1275.41,1025.88 1272.38,1022.47 1270.23,1018.14C1268.07,1013.81 1266.99,1008.96 1266.99,1003.6L1266.99,1003.31C1267.05,998.654 1268.1,994.258 1270.13,990.122C1272.16,985.985 1275.11,982.656 1278.98,980.135C1282.85,977.614 1287.39,976.354 1292.61,976.354C1303.77,976.354 1312.28,979.133 1318.14,984.692L1318.14,959.678ZM1299.38,1023.67C1303.06,1023.67 1306.31,1022.75 1309.15,1020.9C1311.99,1019.06 1314.19,1016.67 1315.77,1013.73C1317.35,1010.79 1318.14,1007.7 1318.14,1004.47C1318.14,1000.92 1317.37,997.652 1315.82,994.678C1314.28,991.705 1312.07,989.33 1309.2,987.552C1306.33,985.775 1303.06,984.886 1299.38,984.886C1295.19,984.886 1291.61,985.856 1288.65,987.795C1285.68,989.734 1283.46,992.142 1281.98,995.018C1280.49,997.894 1279.72,1000.72 1279.65,1003.5C1279.72,1006.73 1280.49,1009.88 1281.98,1012.96C1283.46,1016.02 1285.67,1018.58 1288.6,1020.61C1291.53,1022.65 1295.13,1023.67 1299.38,1023.67ZM1403.15,1005.54L1348.22,1005.54C1348.41,1008.83 1349.35,1011.92 1351.02,1014.8C1352.7,1017.67 1355.18,1020.02 1358.47,1021.83C1361.76,1023.64 1365.75,1024.54 1370.46,1024.54C1374.52,1024.54 1378.12,1023.81 1381.24,1022.36C1384.37,1020.9 1386.79,1019.1 1388.5,1016.93C1390.2,1014.76 1391.06,1012.68 1391.06,1010.68L1403.15,1010.68C1403.15,1014.04 1401.86,1017.46 1399.28,1020.95C1396.7,1024.44 1392.93,1027.35 1387.96,1029.68C1383,1032.01 1377.1,1033.17 1370.27,1033.17C1364.14,1033.17 1358.47,1031.96 1353.25,1029.53C1348.03,1027.11 1343.87,1023.72 1340.77,1019.35C1337.68,1014.99 1336.13,1010.03 1336.13,1004.47C1336.13,998.783 1337.63,993.757 1340.63,989.394C1343.62,985.031 1347.72,981.67 1352.91,979.311C1358.1,976.952 1363.88,975.772 1370.27,975.772C1376.78,975.772 1382.5,976.936 1387.43,979.263C1392.36,981.59 1396.2,984.87 1398.94,989.104C1401.68,993.337 1403.08,998.298 1403.15,1003.99L1403.15,1005.54ZM1370.46,984.498C1364.92,984.498 1360.43,985.726 1357.02,988.182C1353.6,990.639 1351.15,993.871 1349.67,997.878L1390.29,997.878C1389.19,993.871 1387.05,990.639 1383.85,988.182C1380.66,985.726 1376.2,984.498 1370.46,984.498ZM1421.13,1031.23L1409.05,1031.23L1409.05,959.484L1421.13,959.484L1421.13,1031.23ZM1462.81,976.063C1470.94,976.063 1478.22,977.614 1484.67,980.717C1491.12,983.82 1494.34,989.281 1494.34,997.102L1494.34,1031.23L1483.61,1031.23L1482.25,1021.05C1481.35,1022.93 1479.46,1024.72 1476.59,1026.43C1473.73,1028.14 1470.28,1029.52 1466.25,1030.55C1462.22,1031.59 1458.08,1032.1 1453.82,1032.1C1448.86,1032.1 1443.47,1031.07 1437.67,1029C1431.87,1026.93 1428.97,1022.41 1428.97,1015.43C1428.97,1010.84 1430.22,1007.33 1432.74,1004.91C1435.25,1002.48 1437.99,1000.9 1440.96,1000.16C1443.92,999.413 1446.57,999.041 1448.89,999.041C1460.04,999.041 1467.76,998.961 1472.05,998.799C1476.34,998.638 1479.12,998.282 1480.41,997.733C1481.7,997.183 1482.38,996.197 1482.44,994.775L1482.44,993.903C1482.38,992.287 1481.43,990.784 1479.59,989.394C1477.76,988.005 1475.32,986.89 1472.29,986.049C1469.26,985.209 1466.04,984.789 1462.62,984.789C1456.82,984.66 1451.89,985.468 1447.82,987.213C1443.76,988.958 1441.73,991.77 1441.73,995.648L1429.55,995.648C1429.55,990.671 1431.32,986.728 1434.87,983.82C1438.41,980.911 1442.7,978.891 1447.73,977.76C1452.76,976.629 1457.79,976.063 1462.81,976.063ZM1458.46,1021.44C1467.49,1021.44 1473.73,1019.6 1477.17,1015.91C1480.62,1012.23 1482.35,1008.06 1482.35,1003.4C1479.19,1005.8 1472.74,1006.99 1463.01,1006.99C1457.66,1006.99 1453.51,1007.15 1450.58,1007.48C1447.65,1007.8 1445.47,1008.43 1444.05,1009.37C1442.63,1010.3 1441.86,1011.68 1441.73,1013.49C1441.92,1015.94 1443.26,1017.88 1445.75,1019.31C1448.23,1020.73 1452.47,1021.44 1458.46,1021.44ZM1566.77,978.39L1535.83,1043.16C1534.28,1046.07 1531.62,1047.99 1527.85,1048.92C1524.08,1049.86 1519.39,1050.33 1513.78,1050.33L1513.68,1038.4C1516.65,1038.4 1518.74,1038.13 1519.97,1037.58C1521.19,1037.03 1521.8,1036.24 1521.8,1035.21C1521.8,1034.5 1521.56,1033.64 1521.08,1032.64C1520.6,1031.63 1520.29,1031 1520.16,1030.75L1492.99,978.39L1506.62,978.39L1530.89,1029L1553.14,978.39L1566.77,978.39ZM1561.07,1017.66L1575.48,1017.66L1575.48,1031.23L1561.07,1031.23L1561.07,1017.66ZM2051.17,595.47L2077.53,595.47L2195.16,712.159L2195.16,595.47L2221.53,595.47L2221.53,749.392L2195.16,749.392L2077.53,632.494L2077.53,749.392L2051.17,749.392L2051.17,595.47ZM2051.17,595.47L2077.53,595.47L2195.16,712.159L2195.16,595.47L2221.53,595.47L2221.53,749.392L2195.16,749.392L2077.53,632.494L2077.53,749.392L2051.17,749.392L2051.17,595.47Z"/></g></g></g></g></svg>