<?xml version="1.0" standalone="no"?>
<!DOCTYPE svg PUBLIC "-//W3C//DTD SVG 1.1//EN" "http://www.w3.org/Graphics/SVG/1.1/DTD/svg11.dtd">
<svg xmlns="http://www.w3.org/2000/svg" xmlns:xlink="http://www.w3.org/1999/xlink" xmlns:serif="http://www.serif.com/" width="1399" height="3168" version="1.1" xml:space="preserve" style="fill-rule:evenodd;clip-rule:evenodd;stroke-linejoin:round;stroke-miterlimit:2;" viewBox="0 0 1399 3168"><g id="Artboard1" transform="matrix(1,0,0,1,-1780.96,-169.942)"><rect x="1780.96" y="169.942" width="1398.7" height="3167.99" style="fill:none;"/><clipPath id="_clip1"><rect x="1780.96" y="169.942" width="1398.7" height="3167.99"/></clipPath><g clip-path="url(#_clip1)"><g transform="matrix(1.42006,0,0,1.42006,-1019.59,-697.584)"><g transform="matrix(1.0341,0,0,0.75755,-74.9191,512.555)"><path d="M2393.51,2799.4C2386.88,2814.95 2380.24,2828.95 2374.55,2837.92C2351.37,2874.46 2263.99,2933.41 2263.99,2933.41C2254.89,2939.46 2242.59,2936.98 2236.55,2927.89C2230.5,2918.79 2232.98,2906.49 2242.07,2900.45C2242.07,2900.45 2320.54,2849.15 2341.13,2816.71C2360.2,2786.64 2374.55,2689.26 2374.55,2689.26L2621.81,2675.43L2640.63,2788.92L2704.08,2853.4C2713.76,2863.24 2713.63,2879.08 2703.79,2888.76C2693.96,2898.44 2678.12,2898.31 2668.44,2888.47L2621.81,2845.21L2569.65,2868.1L2677.73,2934.1C2689.7,2940.96 2693.85,2956.25 2686.98,2968.22C2680.12,2980.19 2664.83,2984.33 2652.86,2977.47L2538.5,2911.89C2530.99,2907.58 2558.87,2961.21 2558.87,2961.21C2562.01,2964.2 2586.38,3041.19 2586.38,3041.19C2590.36,3054.4 2582.86,3068.36 2569.65,3072.34C2556.44,3076.32 2542.48,3068.82 2538.5,3055.61L2519.6,2992.85L2479.29,2930.77C2474.84,2926.54 2472.14,2920.84 2471.63,2914.8L2412.88,3059.95C2407.7,3072.74 2393.12,3078.92 2380.33,3073.74C2367.54,3068.57 2361.36,3053.98 2366.53,3041.19L2417.12,2912.74C2416.1,2916.89 2414.03,2920.7 2411.12,2923.83L2341.52,2998.39C2332.11,3008.48 2316.27,3009.03 2306.19,2999.61C2296.1,2990.2 2295.55,2974.36 2304.97,2964.28L2370.12,2894.47L2393.51,2799.4Z"/></g><g transform="matrix(0.888639,0,0,0.888639,274.538,174.675)"><path d="M2750.07,1492.01L2749.39,1492.41C2732.31,1502.35 2714.63,1511.42 2696.42,1519.55C2679.54,1527.1 2662.2,1533.84 2644.46,1539.73C2588.24,1558.41 2527.97,1568.55 2465.29,1568.55C2414.57,1568.55 2365.41,1561.91 2318.71,1549.47C2266.97,1535.7 2218.25,1514.82 2173.71,1487.98C2016.17,1393.02 1911.1,1223.47 1911.1,1030.1C1911.1,732.709 2159.62,491.646 2465.29,491.646C2770.96,491.646 3019.49,732.709 3019.49,1030.1C3019.49,1226.24 2911.38,1397.88 2750.07,1492.01ZM2726.44,1451.51C2873.66,1365.6 2972.6,1209.11 2972.6,1030.1C2972.6,758.227 2744.73,538.534 2465.29,538.534C2185.85,538.534 1957.98,758.227 1957.98,1030.1C1957.98,1206.57 2054.14,1361.16 2197.91,1447.82C2238.72,1472.41 2283.37,1491.55 2330.77,1504.16C2373.63,1515.58 2418.74,1521.66 2465.29,1521.66C2522.8,1521.66 2578.1,1512.37 2629.68,1495.24C2645.93,1489.84 2661.82,1483.66 2677.28,1476.75C2693.96,1469.29 2710.16,1460.99 2725.81,1451.88L2726.44,1451.51Z"/></g><g transform="matrix(0.840478,0,0,0.840478,360.101,132.417)"><path d="M2160.3,1081.19C2154.9,1067.25 2161.83,1051.55 2175.77,1046.15C2189.7,1040.75 2205.41,1047.68 2210.8,1061.62C2254.53,1174.47 2306.92,1227.02 2360.68,1246.45C2399.4,1260.45 2437.88,1256.89 2471.66,1248.97C2509.77,1240.02 2542.57,1225.55 2565.08,1219.46C2645.85,1197.6 2690.04,1189.87 2726.3,1165.14C2762.22,1140.65 2789.62,1099.45 2839.41,1013.88C2846.93,1000.96 2863.52,996.572 2876.44,1004.09C2889.36,1011.61 2893.74,1028.2 2886.23,1041.12C2830.16,1137.48 2797.26,1182.32 2756.82,1209.89C2716.73,1237.23 2668.51,1247.58 2579.23,1271.75C2556.3,1277.95 2522.86,1292.59 2484.04,1301.7C2440.88,1311.83 2391.74,1315.28 2342.26,1297.39C2278.42,1274.31 2212.22,1215.2 2160.3,1081.19Z"/></g><g transform="matrix(0.840478,0,0,0.840478,414.367,203.259)"><ellipse cx="2221.22" cy="780.62" rx="55.497" ry="62.156"/></g><g transform="matrix(0.698219,0,0,0.667275,742.082,352.826)"><ellipse cx="2691.29" cy="790.999" rx="72.069" ry="72.536"/></g><g transform="matrix(0.840478,0,0,0.840478,368.387,185.812)"><ellipse cx="2485.2" cy="972.509" rx="65.735" ry="57.588"/></g><g transform="matrix(1,0,0,0.857848,2.27374e-13,219.28)"><path d="M2387,2516.23L2650.33,2542.71L2638.04,2659.33L2378.32,2674.25L2387,2516.23ZM2191.64,1549.13C2274.8,1586.88 2367.51,1607.97 2465.29,1607.97C2568.6,1607.97 2666.25,1584.43 2752.94,1542.57C2761.36,1589.58 2766.64,1632.99 2769.36,1673.5L2207.62,1737.01C2198.46,1684.39 2192.58,1623.35 2191.64,1549.13ZM2218.59,1790.29L2666.25,1739.67L2274.97,1957C2254.06,1905.91 2233.87,1854.29 2218.59,1790.29ZM2295.62,2007.49L2771.6,1743.12C2771.23,1838.49 2756.3,1917.71 2736.33,1992.65L2335.77,2119.52C2323.44,2078.59 2309.67,2042.35 2295.62,2007.49ZM2349.97,2171.84L2718.48,2055.12C2713.12,2072.95 2707.63,2090.73 2702.12,2108.62C2693.96,2135.15 2685.79,2161.93 2678.01,2189.46L2367.29,2260.03C2362.37,2228.02 2356.51,2198.86 2349.97,2171.84ZM2374.36,2313.97L2569.28,2269.7L2381.5,2406.68C2379.91,2373.4 2377.49,2342.62 2374.36,2313.97ZM2383.46,2472.3L2656.69,2272.99C2641.65,2340.05 2630.69,2413.57 2628.56,2499.55C2469.71,2468.25 2449.61,2479.45 2383.5,2475.87C2383.49,2474.68 2383.47,2473.49 2383.46,2472.3Z"/></g></g></g></g></svg>